<?xml version="1.0" encoding="utf-8"?>
<!-- Generator: Adobe Illustrator 22.0.1, SVG Export Plug-In . SVG Version: 6.00 Build 0)  -->
<svg version="1.1" id="Layer_1" xmlns="http://www.w3.org/2000/svg" xmlns:xlink="http://www.w3.org/1999/xlink" x="0px" y="0px"
	 width="160px" height="160px" viewBox="0 0 160 160" style="enable-background:new 0 0 160 160;" xml:space="preserve">
<style type="text/css">
	.st0{fill:none;}
	.st1{fill:#CC0000;}
	.st2{fill:#FFFFFF;}
</style>
<g>
	<g>
		<path class="st0" d="M95.5,52.9L95.5,52.9L95.5,52.9l-43.4,0h0v0C50,53,48.3,65.1,48.3,80s1.7,27,3.9,27.1v0h0h43.3h0v0
			c2.1,0,3.9-12.1,3.9-27.1S97.6,53,95.5,52.9z"/>
	</g>
	<g>
		<path class="st1" d="M52.2,80c0-14.9,1.7-27,3.9-27.1v0h-3.9h0v0C50,53,48.3,65.1,48.3,80s1.7,27,3.9,27.1v0h0h3.9v0
			C53.9,107,52.2,94.9,52.2,80z"/>
	</g>
	<g>
		<path class="st2" d="M52.1,107.9c-1.2,0-2.5-1.1-3.6-8.7c-0.7-5.1-1.1-12-1.1-19.2c0-2.9,0.1-27.9,4.7-27.9l43.4,0c0,0,0,0,0,0
			c1.2,0,2.5,1.1,3.6,8.7c0.7,5.1,1.1,12,1.1,19.2c0,2.9-0.1,27.9-4.7,27.9L52.1,107.9z M52.2,106.2l43.2,0
			c1.3-0.9,3.1-10.7,3.1-26.2c0-15.5-1.8-25.2-3.1-26.2l-43.2,0c-1.3,0.9-3.1,10.7-3.1,26.2C49.1,95.5,50.9,105.2,52.2,106.2z
			 M95.5,53.8C95.5,53.8,95.5,53.8,95.5,53.8C95.5,53.8,95.5,53.8,95.5,53.8z"/>
	</g>
	<g>
		<g>
			<path class="st2" d="M107.8,107.9c-1.2,0-2.5-1.1-3.6-8.7c-0.7-5.1-1.1-12-1.1-19.2c0-2.9,0.1-27.9,4.7-27.9l43.4,0c0,0,0,0,0,0
				c3.3,0,7.8,13.9,7.8,27.9c0,14.1-4.5,27.9-7.8,27.9L107.8,107.9z M107.9,106.2l43.3,0c1.5-0.6,6.1-11.6,6.1-26.2
				c0-14.5-4.5-25.5-6.1-26.2l0,0l-43.2,0c-1.3,0.9-3.1,10.7-3.1,26.2C104.8,95.5,106.6,105.2,107.9,106.2z M151.1,53.8
				C151.1,53.8,151.1,53.8,151.1,53.8C151.1,53.8,151.1,53.8,151.1,53.8L151.1,53.8z"/>
		</g>
		<g>
			<path class="st2" d="M107.8,107.9c-4.6,0-4.7-25.1-4.7-27.9c0-2.9,0.1-27.9,4.7-27.9c4.6,0,4.7,25.1,4.7,27.9
				C112.5,82.9,112.4,107.9,107.8,107.9z M107.8,53.9c-1.3,1.3-3,10.9-3,26.1c0,15.2,1.7,24.8,3,26.1c1.3-1.3,3-10.9,3-26.1
				C110.8,64.8,109,55.2,107.8,53.9z"/>
		</g>
	</g>
	<g>
		<g>
			<path class="st2" d="M8.9,107.9C5.5,107.9,1,94.1,1,80c0-14.1,4.5-27.9,7.8-27.9l31,0c1.2,0,2.5,1.1,3.6,8.7
				c0.7,5.1,1.1,12,1.1,19.2c0,2.9-0.1,27.9-4.7,27.9L8.9,107.9z M8.9,53.8C7.3,54.5,2.8,65.5,2.8,80c0,14.5,4.6,25.6,6.1,26.2
				l30.9,0c1.3-0.9,3.1-10.7,3.1-26.2c0-15.5-1.8-25.2-3.1-26.2L8.9,53.8z M8.8,52.9l0,0.9c0,0,0,0,0,0h0L8.8,52.9z M8.9,53.8
				L8.9,53.8z"/>
		</g>
		<g>
			<path class="st2" d="M39.8,107.9c-4.6,0-4.7-25.1-4.7-27.9c0-2.9,0.1-27.9,4.7-27.9c4.6,0,4.7,25.1,4.7,27.9
				C44.6,82.9,44.5,107.9,39.8,107.9z M39.8,53.9c-1.3,1.3-3,10.9-3,26.1c0,15.2,1.7,24.8,3,26.1c1.3-1.3,3-10.9,3-26.1
				C42.8,64.8,41.1,55.2,39.8,53.9z"/>
		</g>
	</g>
	<g>
		<g>
			<path class="st2" d="M128,77.4c-0.9-0.7-1.9-0.8-3-0.6c-1.4,0.3-2.4,1.6-2.4,3c0,0.1,0,0.3,0,0.4c0.2,1.3,0.9,2.1,2.1,2.6
				c0.5,0.2,1.1,0.2,1.7,0.2c0.7-0.1,1.4-0.4,1.9-0.9c0.8-0.8,1-1.7,0.9-2.8C129,78.6,128.6,77.9,128,77.4z"/>
		</g>
		<g>
			<path class="st2" d="M138.7,82.8c0.4,0,0.9,0,1.3,0c0.1,0,0.1,0,0.1-0.1c0-0.7,0-1.4,0-2c0-0.4,0-0.9,0-1.3c0,0,0-0.1,0-0.1
				c0,0,0,0,0,0c0,0,0,0.1,0.1,0.1c0.9,1.1,1.8,2.3,2.7,3.4c0.1,0.1,0.1,0.1,0.2,0.1c0.4,0,0.8,0,1.2,0c0.2,0,0.2,0,0.2-0.2
				c0-0.6,0-1.2,0-1.9c0-1.3,0-2.5,0-3.8c0-0.1,0-0.1-0.1-0.1c-0.4,0-0.8,0-1.3,0c-0.1,0-0.1,0-0.1,0.1c0,0,0,0.1,0,0.1
				c0,1.1,0,2.1,0,3.2c0,0,0,0.1,0,0.1c0,0,0,0,0,0.1c0,0,0-0.1-0.1-0.1c-0.9-1.1-1.8-2.3-2.7-3.4c-0.1-0.1-0.1-0.1-0.2-0.1
				c-0.4,0-0.9,0-1.3,0c-0.1,0-0.1,0-0.1,0.1c0,1.9,0,3.8,0,5.7C138.5,82.8,138.6,82.8,138.7,82.8z"/>
		</g>
		<g>
			<path class="st2" d="M147.5,82.8c0.8,0.3,1.6,0.3,2.5,0c0.8-0.3,1.3-0.8,1.6-1.5c0.2-0.6,0.3-1.1,0.3-1.7c0,0,0,0,0,0
				c-1,0-2,0-2.9,0c-0.1,0-0.1,0-0.1,0.1c0,0.3,0,0.7,0,1c0,0,0,0,0,0c0,0.1,0,0.1,0.1,0.1c0,0,0.1,0,0.1,0c0.3,0,0.6,0,1,0
				c0.1,0,0.1,0,0.1,0.1c-0.1,0.4-0.3,0.6-0.7,0.8c-0.2,0.1-0.5,0.1-0.7,0.1c-0.5,0-0.9-0.2-1.2-0.7c-0.2-0.3-0.2-0.6-0.2-0.9
				c0-0.5,0-0.9,0.3-1.3c0.5-0.9,1.5-0.9,2.1-0.5c0.2,0.1,0.3,0.3,0.4,0.6c0,0.1,0.1,0.1,0.1,0.1c0.4-0.2,0.9-0.4,1.3-0.5
				c0.1,0,0.1-0.1,0-0.1c-0.3-0.6-0.8-1.1-1.4-1.3c-0.8-0.3-1.6-0.3-2.5-0.1c-0.7,0.2-1.2,0.6-1.6,1.3c-0.5,1-0.6,1.9-0.2,3
				C146.1,81.9,146.7,82.5,147.5,82.8z"/>
		</g>
		<g>
			<path class="st2" d="M121.1,79.8c-0.1,0-0.2-0.1-0.3-0.1c0.1,0,0.1-0.1,0.1-0.1c0.2-0.2,0.4-0.4,0.4-0.7c0.1-0.3,0.1-0.6,0-0.9
				c-0.1-0.4-0.3-0.7-0.8-0.9c-0.2-0.1-0.5-0.1-0.7-0.1c-0.8,0-1.5,0-2.3,0c-0.1,0-0.2,0-0.2,0.2c0,1.9,0,3.8,0,5.6
				c0,0.1,0,0.2,0.1,0.2c0.8,0,1.6,0,2.3,0c0.3,0,0.5,0,0.8-0.1c0.5-0.1,1-0.4,1.2-1c0.1-0.3,0.1-0.7,0.1-1
				C121.8,80.3,121.5,79.9,121.1,79.8z M118.9,78.7C118.9,78.7,118.9,78.7,118.9,78.7c0-0.2,0-0.3,0-0.5c0-0.1,0-0.1,0.1-0.1
				c0.2,0,0.4,0,0.5,0.1c0.3,0.1,0.4,0.3,0.4,0.6c0,0.3-0.2,0.4-0.5,0.5c-0.1,0-0.3,0-0.4,0c-0.1,0-0.1,0-0.1-0.1
				C118.9,79,118.9,78.8,118.9,78.7z M120.4,81.2c0,0.1-0.1,0.2-0.2,0.3c-0.1,0.1-0.3,0.1-0.4,0.1c-0.2,0-0.4,0-0.7,0
				c-0.1,0-0.1,0-0.1-0.1c0-0.2,0-0.4,0-0.5c0,0,0,0,0,0c0-0.2,0-0.3,0-0.5c0-0.1,0-0.1,0.1-0.1c0.3,0,0.6,0,0.9,0.1
				C120.3,80.6,120.4,80.8,120.4,81.2z"/>
		</g>
		<g>
			<path class="st2" d="M133.3,82.8c0.5,0,1.1,0,1.6,0c0,0,0.1,0,0.1,0c-0.6-0.8-1.2-1.6-1.9-2.4c0.1,0,0.1,0,0.2-0.1
				c0.3-0.1,0.5-0.2,0.7-0.4c0.3-0.3,0.4-0.6,0.4-1c0-0.5-0.1-0.9-0.4-1.3c-0.4-0.5-0.8-0.7-1.4-0.7c-0.8,0-1.6,0-2.5,0
				c-0.1,0-0.1,0-0.1,0.1c0,1.9,0,3.8,0,5.7c0,0.1,0,0.1,0.1,0.1c0.4,0,0.8,0,1.3,0c0.1,0,0.1,0,0.1-0.1c0-0.6,0-1.3,0-1.9
				c0-0.1,0-0.1,0-0.2c0,0,0,0,0,0c0,0,0.1,0.1,0.1,0.1c0.4,0.7,0.9,1.3,1.3,2C133.1,82.8,133.2,82.8,133.3,82.8z M132.9,78.9
				c0,0.3-0.2,0.5-0.5,0.6c-0.2,0-0.3,0.1-0.5,0.1c-0.3,0-0.2,0.1-0.2-0.2c0-0.2,0-0.3,0-0.5c0,0,0,0,0,0c0,0,0,0,0,0
				c0-0.2,0-0.4,0-0.6c0-0.1,0-0.1,0.1-0.1c0.2,0,0.5,0,0.7,0.1C132.8,78.3,133,78.5,132.9,78.9z"/>
		</g>
		<g>
			<path class="st2" d="M135.9,82.8c0.4,0,0.9,0,1.3,0c0.1,0,0.1,0,0.1-0.1c0-1.9,0-3.8,0-5.7c0-0.1,0-0.1-0.1-0.1
				c-0.4,0-0.9,0-1.3,0c-0.1,0-0.1,0-0.1,0.1c0,0.9,0,1.9,0,2.8h0c0,1,0,1.9,0,2.9C135.7,82.8,135.8,82.8,135.9,82.8z"/>
		</g>
		<g>
			<path class="st2" d="M139.2,86.9c-0.1-0.9-0.3-1.7-0.4-2.6c0-0.1,0-0.1-0.1-0.1c-0.2,0-0.3,0-0.5,0c-0.1,0-0.2,0-0.2,0.1
				c-0.2,0.4-0.3,0.9-0.5,1.3c0,0,0,0.1,0,0.1c0,0,0-0.1,0-0.1c-0.2-0.4-0.3-0.9-0.5-1.3c0-0.1-0.1-0.1-0.2-0.1c-0.2,0-0.3,0-0.5,0
				c-0.1,0-0.1,0-0.1,0.1c-0.1,0.6-0.2,1.1-0.3,1.7c-0.1,0.3-0.1,0.7-0.2,1c0,0.1,0,0.1,0.1,0.1c0.2,0,0.4,0,0.5,0
				c0.1,0,0.1,0,0.1-0.1c0.1-0.4,0.1-0.8,0.2-1.2c0-0.1,0-0.2,0.1-0.4c0,0,0,0,0,0c0,0,0,0.1,0.1,0.1c0.2,0.5,0.4,1,0.6,1.4
				c0,0,0,0.1,0.1,0.1c0.1,0.1,0.3,0,0.3-0.1c0.2-0.5,0.4-0.9,0.6-1.4c0,0,0-0.1,0.1-0.1c0,0.1,0,0.1,0,0.1c0,0.2,0.1,0.4,0.1,0.6
				c0,0.3,0.1,0.5,0.1,0.8c0,0.1,0,0.1,0.1,0.1c0.2,0,0.4,0,0.6,0c0.1,0,0.1,0,0.1-0.1C139.2,87,139.2,86.9,139.2,86.9z"/>
		</g>
		<g>
			<path class="st2" d="M148.4,86.9c0-0.9,0-1.7,0-2.6c0-0.1,0-0.1-0.1-0.1c-0.2,0-0.3,0-0.5,0c-0.1,0-0.1,0-0.1,0.1
				c0,0.5,0,1,0,1.5c0,0.1,0,0.1,0,0.2c0,0,0,0,0,0c0,0-0.1-0.1-0.1-0.1c-0.4-0.5-0.8-1-1.2-1.5c-0.1-0.1-0.1-0.1-0.3-0.1
				c-0.2,0-0.3,0-0.5,0c-0.1,0-0.1,0-0.1,0.1c0,0.9,0,1.8,0,2.7c0,0.1,0,0.1,0.1,0.1c0.2,0,0.3,0,0.5,0c0.1,0,0.1,0,0.1-0.1
				c0-0.5,0-1,0-1.5c0-0.1,0-0.1,0-0.2c0.1,0.1,0.1,0.1,0.1,0.1c0.4,0.5,0.8,1,1.2,1.6c0,0.1,0.1,0.1,0.2,0.1c0.2,0,0.4,0,0.6,0
				c0.1,0,0.1,0,0.1-0.1C148.4,87,148.4,87,148.4,86.9z"/>
		</g>
		<g>
			<path class="st2" d="M133.2,84.1c-0.8,0.1-1.3,0.8-1.3,1.5c0,0.6,0.3,1.2,0.9,1.4c0.4,0.2,0.8,0.2,1.2,0.1
				c1.3-0.3,1.5-1.8,0.9-2.5C134.4,84.2,133.8,84,133.2,84.1z M133.5,86.5c-0.5,0-0.8-0.4-0.8-0.8c0-0.5,0.4-0.8,0.8-0.8
				c0.5,0,0.8,0.4,0.8,0.8C134.4,86.2,134,86.5,133.5,86.5z"/>
		</g>
		<g>
			<path class="st2" d="M122.2,72.8c-0.2,0-0.4,0-0.5,0c-0.1,0-0.1,0-0.1,0.1c0,0.3,0,0.6,0,0.9c0,0.1,0,0.1-0.1,0.1
				c-0.3,0-0.6,0-0.9,0c-0.1,0-0.1,0-0.1-0.1c0-0.3,0-0.6,0-0.8c0,0,0-0.1,0-0.1c0,0,0-0.1-0.1-0.1c-0.2,0-0.4,0-0.6,0
				c-0.1,0-0.1,0-0.1,0.1c0,0.5,0,0.9,0,1.4c0,0.5,0,0.9,0,1.4c0,0.1,0,0.1,0.1,0.1c0.2,0,0.3,0,0.5,0c0.2,0,0.2,0,0.2-0.2
				c0-0.3,0-0.6,0-1c0-0.1,0-0.1,0.1-0.1c0.3,0,0.6,0,0.9,0c0.1,0,0.1,0,0.1,0.1c0,0.3,0,0.7,0,1c0,0.1,0,0.1,0.1,0.1
				c0.2,0,0.4,0,0.5,0c0.1,0,0.1,0,0.1-0.1c0-0.9,0-1.8,0-2.7C122.3,72.8,122.3,72.8,122.2,72.8z"/>
		</g>
		<g>
			<path class="st2" d="M144.8,86.5c-0.3-0.7-0.6-1.5-0.8-2.2c0-0.1-0.1-0.1-0.2-0.1c-0.2,0-0.4,0-0.6,0c-0.1,0-0.2,0-0.2,0.1
				c-0.1,0.3-0.2,0.6-0.4,0.9c-0.2,0.6-0.5,1.2-0.7,1.8c0,0.1,0,0.1,0.1,0.1c0.2,0,0.4,0,0.6,0c0.1,0,0.1,0,0.1-0.1
				c0-0.1,0.1-0.2,0.1-0.3c0-0.1,0.1-0.1,0.1-0.1c0.3,0,0.6,0,0.9,0c0.1,0,0.1,0,0.1,0.1c0,0.1,0.1,0.2,0.1,0.3
				c0,0.1,0.1,0.1,0.1,0.1c0.1,0,0.2,0,0.3,0v0c0.1,0,0.2,0,0.3,0c0.1,0,0.1,0,0.1-0.1C145,86.9,144.9,86.7,144.8,86.5z M143.8,86.1
				c-0.2,0-0.3,0-0.5,0c-0.1,0-0.1,0-0.1-0.1c0.1-0.3,0.2-0.5,0.3-0.8c0,0,0-0.1,0.1-0.1c0,0.1,0.1,0.2,0.1,0.3
				C143.7,85.6,143.8,85.8,143.8,86.1C143.9,86,143.9,86.1,143.8,86.1z"/>
		</g>
		<g>
			<path class="st2" d="M141.9,84.7c-0.1-0.2-0.2-0.3-0.4-0.4c-0.2-0.1-0.3-0.1-0.5-0.1c-0.4,0-0.8,0-1.1,0c-0.1,0-0.1,0-0.1,0.1
				c0,0.5,0,0.9,0,1.4c0,0,0,0,0,0c0,0.5,0,0.9,0,1.4c0,0.1,0,0.1,0.1,0.1c0.2,0,0.3,0,0.5,0c0.1,0,0.1,0,0.1-0.1c0-0.2,0-0.5,0-0.7
				c0-0.1,0-0.1,0.1-0.1c0.2,0,0.4,0,0.6,0c0.4,0,0.7-0.3,0.8-0.6C142,85.2,142,85,141.9,84.7z M141,85.5c-0.1,0.1-0.3,0.1-0.5,0
				c0,0-0.1-0.1-0.1-0.1c0-0.1,0-0.2,0-0.3c0-0.1,0-0.2,0-0.3c0-0.1,0-0.1,0.1-0.1c0.1,0,0.2,0,0.3,0c0.2,0,0.3,0.1,0.3,0.3
				C141.2,85.3,141.2,85.4,141,85.5z"/>
		</g>
		<g>
			<path class="st2" d="M122.9,75.6c0,0.1,0,0.1,0.1,0.1c0.5,0,1,0,1.5,0c0.1,0,0.1,0,0.1-0.1c0-0.1,0-0.3,0-0.4
				c0-0.1,0-0.1-0.1-0.1c-0.2,0-0.4,0-0.7,0c-0.1,0-0.1,0-0.1-0.1c0-0.1,0-0.2,0-0.3c0-0.1,0-0.1,0.1-0.1c0.2,0,0.4,0,0.6,0
				c0.1,0,0.1,0,0.1-0.1c0-0.1,0-0.3,0-0.4c0-0.1,0-0.1-0.1-0.1c-0.2,0-0.4,0-0.6,0c-0.1,0-0.1,0-0.1-0.1c0-0.1,0-0.2,0-0.2
				c0-0.1,0-0.1,0.1-0.1c0.2,0,0.4,0,0.6,0c0.1,0,0.1,0,0.1-0.1c0-0.1,0-0.2,0-0.4c0-0.1,0-0.1,0-0.2c-0.1,0-0.2,0-0.2,0
				c-0.4,0-0.9,0-1.3,0c-0.1,0-0.1,0-0.1,0.1C122.9,73.8,122.9,74.7,122.9,75.6z"/>
		</g>
		<g>
			<path class="st2" d="M131.5,86.2c-0.2,0.2-0.4,0.3-0.7,0.3c-0.3,0-0.5-0.1-0.6-0.3c-0.2-0.3-0.2-0.8,0-1c0.3-0.4,0.7-0.4,1.3,0
				c0-0.3,0-0.5,0-0.8c0-0.1,0-0.1-0.1-0.1c-0.2-0.1-0.5-0.1-0.8-0.1c-0.6,0.1-1.2,0.5-1.3,1.1c-0.2,0.6,0.1,1.3,0.6,1.7
				c0.5,0.3,1,0.4,1.5,0.2c0.1,0,0.1-0.1,0.1-0.1c0-0.2,0-0.4,0-0.6C131.5,86.4,131.5,86.3,131.5,86.2z"/>
		</g>
		<g>
			<path class="st2" d="M150.8,84.2c-0.1,0-0.2,0-0.2,0.1c-0.1,0.2-0.3,0.4-0.4,0.6c0,0-0.1,0.1-0.1,0.1c0,0-0.1-0.1-0.1-0.1
				c-0.1-0.2-0.3-0.4-0.4-0.6c0,0-0.1-0.1-0.1-0.1c-0.3,0-0.6,0-0.8,0c0,0.1,0.1,0.1,0.1,0.1c0.3,0.4,0.6,0.8,0.9,1.3
				c0.1,0.1,0.1,0.2,0.1,0.3c0,0.4,0,0.8,0,1.1c0,0.1,0,0.1,0.1,0.1c0.2,0,0.3,0,0.5,0c0.1,0,0.1,0,0.1-0.1c0-0.4,0-0.7,0-1.1
				c0-0.1,0-0.2,0.1-0.4c0.3-0.4,0.6-0.8,0.9-1.3c0,0,0-0.1,0.1-0.1C151.3,84.2,151.1,84.2,150.8,84.2z"/>
		</g>
		<g>
			<path class="st2" d="M117.8,73.4c0.1,0,0.1,0,0.1,0.1c0,0.3,0,0.7,0,1c0,0.4,0,0.7,0,1.1c0,0.1,0,0.1,0.1,0.1c0.2,0,0.4,0,0.6,0
				c0.1,0,0.1,0,0.1-0.1c0,0,0-0.1,0-0.1c0-0.7,0-1.3,0-2c0-0.1,0-0.1,0.1-0.1c0.1,0,0.3,0,0.4,0c0.1,0,0.1,0,0.1-0.1
				c0-0.1,0-0.3,0-0.4c0-0.1,0-0.1-0.1-0.1c0,0-0.1,0-0.1,0c-0.5,0-1.1,0-1.6,0c-0.1,0-0.1,0-0.2,0c0,0.2,0,0.4,0,0.6
				C117.4,73.4,117.6,73.4,117.8,73.4z"/>
		</g>
	</g>
</g>
</svg>
