<?xml version="1.0" encoding="utf-8"?>
<!-- Generator: Adobe Illustrator 21.1.0, SVG Export Plug-In . SVG Version: 6.00 Build 0)  -->
<svg version="1.1" id="Layer_1" xmlns="http://www.w3.org/2000/svg" xmlns:xlink="http://www.w3.org/1999/xlink" x="0px" y="0px"
	 width="160px" height="160px" viewBox="0 0 160 160" style="enable-background:new 0 0 160 160;" xml:space="preserve">
<style type="text/css">
	.st0{fill:#FFFFFF;}
</style>
<g>
	<path class="st0" d="M159.7,90.9c0-0.1,0-0.2-0.1-0.3l-2.3-5l-1.1-6.2l0.8-0.4c0.3-0.1,0.5-0.5,0.4-0.9c0,0-0.9-3.6-0.1-5.9
		c0.1-0.3,0.4-1.1,0-1.8c-0.1-0.2-0.5-0.6-1.2-0.5c-0.7,0-2.7,0.1-5.2-0.8c-4.5-1.6-10-3.6-11.7-4.1c0-2.5,0.1-12.6-2.6-18.3
		c-0.1-0.1-0.2-0.3-0.3-0.3c-0.1-0.1-1.2-0.7-2.3-0.1c-0.9,0.5-1.4,1.5-1.6,3c-0.4,3.1-1,11.1-1.3,13.8c-4.4-1.5-24.2-7.5-47.6-5.1
		l-9.1-9C74.2,49,74.1,49,74.1,49c-0.7-0.3-2.2-0.7-2.9,0.6c-0.7,1.1-0.4,2.2,0.8,3.6c0.9,1,2.8,2.9,3.7,3.9l-2.6,2.9l-3.6-0.3
		c-0.1,0-0.1,0-0.2,0C69.1,59.7,62.2,61,45,72c-2.8,0.2-30.3,2.9-42.6,13.9c0,0,0,0,0,0c0,0,0,0,0,0.1c0,0-0.1,0.1-0.1,0.1
		c-0.2,0.3-4.1,7-0.3,11.5l-0.5,0.3c-0.3,0.2-0.4,0.5-0.4,0.8l0.4,1.8c0.1,0.3,0.3,0.5,0.5,0.5l0.5,0.1v1.4l-1.1,1.1
		c-0.2,0.2-0.3,0.6-0.1,0.9c0.7,1.3,6.4,2.3,15.7,2.9c0,0,0,0,0,0c0.2,0,0.4-0.1,0.6-0.2c0.2-0.2,0.2-0.4,0.2-0.6
		c0,0-0.2-1.3-0.3-3.1l1.4,0c1.8,6,7.3,10.3,13.8,10.3c5.6,0,10.4-3.2,12.8-7.8h2.2c0,0.1,0,0.2,0,0.2c0,0.2,0,0.5,0.2,0.6
		c0.1,0.2,0.4,0.3,0.6,0.3h60.7c0.2,0,0.4-0.1,0.6-0.3c0.1-0.2,0.2-0.4,0.2-0.6c0,0,0-0.2-0.1-0.5h2.3c2.4,4.7,7.3,8,12.9,8
		c6.1,0,11.4-3.9,13.5-9.3l1.8-0.1c0,0.2,0.1,0.5,0.2,0.6c0.2,0.2,0.4,0.2,0.6,0.2l12.6-2.2c0.4,0,2-0.1,3.5-1.5
		C159.2,99.5,160,96,159.7,90.9z M155.8,78l-0.7,0.3l-1.7,0.2l2.3-0.9C155.8,77.7,155.8,77.9,155.8,78z M151.6,79.8
		c0.1,0.2,0.4,0.3,0.6,0.3c0,0,0,0,0.1,0l2.4-0.2l0.1,0.5c-5.3,0.7-9.5,0.3-11.3,0c1.1-1.9,2.6-3.1,2.8-3.3c2.7-1.4,5.2-0.6,6.6,0.1
		l-0.2,0.1c-0.2,0.1-0.3,0.2-0.4,0.4l-0.7,1.5C151.4,79.2,151.4,79.5,151.6,79.8z M150.3,70.6c2.6,0.9,4.7,0.9,5.7,0.9
		c0,0.1,0,0.2-0.1,0.3c-0.5,1.3-0.5,2.9-0.4,4.2l-0.8,0.3c-1-0.7-4.8-2.9-9.1-0.7c0,0-0.1,0-0.1,0.1c-0.1,0.1-2.4,1.8-3.8,4.8
		c-0.1,0.2-0.1,0.4,0,0.6c0.1,0.2,0.3,0.4,0.5,0.4c0.2,0,2.8,0.7,7,0.7c1.7,0,3.7-0.1,5.9-0.4l0.7,4.2c0,0.1,0,0.1,0.1,0.2l2.3,4.9
		c0.1,1.3,0.1,2.4,0,3.3c-3.3,0.5-4.5,2.7-4.9,3.7l-11.6,1.4c-0.3-3.2-1.2-7.4-3.6-10.5c-4.9-6.3-15.3-8.1-22.3-3.8
		c-6,3.7-7.4,11-7.6,16l-6.7,0.2c14.6-18.9,18.2-26.8,18.4-27.2c0.1-0.2,0.1-0.3,0-0.5l-0.4-1.3c6.6-1,9.5-4.8,9.6-5
		c0.1-0.2,0.2-0.4,0.1-0.6c0-0.2-0.2-0.4-0.4-0.5c-0.2-0.1-4.8-2.7-30.7-5.9c-0.5-0.1-0.9-0.1-1.4-0.1c14.4,0.5,26.1,3.5,34.2,5.6
		c0.5,0.2,4.9,1.4,7.4,0.4C139.7,66.9,145.6,68.9,150.3,70.6z M91.6,61.6c2,0,4.2,0.1,6.3,0.4c19.9,2.5,27,4.5,29.3,5.3
		c-1.2,1.1-4,3.2-8.8,3.8c-4.6,0.5-31.3,2-48.7,2.9c0.2-0.8,0.2-1.7,0-2.3c-0.1-0.5-0.6-2.5-4.2-2.5c-0.4,0-0.8,0-1.1,0.1
		C70.9,65.5,80.2,61.6,91.6,61.6z M65.6,70.7c2.5,0.1,2.7,1.2,2.7,1.2c0,0,0,0.1,0,0.1c0,0.1,0.1,0.4,0.1,0.7l-7.3,0.5l0.8-1.1
		C61.9,72,62.8,70.6,65.6,70.7z M59.1,73.4l-0.8,0.1c0.5-0.4,1.1-0.8,1.7-1.3L59.1,73.4z M55.5,102.6c-1.9-19.9-0.8-25.1-0.4-26.3
		c2.6-0.1,15.9-0.8,29.7-1.6c-0.9,2.5-2.6,9.8-1.3,27.2L55.5,102.6z M85,101.8c-1.5-19.3,0.8-25.9,1.4-27.2
		c13.6-0.8,27.2-1.6,31.5-1.9l0.3,1.2c-0.7,1.5-5.2,10-18.8,27.6L85,101.8z M132.4,64.3c0-0.1,0.9-11.1,1.3-14.7
		c0.1-1,0.4-1.7,0.8-1.9c0.2-0.1,0.5-0.1,0.7,0c2.4,5.4,2.4,15.1,2.4,17.4c-1.5,0.5-4,0.1-5.5-0.3C132.3,64.7,132.3,64.5,132.4,64.3
		z M73.1,52.1c-1-1.2-0.8-1.5-0.7-1.8c0.2-0.3,0.7-0.1,0.9-0.1l9.3,9.2c0,0,0,0,0,0l0.1,0.1c-0.7,0.1-1.4,0.2-2.1,0.3l-3.3-3.4
		c0,0,0,0,0,0c0,0,0,0,0,0C77.2,56.4,74.3,53.4,73.1,52.1z M76.7,58.1l2,2.1c-1.4,0.3-2.7,0.7-4,1l-0.4-0.5L76.7,58.1z M69.5,61.1
		l3.5,0.3l0.2,0.3c-7.7,2.5-13.4,6.2-16.7,8.3c-0.5,0.3-1,0.6-1.4,0.9c-2.7,1.6-6.7,2.2-9.3,2.3C61.7,63.1,68.7,61.3,69.5,61.1z
		 M2.7,88.5c0.6,2,1.2,5.3,0.2,8C1,93.9,1.9,90.5,2.7,88.5z M3.2,104.1l0.7-0.7c0.1-0.1,0.2-0.3,0.2-0.5v-2.2c0-0.3-0.2-0.6-0.5-0.7
		l-0.6-0.2L2.7,99l0.8-0.5c0,0,0,0,0,0c0,0,0,0,0,0c0.1-0.1,0.2-0.1,0.2-0.2c0,0,0,0,0,0c2.3-4.2,0.6-9.8-0.1-11.5
		c10.4-8.9,31.7-12.1,39-12.9c-0.1,0.2-0.1,0.4-0.1,0.6c0.1,0.3,0.4,0.5,0.7,0.5c0,0,0.1,0,0.3,0c1.5,0,8.2-0.1,12.2-2.7
		c0.4-0.3,0.9-0.6,1.4-0.9c4-2.6,11.5-7.4,22-9.7c-15.5,3.7-25.1,13.3-25.3,13.5c0,0,0,0,0,0c0,0,0,0,0,0c-0.2,0.2-0.9,1.4-1.1,6.6
		c-0.2-0.2-0.4-0.3-0.6-0.2L47.3,82c-0.3,0-0.5,0.2-0.6,0.5c-0.1,0.3,0,0.6,0.2,0.8l1.5,1.3c0.1,0.1,0.3,0.2,0.5,0.2
		c0.1,0,0.2,0,0.4-0.1l3.6-1.9c0.1,0,0.1-0.1,0.2-0.1c-0.1,4.1,0.2,10.4,1.1,19.9l-4.5,0.1c0.2-4.6-0.4-12.1-6.3-16.4
		c-8.5-6.2-18.4-3.4-23.8,2.5C15,93.7,15.8,103,16.1,106C7.7,105.4,4.4,104.6,3.2,104.1z M32.7,112.4c-7.1,0-12.9-5.8-12.9-12.9
		s5.8-12.9,12.9-12.9c7.1,0,12.9,5.8,12.9,12.9S39.8,112.4,32.7,112.4z M46.1,104.6c0.6-1.6,1-3.4,1-5.2c0-8-6.5-14.4-14.4-14.4
		s-14.4,6.5-14.4,14.4c0,0.9,0.1,1.8,0.2,2.6l-1.1,0c-0.1-3.8,0.4-9.2,3.2-12.2c4.8-5.3,13.7-8.2,21.8-2.3
		c6.1,4.5,5.9,13.3,5.5,17.1H46.1z M49.2,105.7c0.1-0.4,0.1-0.9,0.2-1.5l58.7-1.5c0,1.3,0.1,2.3,0.1,3H49.2z M125,112.4
		c-7.1,0-12.9-5.8-12.9-12.9s5.8-12.9,12.9-12.9c7.1,0,12.9,5.8,12.9,12.9S132.1,112.4,125,112.4z M125,85c-8,0-14.4,6.5-14.4,14.4
		c0,1.7,0.3,3.4,0.9,5h-1.8c-0.2-4.2,0.1-13.7,6.8-17.9c6.3-3.8,16-2.2,20.4,3.4c3.1,4.1,3.5,10.2,3.5,13l-1.4,0.1
		c0.3-1.2,0.5-2.4,0.5-3.6C139.4,91.5,132.9,85,125,85z M156.2,100.4c-1.2,1.2-2.4,1.1-2.5,1.1c-0.1,0-0.1,0-0.2,0l-11.8,2.1
		c0-0.6,0-1.5,0-2.6l12.1-1.4c0.3,0,0.6-0.3,0.6-0.6c0-0.1,0.6-2.4,3.5-3C157.7,98.4,156.9,99.7,156.2,100.4z"/>
	<path class="st0" d="M5.9,88.1c0.1,0.4,0.5,0.6,0.9,0.5l2.8-0.7l0.9,0.6c0.1,0.1,0.2,0.1,0.3,0.1c0.1,0,0.3,0,0.4,0
		c4.8,0,10.6-5.3,10.9-5.6c0.2-0.2,0.3-0.5,0.2-0.8s-0.4-0.5-0.6-0.5c-9.3-0.8-15.7,3.8-16,4c-0.3,0.2-0.4,0.5-0.3,0.8L5.9,88.1z
		 M19.7,83.1C19.7,83.1,19.7,83.1,19.7,83.1c-2,1.6-5.6,4-8.5,4l-1-0.6c-0.2-0.1-0.4-0.1-0.6-0.1l-2.4,0.6L7,86.7
		C8.4,85.8,13.2,83.1,19.7,83.1z"/>
	<path class="st0" d="M12.2,95.8l-6.7,1.5c-0.3,0.1-0.6,0.4-0.6,0.7l-0.3,5.5c0,0.3,0.2,0.6,0.5,0.8c0.7,0.2,1.6,0.4,2.6,0.4
		c1.8,0,3.7-0.6,4.5-2.8c1.4-3.7,1-5.4,0.9-5.6C13,95.9,12.6,95.7,12.2,95.8z M10.8,101.3c-0.8,2.3-3.5,1.9-4.6,1.6l0.2-4.4l5.3-1.2
		C11.7,98.1,11.5,99.4,10.8,101.3z"/>
	<path class="st0" d="M42.2,100.5c0,0-0.1,0-0.2,0l-0.4-0.1c-0.4-0.1-0.7-0.1-1.1-0.2c-0.7-0.1-1.3-0.2-2-0.3
		c-0.5-0.1-0.9-0.1-1.4-0.1c-0.1,0-0.2,0-0.3,0l-0.3,0c-0.2,0-0.4,0-0.7,0.1c-0.5,0.1-0.9,0.4-1,0.8c-0.2,0.6,0.2,0.9,0.3,1l0,0
		c0,0-0.1-0.1-0.1-0.1c-0.3-0.2-0.6-0.2-0.9,0c-0.4,0.2-0.5,0.6-0.6,0.8l0,0.3c0,0,0,0.1,0,0.1c0,0.4,0.1,0.8,0.3,1.2
		c0.2,0.4,0.3,0.7,0.5,1.2l0.4,0.8c0.2,0.4,0.4,0.9,0.6,1.3c0.1,0.2,0.2,0.5,0.3,0.7l0.1,0.4c0.1,0.3,0.3,0.4,0.5,0.5
		c0.1,0,0.2,0.1,0.3,0.1c0.1,0,0.3,0,0.4-0.1c0.1,0,0.2-0.1,0.3-0.1c0.8-0.4,1.6-0.9,2.3-1.6c0,0,0,0,0,0c0.4-0.3,0.4-0.8,0.1-1.2
		c-0.1-0.1-0.2-0.3-0.4-0.4c-0.8-0.8-1.5-1.5-2.3-2.3c-0.4-0.4-0.8-0.8-1.3-1.2c0,0,0,0,0.1,0c0.4,0.3,0.8,0.5,1.2,0.7l0.6,0.3
		c0.6,0.3,1.1,0.6,1.7,0.9c0.3,0.2,0.5,0.3,0.8,0.5l0.4,0.3c0.3,0.2,0.5,0.2,0.7,0.1c0.2-0.1,0.4-0.3,0.5-0.5l0.1-0.2
		c0.1-0.2,0.2-0.5,0.3-0.7v0c0.2-0.6,0.4-1.2,0.6-1.9C42.9,101,42.7,100.6,42.2,100.5z M39.1,106.5l-0.5-0.6c0,0,0,0,0,0L39.1,106.5
		z M36,104.2c0.7,0.7,1.4,1.4,2.1,2.2c-0.3,0.3-0.7,0.5-1.1,0.7c-0.1-0.2-0.1-0.4-0.2-0.6c-0.2-0.4-0.4-0.9-0.6-1.3l-0.4-0.8
		c-0.1-0.2-0.2-0.4-0.3-0.7C35.7,103.9,35.9,104.1,36,104.2z M40.8,102.8c0,0.1-0.1,0.2-0.1,0.2c-0.2-0.1-0.4-0.3-0.6-0.4
		c-0.6-0.4-1.2-0.7-1.8-1l-0.6-0.3c-0.1,0-0.1-0.1-0.2-0.1c0.3,0,0.6,0,0.9,0.1c0.7,0.1,1.3,0.2,2,0.3c0.3,0,0.6,0.1,0.9,0.2
		C41.1,102.2,41,102.5,40.8,102.8z M41.8,101.9C41.8,101.9,41.7,101.9,41.8,101.9l0.1-0.7L41.8,101.9z"/>
	<path class="st0" d="M34.1,95.8C34.1,95.8,34.1,95.8,34.1,95.8c0,0.1-0.1,0.3-0.1,0.5c0,0.1,0,0.1,0,0.2c0,0.4,0,0.7,0.4,1
		c0.3,0.3,0.7,0.3,1.1,0.1c0,0,0,0,0,0c-0.5,0.4-0.4,0.8-0.4,0.9c0.1,0.4,0.4,0.6,0.6,0.7c0.4,0.2,0.8,0.3,1.3,0.3l0.1,0
		c0,0,0.1,0,0.1,0c0.1,0,0.2,0,0.2,0c0.2,0,0.4,0,0.7-0.1l1.7-0.2c0.2,0,0.5-0.1,0.7-0.1c0.3,0,0.6,0,0.9-0.1c0.1,0,0.3,0,0.4,0
		l0.2,0c0.4,0,0.8-0.4,0.8-0.8c0-0.1,0-0.2,0-0.2l-0.1-0.3c-0.1-0.3-0.1-0.5-0.2-0.8c-0.1-0.6-0.3-1.2-0.6-1.8
		c-0.2-0.4-0.6-0.6-1.1-0.4c-0.1,0-0.2,0.1-0.2,0.1L40.3,95c-0.8,0.4-1.7,0.8-2.5,1.2c-0.6,0.3-1.1,0.6-1.7,0.9
		c0.2-0.1,0.3-0.2,0.4-0.4l0.7-0.6c0.2-0.2,0.5-0.5,0.8-0.7c0.4-0.4,0.8-0.8,1.3-1.2c0.2-0.2,0.4-0.3,0.6-0.5l0.3-0.2
		c0.2-0.2,0.3-0.4,0.3-0.6c0-0.4-0.2-0.6-0.3-0.7c-0.3-0.4-0.7-0.7-1.1-1c-0.4-0.3-0.9-0.6-1.3-0.9c-0.4-0.2-0.8-0.1-1.1,0.3
		c0,0.1-0.1,0.1-0.1,0.2C35.9,92,35.3,93,34.8,94C34.6,94.5,34.3,95.1,34.1,95.8z M38.4,97.6c0.8-0.4,1.7-0.8,2.5-1.2
		c0.1,0.3,0.2,0.6,0.3,0.9c0,0.1,0.1,0.2,0.1,0.4c-0.3,0-0.5,0-0.8,0.1c-0.3,0-0.5,0.1-0.8,0.1c-0.2,0-0.4,0.1-0.6,0.1L38,98
		c-0.1,0-0.2,0-0.4,0C37.9,97.9,38.2,97.8,38.4,97.6z M37.8,91.5C37.8,91.6,37.8,91.6,37.8,91.5l-0.7-0.3L37.8,91.5z M36.2,94.6
		c0.4-0.8,0.8-1.7,1.3-2.6c0.2,0.1,0.4,0.3,0.6,0.4c0.2,0.1,0.3,0.2,0.4,0.4c-0.1,0.1-0.3,0.2-0.4,0.3c-0.5,0.4-0.9,0.8-1.3,1.2
		c-0.3,0.2-0.5,0.5-0.8,0.7l-0.2,0.2C36,95.1,36.1,94.9,36.2,94.6z"/>
	<path class="st0" d="M34.5,108.1c0-0.4-0.1-0.7-0.1-1.1c-0.1-0.5-0.2-1-0.2-1.6c-0.1-0.5-0.2-1.2-0.4-1.8c-0.1-0.3-0.2-0.6-0.3-0.8
		c-0.2-0.5-0.6-0.7-1.1-0.7c-0.5,0-0.7,0.3-0.8,0.6c0,0,0,0,0,0l0,0c0.1-0.2,0.1-0.6-0.1-0.9c-0.2-0.3-0.6-0.4-0.7-0.4
		c-0.1,0-0.3,0-0.4,0c-0.1,0-0.2,0-0.3,0.1c-0.4,0.1-0.7,0.3-1.1,0.6c-0.3,0.3-0.7,0.6-1,0.9l-0.6,0.6c-0.3,0.3-0.6,0.6-0.9,0.9
		c-0.2,0.2-0.4,0.4-0.7,0.6l-0.3,0.3c-0.1,0.1-0.3,0.3-0.4,0.6c0,0.4,0.2,0.6,0.3,0.7c0.5,0.5,1.1,1,1.7,1.4
		c0.2,0.1,0.3,0.2,0.5,0.3l0.2,0.1c0.2,0.1,0.5,0.2,0.7,0.1c0.2-0.1,0.4-0.2,0.5-0.4c0-0.1,0.1-0.1,0.1-0.2l0.3-0.5
		c0.3-0.5,0.6-1.1,0.8-1.6c0.4-0.7,0.7-1.5,1.1-2.2c0.1-0.1,0.1-0.2,0.2-0.3c-0.1,0.2-0.1,0.4-0.2,0.6c-0.1,0.4-0.1,0.7-0.2,1.1
		c-0.1,0.3-0.1,0.7-0.2,1c-0.1,0.5-0.2,0.9-0.3,1.4c-0.1,0.3-0.1,0.5-0.2,0.8l-0.1,0.4c-0.1,0.3,0,0.6,0.1,0.7
		c0.1,0.2,0.4,0.3,0.6,0.4l0.2,0c0.2,0,0.5,0.1,0.7,0.1c0.2,0,0.4,0,0.6,0l0.4,0l1-0.1c0,0,0,0,0,0c0.5,0,0.8-0.4,0.8-0.9
		c0-0.2,0-0.4-0.1-0.6L34.5,108.1z M28.6,105.1c-0.3,0.5-0.6,1.1-0.8,1.6l0,0.1c0,0,0,0-0.1,0c-0.3-0.2-0.7-0.5-1-0.8
		c0.2-0.1,0.4-0.3,0.5-0.5c0.3-0.3,0.6-0.6,1-0.9l0.6-0.6c0.2-0.2,0.4-0.4,0.6-0.6C29.2,104.1,28.9,104.6,28.6,105.1z M30,102.2
		L30,102.2C30,102.2,30,102.2,30,102.2C30,102.2,30,102.2,30,102.2z M32.8,108.3l-0.3,0c-0.2,0-0.4,0-0.5,0c0,0-0.1,0-0.1,0
		c0-0.2,0.1-0.4,0.1-0.5c0.1-0.5,0.2-1,0.3-1.5c0.1-0.4,0.1-0.7,0.2-1.1c0-0.2,0.1-0.4,0.1-0.6c0.1,0.4,0.2,0.8,0.2,1.1
		c0.1,0.5,0.2,1,0.2,1.5c0.1,0.3,0.1,0.7,0.1,1l0,0L32.8,108.3z"/>
	<path class="st0" d="M25.7,93.2c0.7,0.7,1.5,1.6,2.5,2.5c0.4,0.4,1,0.9,1.7,1.3c0.2,0.1,0.5,0.3,0.9,0.3c0,0,0,0,0,0
		c0.1,0,0.3,0,0.4-0.1c0.1,0,0.1-0.1,0.2-0.1c0.4-0.2,0.5-0.6,0.4-1c0,0,0,0,0,0c0.1,0.3,0.3,0.5,0.6,0.6c0.4,0.1,0.8,0,1-0.2
		c0.1-0.1,0.3-0.3,0.4-0.4c0.3-0.4,0.4-0.8,0.5-1.1c0.1-0.5,0.2-1,0.3-1.5l0.1-0.7c0.1-0.4,0.2-0.8,0.3-1.2c0.1-0.3,0.1-0.5,0.2-0.8
		l0.1-0.4c0.1-0.3,0-0.6-0.1-0.7c-0.1-0.2-0.4-0.3-0.6-0.4l-0.2,0c-0.2,0-0.3,0-0.5-0.1c-0.3,0-0.5,0-0.8-0.1l-0.3,0
		c-0.1,0-0.1,0-0.2,0h-0.2c-0.1,0-0.2,0-0.3,0l-0.1,0c-0.2,0-0.3,0-0.5,0c-0.1,0-0.4,0.1-0.6,0.3c-0.2,0.3-0.2,0.6-0.1,0.8
		c0,0.3,0.1,0.5,0.1,0.8c0.1,0.5,0.1,1,0.2,1.4l0,0.2c0.1,0.4,0.1,0.9,0.2,1.3c0.1,0.5,0.2,1,0.3,1.5c0,0,0,0,0,0
		c0-0.1-0.1-0.2-0.1-0.2c-0.2-0.5-0.4-0.9-0.6-1.4l-0.3-0.5c-0.3-0.5-0.5-1-0.7-1.6c-0.1-0.3-0.2-0.5-0.3-0.8l-0.2-0.4
		c-0.1-0.3-0.3-0.4-0.5-0.5c-0.2-0.1-0.5,0-0.7,0.1c-0.3,0.2-0.7,0.4-1.1,0.6L26.6,91c-0.4,0.3-0.7,0.6-1,0.8c0,0,0,0,0,0
		c-0.3,0.3-0.4,0.8,0,1.2C25.6,93.1,25.7,93.2,25.7,93.2z M32.5,90.6h0.2c0,0,0.1,0,0.1,0c0,0,0.1,0,0.1,0l0.1,0
		c0.2,0,0.4,0,0.6,0.1c0,0.2-0.1,0.4-0.1,0.6c-0.1,0.4-0.2,0.9-0.3,1.3l0,0.1c0,0.2-0.1,0.4-0.1,0.6c-0.1,0.3-0.1,0.7-0.2,1
		c0-0.2-0.1-0.3-0.1-0.5c-0.1-0.4-0.1-0.9-0.2-1.3l0-0.2c-0.1-0.5-0.1-1-0.2-1.4c0-0.1,0-0.1,0-0.2C32.4,90.6,32.4,90.6,32.5,90.6z
		 M27.5,92.3l0.4-0.3c0.1-0.1,0.2-0.1,0.3-0.2c0.1,0.2,0.2,0.4,0.2,0.6c0.2,0.6,0.5,1.1,0.8,1.7l0.3,0.5c0.1,0.2,0.2,0.3,0.3,0.5
		c-0.2-0.2-0.4-0.3-0.5-0.5c-0.8-0.7-1.5-1.5-2.1-2.1C27.3,92.4,27.4,92.3,27.5,92.3z"/>
	<path class="st0" d="M26.8,103c0.8-0.4,1.5-0.8,2.2-1.3c0.2-0.2,0.5-0.4,0.7-0.6c0.4-0.3,0.5-0.8,0.3-1.3c-0.1-0.4-0.4-0.6-0.8-0.6
		c0,0,0.1,0,0.2,0c0.1,0,0.4-0.1,0.6-0.4c0.2-0.3,0.2-0.7,0.1-1c-0.1-0.1-0.2-0.3-0.3-0.5c-0.2-0.3-0.5-0.5-0.9-0.8
		c-0.4-0.3-0.9-0.5-1.3-0.7l-0.4-0.2c-0.6-0.3-1.2-0.6-1.7-1l-0.7-0.5c-0.3-0.2-0.5-0.2-0.7-0.1c-0.2,0-0.4,0.3-0.5,0.4
		c-0.2,0.4-0.4,0.9-0.6,1.4c-0.2,0.5-0.3,1-0.4,1.5l0.7,0.2l-0.7-0.1c0,0.1-0.1,0.4,0.1,0.7c0.2,0.3,0.5,0.3,0.6,0.4
		c0.3,0.1,0.7,0.1,1,0.2c0.7,0.1,1.4,0.2,2.1,0.4c0.6,0.1,1.2,0.2,1.8,0.3c0.1,0,0.3,0,0.4,0c0,0-0.1,0-0.1,0c-0.1,0-0.1,0-0.2,0
		c-0.2,0-0.5,0-0.7,0.1c-0.2,0-0.5,0.1-0.7,0.1l-1.1,0.2c-0.3,0-0.5,0.1-0.8,0.1c-0.3,0-0.6,0.1-0.9,0.1c-0.2,0-0.4,0-0.6,0l-0.3,0
		c-0.4,0-0.5,0.2-0.6,0.3c-0.1,0.2-0.2,0.5-0.2,0.7l0.1,0.3c0.1,0.3,0.1,0.6,0.2,0.9c0.1,0.6,0.3,1.1,0.6,1.7
		c0.1,0.3,0.4,0.5,0.8,0.5c0.1,0,0.2,0,0.4-0.1c0.1,0,0.1,0,0.2-0.1c0,0,0,0,0,0l0.6-0.3C25.7,103.6,26.3,103.3,26.8,103z
		 M26.6,97.5c-0.7-0.1-1.4-0.2-2.1-0.4c-0.1,0-0.3,0-0.4-0.1c0.1-0.2,0.1-0.5,0.2-0.7c0.1-0.2,0.1-0.4,0.2-0.6l0.1,0.1
		c0.6,0.4,1.2,0.7,1.8,1l0.4,0.2c0.3,0.2,0.6,0.3,0.8,0.5C27.4,97.6,27,97.5,26.6,97.5z M23.9,102.8
		C23.9,102.8,23.9,102.8,23.9,102.8l0.3,0.7L23.9,102.8z M24.5,102.5l-0.2,0.1c-0.1-0.3-0.2-0.6-0.3-0.9c0-0.1-0.1-0.3-0.1-0.4
		c0.1,0,0.1,0,0.2,0c0.3,0,0.6,0,0.9-0.1c0.3,0,0.6-0.1,0.8-0.1l1.7-0.2c-0.4,0.3-0.9,0.5-1.5,0.8C25.6,101.9,25.1,102.2,24.5,102.5
		z"/>
	<path class="st0" d="M32.7,97.5c-1,0-1.9,0.8-1.9,1.9s0.8,1.9,1.9,1.9c1,0,1.9-0.8,1.9-1.9S33.7,97.5,32.7,97.5z M32.7,99.8
		c-0.2,0-0.4-0.2-0.4-0.4s0.2-0.4,0.4-0.4c0.2,0,0.4,0.2,0.4,0.4S32.9,99.8,32.7,99.8z"/>
	<path class="st0" d="M32.7,87.4c-6.6,0-12,5.4-12,12s5.4,12,12,12s12-5.4,12-12S39.3,87.4,32.7,87.4z M32.7,110
		c-5.8,0-10.5-4.7-10.5-10.5s4.7-10.5,10.5-10.5s10.5,4.7,10.5,10.5S38.5,110,32.7,110z"/>
	<path class="st0" d="M119.2,103c0.8-0.4,1.5-0.8,2.2-1.3c0.2-0.2,0.5-0.4,0.7-0.6c0.4-0.3,0.5-0.8,0.3-1.3
		c-0.1-0.4-0.4-0.6-0.8-0.6c0,0,0.1,0,0.2,0c0.1,0,0.4-0.1,0.6-0.4c0.2-0.3,0.2-0.7,0.1-1c-0.1-0.2-0.2-0.4-0.3-0.5
		c-0.2-0.3-0.5-0.5-0.9-0.8c-0.4-0.3-0.9-0.5-1.3-0.7l-0.4-0.2c-0.6-0.3-1.2-0.6-1.7-1l-0.7-0.5c-0.2-0.1-0.5-0.2-0.7-0.1
		c-0.2,0.1-0.4,0.2-0.5,0.4c-0.2,0.4-0.4,0.9-0.6,1.4c-0.2,0.5-0.3,1-0.4,1.5l0.7,0.2l-0.7-0.1c0,0.1-0.1,0.4,0.1,0.7
		c0.2,0.3,0.5,0.3,0.6,0.4c0.3,0.1,0.7,0.1,1,0.2c0.7,0.1,1.4,0.2,2.1,0.4c0.6,0.1,1.2,0.2,1.8,0.3c0.1,0,0.3,0,0.4,0c0,0,0,0-0.1,0
		c-0.1,0-0.2,0-0.3,0c-0.2,0-0.5,0-0.7,0.1l-1.8,0.3c-0.3,0-0.5,0.1-0.8,0.1c-0.3,0-0.6,0.1-0.9,0.1c-0.2,0-0.4,0-0.6,0l-0.3,0
		c-0.4,0-0.5,0.2-0.6,0.3c-0.1,0.2-0.2,0.5-0.2,0.7l0.1,0.3c0.1,0.3,0.1,0.6,0.2,0.9c0.1,0.6,0.3,1.1,0.6,1.7
		c0.1,0.3,0.4,0.5,0.8,0.5c0.1,0,0.2,0,0.4-0.1c0.1,0,0.1,0,0.2-0.1c0,0,0,0,0,0l0.6-0.3C118.1,103.6,118.6,103.3,119.2,103z
		 M118.9,97.5c-0.7-0.1-1.4-0.2-2.1-0.4c-0.1,0-0.3,0-0.4-0.1c0.1-0.2,0.1-0.5,0.2-0.7c0.1-0.2,0.1-0.4,0.2-0.6l0.1,0.1
		c0.6,0.4,1.2,0.7,1.8,1l0.4,0.2c0.3,0.2,0.6,0.3,0.8,0.5C119.7,97.6,119.3,97.5,118.9,97.5z M116.2,102.8
		C116.2,102.8,116.2,102.8,116.2,102.8l0.3,0.7L116.2,102.8z M116.9,102.5l-0.2,0.1c-0.1-0.3-0.2-0.6-0.3-0.9c0-0.1-0.1-0.3-0.1-0.4
		c0.1,0,0.1,0,0.2,0c0.3,0,0.6,0,0.9-0.1c0.3,0,0.5-0.1,0.8-0.1l1.7-0.2c-0.4,0.3-0.9,0.5-1.5,0.8
		C117.9,101.9,117.4,102.2,116.9,102.5z"/>
	<path class="st0" d="M125,87.4c-6.6,0-12,5.4-12,12s5.4,12,12,12c6.6,0,12-5.4,12-12S131.6,87.4,125,87.4z M125,110
		c-5.8,0-10.5-4.7-10.5-10.5s4.7-10.5,10.5-10.5c5.8,0,10.5,4.7,10.5,10.5S130.8,110,125,110z"/>
	<path class="st0" d="M118.1,93.2c0.7,0.7,1.5,1.6,2.5,2.5c0.4,0.4,1,0.9,1.7,1.3c0.2,0.1,0.5,0.3,0.9,0.3c0,0,0,0,0,0
		c0.1,0,0.3,0,0.4-0.1c0.1,0,0.1-0.1,0.2-0.1c0.4-0.2,0.5-0.6,0.4-1c0,0,0,0,0,0c0.1,0.3,0.3,0.5,0.6,0.6c0.4,0.1,0.7,0,1-0.2
		c0.1-0.1,0.3-0.2,0.4-0.4c0.3-0.4,0.4-0.8,0.5-1.1c0.1-0.5,0.2-1,0.3-1.5l0.1-0.6l0-0.1c0.1-0.4,0.2-0.9,0.3-1.3
		c0.1-0.3,0.1-0.5,0.2-0.8l0.1-0.4c0.1-0.3,0-0.6-0.1-0.7c-0.1-0.2-0.4-0.3-0.6-0.4l-0.2,0c-0.2,0-0.3,0-0.5-0.1
		c-0.3,0-0.5,0-0.8-0.1l-0.3,0c-0.1,0-0.1,0-0.2,0h-0.2c-0.1,0-0.2,0-0.3,0l-0.1,0c-0.2,0-0.3,0-0.5,0c-0.1,0-0.4,0.1-0.7,0.3
		c-0.2,0.3-0.2,0.6-0.2,0.7c0,0.3,0.1,0.5,0.1,0.8c0.1,0.5,0.1,1,0.2,1.4l0,0.1c0.1,0.5,0.1,1,0.2,1.4c0.1,0.5,0.2,1,0.3,1.5
		c0,0,0,0,0,0c0-0.1-0.1-0.2-0.1-0.2c-0.2-0.5-0.4-0.9-0.6-1.4l-0.3-0.5c-0.3-0.5-0.5-1-0.7-1.6c-0.1-0.3-0.2-0.5-0.3-0.8l-0.2-0.4
		c-0.1-0.3-0.3-0.4-0.5-0.5c-0.2-0.1-0.5-0.1-0.7,0.1c-0.3,0.2-0.7,0.4-1.1,0.6L119,91c-0.4,0.3-0.7,0.6-1,0.8c0,0,0,0,0,0
		c-0.3,0.3-0.4,0.8,0,1.2C117.9,93.1,118,93.2,118.1,93.2z M124.8,90.6h0.2c0,0,0.1,0,0.1,0c0,0,0.1,0,0.1,0l0.1,0
		c0.2,0,0.4,0,0.6,0.1c0,0.2-0.1,0.4-0.1,0.6c-0.1,0.5-0.2,0.9-0.3,1.4l0.7,0.2l-0.7-0.1c0,0.2-0.1,0.4-0.1,0.6
		c-0.1,0.3-0.1,0.7-0.2,1c0-0.2-0.1-0.3-0.1-0.5c-0.1-0.5-0.2-0.9-0.2-1.4l0-0.1c-0.1-0.5-0.1-1-0.2-1.4c0-0.1,0-0.1,0-0.2
		C124.7,90.6,124.8,90.6,124.8,90.6z M119.8,92.3l0.4-0.3c0.1-0.1,0.2-0.1,0.3-0.2c0.1,0.2,0.2,0.4,0.2,0.6c0.2,0.6,0.5,1.1,0.8,1.7
		l0.3,0.5c0.1,0.2,0.2,0.3,0.3,0.5c-0.2-0.2-0.4-0.3-0.5-0.5c-0.8-0.7-1.5-1.5-2.1-2.1C119.6,92.4,119.7,92.3,119.8,92.3z"/>
	<path class="st0" d="M134.5,100.5c0,0-0.1,0-0.2,0l-0.4-0.1c-0.4-0.1-0.7-0.1-1.1-0.2c-0.7-0.1-1.3-0.2-2-0.3
		c-0.5-0.1-0.9-0.1-1.4-0.1c-0.1,0-0.2,0-0.3,0l-0.3,0c-0.2,0-0.4,0-0.7,0.1c-0.5,0.1-0.9,0.4-1,0.8c-0.2,0.6,0.2,0.9,0.3,1l0,0
		c0,0-0.1-0.1-0.1-0.1c-0.2-0.1-0.6-0.2-0.9,0c-0.4,0.2-0.5,0.6-0.6,0.8l0,0.3c0,0,0,0.1,0,0.1c0,0.4,0.1,0.8,0.3,1.2
		c0.2,0.4,0.3,0.8,0.5,1.2l0.4,0.8c0.2,0.4,0.4,0.9,0.6,1.3c0.1,0.2,0.2,0.5,0.3,0.8l0.1,0.4c0.1,0.3,0.3,0.4,0.5,0.5
		c0.1,0,0.2,0.1,0.3,0.1c0.1,0,0.3,0,0.4-0.1c0.1,0,0.2-0.1,0.3-0.1c0.8-0.4,1.6-0.9,2.3-1.6c0.4-0.3,0.4-0.8,0.1-1.2
		c-0.1-0.1-0.2-0.3-0.4-0.4c-0.8-0.8-1.5-1.5-2.3-2.3c-0.4-0.4-0.8-0.8-1.3-1.2c0,0,0,0,0.1,0c0.4,0.3,0.8,0.5,1.2,0.7l0.6,0.3
		c0.6,0.3,1.1,0.6,1.6,0.9c0.3,0.2,0.5,0.3,0.8,0.5l0.4,0.3c0.3,0.2,0.5,0.2,0.7,0.1c0.2-0.1,0.4-0.3,0.5-0.5l0.1-0.2
		c0.1-0.2,0.2-0.5,0.3-0.7c0.2-0.6,0.4-1.2,0.6-1.9C135.2,101,135,100.6,134.5,100.5z M131,106l0.5,0.6L131,106
		C131,106,131,106,131,106z M128.3,104.2c0.7,0.7,1.4,1.4,2.1,2.2c-0.3,0.3-0.7,0.5-1.1,0.7c-0.1-0.2-0.1-0.4-0.2-0.6
		c-0.2-0.4-0.4-0.9-0.6-1.3l-0.4-0.8c-0.1-0.2-0.2-0.5-0.3-0.7C128,103.9,128.2,104.1,128.3,104.2z M133.2,102.8
		c0,0.1-0.1,0.2-0.1,0.2c-0.2-0.1-0.4-0.3-0.6-0.4c-0.6-0.4-1.2-0.7-1.7-0.9l-0.6-0.3c-0.1,0-0.1-0.1-0.2-0.1c0.3,0,0.6,0,0.9,0.1
		c0.7,0.1,1.3,0.2,2,0.3c0.3,0,0.6,0.1,0.9,0.2C133.4,102.2,133.3,102.5,133.2,102.8z M134.1,101.9
		C134.1,101.9,134.1,101.9,134.1,101.9l0.1-0.7L134.1,101.9z"/>
	<path class="st0" d="M125,97.5c-1,0-1.9,0.8-1.9,1.9s0.8,1.9,1.9,1.9c1,0,1.9-0.8,1.9-1.9S126,97.5,125,97.5z M125,99.8
		c-0.2,0-0.4-0.2-0.4-0.4s0.2-0.4,0.4-0.4c0.2,0,0.4,0.2,0.4,0.4S125.2,99.8,125,99.8z"/>
	<path class="st0" d="M126.8,108.1c0-0.3-0.1-0.7-0.1-1c-0.1-0.5-0.2-1-0.2-1.6c-0.1-0.5-0.2-1.2-0.4-1.8c-0.1-0.3-0.2-0.6-0.3-0.8
		c-0.2-0.5-0.7-0.7-1.1-0.7c-0.5,0-0.7,0.3-0.8,0.6c0,0,0,0,0,0.1l0,0c0.1-0.2,0.1-0.6-0.1-0.9c-0.2-0.3-0.6-0.4-0.7-0.4
		c-0.1,0-0.3,0-0.4,0c-0.1,0-0.2,0-0.3,0.1c-0.4,0.1-0.7,0.3-1.1,0.6c-0.3,0.3-0.7,0.6-1,0.9l-0.6,0.6c-0.3,0.3-0.6,0.6-0.9,0.8
		c-0.2,0.2-0.4,0.4-0.7,0.6l-0.3,0.3c-0.1,0.1-0.3,0.3-0.4,0.6c0,0.4,0.2,0.6,0.3,0.7c0.5,0.5,1.1,1,1.7,1.4
		c0.1,0.1,0.3,0.2,0.5,0.3l0.2,0.1c0.2,0.1,0.5,0.2,0.7,0.1c0.2-0.1,0.4-0.2,0.5-0.4c0-0.1,0.1-0.1,0.1-0.2l0.3-0.6
		c0.3-0.5,0.6-1,0.8-1.6c0.4-0.7,0.7-1.5,1.1-2.2c0.1-0.1,0.1-0.2,0.1-0.3c-0.1,0.2-0.1,0.4-0.2,0.6c-0.1,0.3-0.1,0.7-0.2,1.1
		c-0.1,0.3-0.1,0.7-0.2,1c-0.1,0.5-0.2,0.9-0.3,1.4c-0.1,0.3-0.1,0.5-0.2,0.8l-0.1,0.4c-0.1,0.3,0,0.6,0.1,0.7
		c0.1,0.2,0.4,0.3,0.6,0.4l0.2,0c0.2,0,0.5,0.1,0.7,0.1c0.2,0,0.4,0,0.6,0l0.4,0l1-0.1c0,0,0,0,0,0c0.5,0,0.8-0.4,0.8-0.9
		c0-0.2,0-0.4-0.1-0.6L126.8,108.1z M120.9,105.1c-0.3,0.5-0.5,1-0.8,1.5l-0.1,0.1c0,0,0,0-0.1,0c-0.3-0.2-0.7-0.5-1-0.8
		c0.2-0.1,0.4-0.3,0.5-0.5c0.3-0.3,0.6-0.6,0.9-0.9l0.6-0.6c0.2-0.2,0.4-0.4,0.6-0.6C121.5,104.1,121.2,104.6,120.9,105.1z
		 M122.3,102.2L122.3,102.2C122.3,102.2,122.3,102.2,122.3,102.2C122.3,102.2,122.3,102.2,122.3,102.2z M125.1,108.3l-0.3,0
		c-0.2,0-0.4,0-0.5,0c0,0-0.1,0-0.1,0c0-0.2,0.1-0.4,0.1-0.5c0.1-0.5,0.2-1,0.3-1.5c0.1-0.4,0.1-0.7,0.2-1.1c0-0.2,0.1-0.4,0.1-0.6
		c0.1,0.4,0.2,0.8,0.2,1.1c0.1,0.5,0.2,1,0.2,1.5c0,0.3,0.1,0.7,0.1,1l0,0L125.1,108.3z"/>
	<path class="st0" d="M126.5,95.8C126.5,95.8,126.5,95.8,126.5,95.8c0,0.1-0.1,0.3-0.1,0.5c0,0.1,0,0.1,0,0.2c0,0.4,0,0.7,0.4,1
		c0.3,0.3,0.7,0.3,1.1,0.1c0,0,0,0,0,0c-0.5,0.4-0.4,0.8-0.4,0.9c0.1,0.4,0.4,0.6,0.6,0.7c0.4,0.2,0.8,0.3,1.3,0.3l0.1,0
		c0,0,0.1,0,0.1,0c0.1,0,0.2,0,0.2,0c0.2,0,0.4,0,0.7-0.1l1.1-0.2c0.2,0,0.4-0.1,0.6-0.1c0.2,0,0.5-0.1,0.7-0.1c0.3,0,0.6,0,0.9-0.1
		c0.1,0,0.3,0,0.4,0l0.2,0c0.4,0,0.8-0.4,0.8-0.8c0-0.1,0-0.2,0-0.2l-0.1-0.3c-0.1-0.3-0.1-0.5-0.2-0.8c-0.1-0.6-0.3-1.2-0.6-1.8
		c-0.2-0.4-0.7-0.6-1.1-0.4c-0.1,0-0.1,0.1-0.2,0.1l-0.6,0.3c-0.8,0.4-1.5,0.8-2.3,1.1c-0.6,0.3-1.1,0.6-1.7,0.9
		c0.2-0.1,0.3-0.2,0.4-0.4c0.2-0.2,0.4-0.4,0.7-0.7c0.2-0.2,0.5-0.5,0.7-0.7c0.4-0.4,0.8-0.8,1.3-1.2c0.2-0.2,0.4-0.3,0.6-0.5
		l0.3-0.2c0.1-0.1,0.3-0.3,0.3-0.6c0-0.4-0.2-0.6-0.3-0.7c-0.3-0.4-0.7-0.7-1.1-1c-0.4-0.3-0.9-0.6-1.3-0.9
		c-0.4-0.2-0.8-0.1-1.1,0.3c0,0.1-0.1,0.1-0.1,0.2c-0.6,1.1-1.2,2.1-1.6,3.1C126.9,94.5,126.6,95.1,126.5,95.8z M130.8,97.6
		c0.8-0.4,1.5-0.8,2.3-1.1l0.2-0.1c0.1,0.3,0.2,0.6,0.3,0.9c0,0.1,0.1,0.2,0.1,0.4c-0.3,0-0.5,0-0.8,0.1c-0.3,0-0.5,0.1-0.8,0.1
		c-0.2,0-0.4,0.1-0.6,0.1l-1.1,0.2c-0.1,0-0.2,0-0.4,0C130.2,97.9,130.5,97.8,130.8,97.6z M129.6,91.2L129.6,91.2L129.6,91.2
		L129.6,91.2z M128.5,94.6c0.4-0.8,0.8-1.7,1.3-2.6c0.2,0.1,0.4,0.3,0.6,0.4c0.2,0.1,0.3,0.2,0.4,0.4c-0.1,0.1-0.3,0.2-0.4,0.3
		c-0.5,0.4-0.9,0.8-1.3,1.2c-0.3,0.2-0.5,0.5-0.8,0.7c-0.1,0.1-0.2,0.2-0.2,0.2C128.3,95.1,128.4,94.9,128.5,94.6z"/>
	<path class="st0" d="M83.3,77.7c-0.2-0.2-0.4-0.3-0.6-0.3c-0.2,0-4,0.2-4.8,0.2c-1,0.1-2.2,1.1-2.4,1.3c-0.2,0.2-0.3,0.5-0.2,0.8
		s0.4,0.5,0.7,0.5c0.2,0,3.7,0,5.3-0.2c1.6-0.2,2.2-1.2,2.3-1.7C83.5,78.1,83.5,77.9,83.3,77.7z"/>
	<path class="st0" d="M107,78.3c0.1,0.3,0.4,0.5,0.7,0.5c0.2,0,3.7,0,5.3-0.2c1.6-0.2,2.2-1.2,2.3-1.7c0-0.2,0-0.4-0.2-0.6
		c-0.1-0.2-0.4-0.3-0.6-0.3c-0.2,0-4,0.2-4.8,0.2c-1,0.1-2.2,1.1-2.4,1.3C107,77.6,106.9,78,107,78.3z"/>
</g>
</svg>
