<?xml version="1.0" encoding="utf-8"?>
<!-- Generator: Adobe Illustrator 21.1.0, SVG Export Plug-In . SVG Version: 6.00 Build 0)  -->
<svg version="1.1" id="Layer_1" xmlns="http://www.w3.org/2000/svg" xmlns:xlink="http://www.w3.org/1999/xlink" x="0px" y="0px"
	 width="160px" height="160px" viewBox="0 0 160 160" style="enable-background:new 0 0 160 160;" xml:space="preserve">
<style type="text/css">
	.st0{fill:#00D000;}
	.st1{fill:#FFFFFF;}
</style>
<g>
	<g>
		<path class="st0" d="M103,127.2c-0.4,0-0.8-0.3-0.8-0.8V33.5c0-0.4,0.3-0.8,0.8-0.8s0.8,0.3,0.8,0.8v92.9
			C103.8,126.9,103.4,127.2,103,127.2z"/>
	</g>
	<g>
		<path class="st1" d="M105.9,31l-7.4-1.6c-0.1-0.1-0.3-0.2-0.5-0.2c-0.1,0-0.1,0-0.2,0l-0.1,0c-0.1,0-0.2,0-0.2,0l-43.4,5.1
			c-0.4,0-0.7,0.4-0.7,0.7v89.3c0,0.4,0.3,0.7,0.7,0.7l43.8,5.6c0,0,0.1,0,0.1,0c0.1,0,0.1,0,0.2,0l7.7-1.7c0.3-0.1,0.6-0.4,0.6-0.7
			V31.7C106.5,31.4,106.2,31,105.9,31z M55,35.8l42.3-5v98.4L55,123.8V35.8z M105,127.7l-6.2,1.4V31l6.2,1.3V127.7z"/>
		<path class="st1" d="M87,52.9c0.2,0,0.4,0,0.6,0c0.5,0,0.9-0.1,1.4-0.1c0.2,0,0.3-0.1,0.4-0.2c0-0.1,0.1-0.1,0.1-0.2
			c0.1-0.1,0.1-0.3,0.2-0.4c0,0,0-0.1-0.1-0.1c-0.1,0-0.3,0-0.4,0c-1,0.1-1.9,0.1-2.9,0.2c0,0,0,0-0.1,0c0,0.2,0.1,0.4,0.3,0.5
			C86.7,52.9,86.8,52.9,87,52.9z"/>
		<path class="st1" d="M74,53.7c0.5,0,1-0.1,1.5-0.1c0.2,0,0.3-0.1,0.5-0.2c0.1-0.1,0.2-0.3,0.3-0.4c0,0,0-0.1,0-0.1c0,0,0,0,0,0
			c-0.9,0.1-1.8,0.1-2.7,0.2c-0.1,0-0.1,0-0.1,0.1c0,0.6,0,1.3,0,1.9c0,0,0,0.1,0,0.1c0.8,0,1.5-0.1,2.3-0.1c0,0.3,0,0.5,0,0.7
			c0,0-0.1,0-0.1,0c-0.5,0-1,0.1-1.6,0.1c-0.1,0-0.3,0-0.4,0.1c-0.1,0-0.1,0.1-0.2,0.1c-0.1,0.1-0.2,0.3-0.3,0.5c1,0,2-0.1,2.9-0.1
			c0-0.7,0-1.5,0-2.2c0,0-0.1,0-0.1,0c-0.7,0-1.4,0.1-2.1,0.1c-0.1,0-0.1,0-0.1-0.1C73.9,54.1,73.9,53.9,74,53.7
			C73.9,53.7,73.9,53.7,74,53.7z"/>
		<path class="st1" d="M86.3,56c0.2,0,0.4,0,0.6,0c0,0,0-0.1,0-0.1c0-0.4,0-0.9,0-1.3c0-0.1,0-0.1,0.1-0.1c0.7,0,1.3-0.1,2-0.1
			c0,0,0,0,0.1,0c0,0.5,0,1,0,1.5c0.2,0,0.4,0,0.6,0c0-0.8,0-1.5,0-2.3c-1.1,0.1-2.2,0.1-3.2,0.2C86.3,54.4,86.3,55.2,86.3,56z"/>
		<path class="st1" d="M80.3,52.6c-0.2,0-0.4,0-0.5,0c0,1.2,0,2.4,0,3.6c0.1,0,0.3,0,0.4,0c0.7,0,1.4-0.1,2-0.1c0,0,0.1,0,0.1,0
			c0.3-0.2,0.4-0.4,0.4-0.7c-0.8,0-1.6,0.1-2.4,0.1C80.3,54.5,80.3,53.6,80.3,52.6z"/>
		<path class="st1" d="M61.6,54.3c0.1,0.1,0.2,0.1,0.3,0.1c0.2,0,0.4,0,0.6,0c0.1,0,0.1,0,0.1,0.1c0,0.8,0,1.7,0,2.5
			c0,0,0,0.1,0,0.1c0.1,0,0.2,0,0.3,0c0.1,0,0.1,0,0.1-0.1c0-0.8,0-1.7,0-2.5c0-0.1,0-0.1,0.1-0.1c0.2,0,0.3,0,0.5,0
			c0.2,0,0.3-0.1,0.4-0.2c0.1-0.1,0.2-0.3,0.2-0.5c0,0,0,0,0-0.1c-1,0.1-2,0.1-2.9,0.2C61.4,54,61.5,54.2,61.6,54.3z"/>
		<path class="st1" d="M67.6,56.7c0.1,0.1,0.2,0.2,0.4,0.2c0.6,0,1.1-0.1,1.7-0.1c0.1,0,0.1,0,0.2-0.1c0.2-0.2,0.3-0.4,0.4-0.7
			c-1,0-1.9,0.1-2.9,0.1C67.4,56.4,67.5,56.6,67.6,56.7z"/>
		<path class="st1" d="M68,54.1c0.5,0,1.1-0.1,1.6-0.1c0.2,0,0.3-0.1,0.4-0.2c0.1-0.2,0.2-0.3,0.3-0.6c-1,0.1-1.9,0.1-2.9,0.2
			c0,0.2,0.1,0.4,0.2,0.5C67.7,54,67.8,54.1,68,54.1z"/>
		<path class="st1" d="M67.9,55.4c0.5,0,1.1-0.1,1.6-0.1c0.2,0,0.3-0.1,0.4-0.2c0.1-0.2,0.2-0.3,0.2-0.5c-1,0-1.9,0.1-2.9,0.1
			c0,0.2,0.1,0.4,0.3,0.6C67.8,55.4,67.8,55.4,67.9,55.4z"/>
	</g>
</g>
</svg>
