<?xml version="1.0" encoding="utf-8"?>
<!-- Generator: Adobe Illustrator 22.0.1, SVG Export Plug-In . SVG Version: 6.00 Build 0)  -->
<svg version="1.1" id="Layer_1" xmlns="http://www.w3.org/2000/svg" xmlns:xlink="http://www.w3.org/1999/xlink" x="0px" y="0px"
	 width="160px" height="160px" viewBox="0 0 160 160" style="enable-background:new 0 0 160 160;" xml:space="preserve">
<style type="text/css">
	.st0{fill:#FFFFFF;}
</style>
<g>
	<path class="st0" d="M160,84.5l0-0.2l-0.1-0.1c-0.1-0.1-0.5-0.5-1.5-0.8c0,0,0-0.1,0-0.1l-0.4-0.9l0-0.1l-0.1-0.1
		c0,0-0.3-0.5-0.2-2.3c0.2-2.3,0.1-4.9,0.1-5l0-0.2c0-0.1-0.6-1.5-1.1-2.6c-0.4-0.8-0.1-1.7,0.1-1.8c0,0,0,0,0,0c0,0,0,0,0,0l0,0
		c0.5-0.3,0.4-0.7,0.4-0.9c-0.1-0.4-0.5-0.6-1.1-0.6l-3.3,0c0,0-1.2,0.1-3.9-0.8c-2.7-0.9-12.6-3.8-18.7-5.2
		c-0.2,0-16.2-4.2-29.2-5.7C86,55.5,67.5,55,36.8,71.8c-0.8,0-4.6,0.3-7.2,1c-1,0-8.1-0.1-13.7,2.6C10.5,78,1.8,84.7,0.6,85.7
		l-0.1,0l-0.2,0.2c-0.2,0.3-0.3,0.6-0.2,1.3c0.1,0.9,0.8,4.4,1.5,6.5c0,0.5,0,0.9,0,1.3c-0.7,0.2-1.5,0.7-1.6,1.3
		c0,0.3,0.1,0.8,0.8,1.2c1.6,0.9,4.6,1.2,9.3,1.6v0l3.2,0.3l0,0l0.6,0l1.6-0.3c2.5,2.8,6,4.5,10,4.5c4.6,0,8.6-2.3,11-5.8
		c0.8,1,1,1,1.3,1c0.1,0,0.6,0,0.9-0.1l0.2,0.5l1,0.1l0.1,0c0,0,0,0,0,0l80.7-0.1h0.7l-0.1-0.7c0-0.1-1-7.1,0.1-11.4
		c0.4-1.7,3-10.4,12.9-11.3c8-0.7,13.6,5.4,14.4,9.8c0.8,4.4-0.2,9.8-0.2,9.8l-0.1,0.3l0.6,0.6l-0.1,0.2l-2.4,0.4
		c1.2-2,1.9-4.4,1.9-6.9c0-7.4-6-13.4-13.4-13.4c-7.4,0-13.4,6-13.4,13.4c0,7.4,6,13.4,13.4,13.4c4.3,0,8.1-2,10.5-5.1l7.7-1.2
		c0.2,0,2.3-0.4,2.9-1.8c0.7-0.3,1.7-0.9,1.9-1.9c0.1-0.2,0.2-0.7,0.3-1.2C159.5,88.1,160.1,85.3,160,84.5z M134.9,102.4
		c-6.7,0-12.2-5.5-12.2-12.2c0-6.7,5.5-12.2,12.2-12.2c6.7,0,12.2,5.5,12.2,12.2C147,96.9,141.6,102.4,134.9,102.4z M151.5,86.7
		c0.1,0,0.2,0,0.3-0.1c0.8-0.1,1.3-0.2,1.5-0.2c0,0,0,0,0,0c0.6,1.8,0.9,6.2,0.9,8.4l-3.6,0.7C151.9,92.2,151.7,88.1,151.5,86.7z
		 M154.5,85.9c0.9-0.3,1.8-0.6,2.5-1c-0.2,0.8-0.4,1.7-0.6,2.2l-1.1,3C155.1,88.6,154.8,87,154.5,85.9z M155.1,71.4
		c-0.3,0-0.8,0-1.5,0c0.6-0.1,1.1-0.3,1.5-0.4C155.1,71.2,155.1,71.3,155.1,71.4z M151.1,72.1l0.7,0.7l0.3,0c0.5,0,1.1-0.1,1.5-0.1
		l0,1.4c-1-0.5-2.7-1.3-3.4-1.7c-0.1-0.1-0.2-0.1-0.3-0.2C150.3,72.2,150.7,72.2,151.1,72.1z M39.4,86.3c-1-3.4-3.6-6.3-6.8-8.1
		l4.1-0.2l3.6,3c0.2,0.3,0.9,0.8,2.6,0.8c0.4,0,0.9,0,1.4-0.1c0.2,0,0.8-0.1,1.7-0.2c0,4.4,0.3,9.7,0.6,12.5l-3.7,0.3l3.8,0.5
		l0.2,0.9L40,96.2C40.3,93.9,40.5,89.9,39.4,86.3z M40.2,79.4L40.2,79.4L40.2,79.4L40.2,79.4z M46,80.4c-1,0.1-1.7,0.2-1.9,0.2
		c-0.5,0.1-0.9,0.1-1.2,0.1c-1.3,0-1.6-0.3-1.6-0.3l-0.2-0.2l0.3-0.3l0.5-0.3l4.1-0.7C46,79.4,46,79.9,46,80.4z M46.2,77.7l-7.3,0.6
		L38.5,78L46.2,77.7C46.2,77.6,46.2,77.6,46.2,77.7z M48,95.8l-0.1-0.6l0.9,0.1l38.6-2.7c-1.9,1-5.2,1.2-6.7,1.2L48,95.8z
		 M47.8,94.1c-0.3-4.4-0.6-9-0.6-12.6c8.2-0.8,31.5-3,47.9-4.3c-1.1,3.7-4.4,10.2-6.4,14.1L47.8,94.1z M47.3,80.3c0-1,0-2,0.1-2.7
		l14.4-0.7l3.7-1.1c0.2,0-0.5,0,1.4,0l6.7-1.4c-7.4,0.2-17.3,0.2-24.3-0.1c0.2-0.1,0.3-0.3,0.5-0.4c17.2-0.7,32.5-1.9,44.5-3
		c0.7,2.5,1,4.2,1.1,5.2C77.8,77.4,55.4,79.5,47.3,80.3z M59.4,75.7l-11.9,0.6c0.1-0.4,0.2-0.7,0.3-0.8
		C51.2,75.6,55.3,75.7,59.4,75.7z M58.3,72.2l1.9-5.2c5-2.7,11.1-5.1,17.5-6c4.2-0.5,8.2-0.8,12.1-0.8c2.2,0,4.4,0.1,6.6,0.2l-3,9.1
		C83.7,70.6,71.7,71.6,58.3,72.2z M51.5,72.6c1.9-1.4,4.3-3,7.1-4.6L57,72.3C55.2,72.4,53.3,72.5,51.5,72.6z M41.8,71.9l-2.5-0.1
		C52,65.1,62.6,61.3,71.6,59.4c-9.2,2.4-17.8,7.6-21.7,10c-0.4,0.3-0.8,0.5-1.1,0.7C45.6,72,41.9,71.9,41.8,71.9z M50.5,70.5
		c4.6-2.8,15.2-9.3,25.7-10.8l0.3,0.3c-10.6,1.7-20.1,7.5-25.6,11.4l-0.8-0.7C50.2,70.7,50.4,70.6,50.5,70.5z M94.8,69.5l2.9-8.9
		c7.8,0.6,15.5,2.1,24,4.2l-1.1,0.9c0,0-1,0.9-2.5,1.1l-0.4,0.1C113.3,67.4,105.3,68.5,94.8,69.5z M77.9,59.8l-0.2-0.2
		c6.1-0.7,12.2-1.1,19.3-0.7l-0.1,0.4C90.7,58.9,84.6,59,77.9,59.8z M37,73l4.8,0.1c0,0,0.1,0,0.3,0c1,0,4-0.1,6.9-1.7l0.9,0.8
		c-1,0.8-1.8,1.4-2.5,1.9c-2.5-0.1-4.5-0.3-5.7-0.5c-1.7-0.3-3.8-0.5-5.7-0.6C36.5,73,36.9,73,37,73z M8.5,81.4
		c0.6-0.3,1.1-0.5,1.6-0.7c-0.8,1-1.3,1.9-1.5,2.4c-0.4,0.1-0.8,0.2-1.3,0.3c-0.4,0.1-0.8,0.2-1.3,0.3c-0.3,0-0.5,0.1-0.8,0.1
		C6.1,83.1,7.3,82.3,8.5,81.4L8.5,81.4z M1.3,87.3c0.5,0,1.3-0.1,2.2-0.2C5,86.6,6,85.2,6,85.2c-1.4,0.5-2.8,0.7-3.8,0.7
		c0.2-0.2,0.5-0.4,0.9-0.7c0.5-0.1,2-0.2,3.1-0.4c0.6-0.1,1-0.2,1.4-0.3c0.5-0.1,1-0.2,1.4-0.3l0.4,0L9.5,84c0,0,1.1-2.5,2.9-3.8
		l1.6-1.2L12,79c1.6-1,3.1-1.9,4.4-2.6C22,73.8,29.6,74,29.6,74l0.1,0l0,0c0.8,0,7.3,0.2,11.7,0.9c1.1,0.2,2.9,0.3,5.1,0.5
		c-0.1,0.3-0.2,0.6-0.2,1l-9.5,0.4v0l-6.8,0.3c-1.5-0.5-3.1-0.8-4.6-0.8c-6.7,0-12.6,4.3-14.2,10.3c-0.9,3.5-0.7,6.8-0.3,9.2
		l-1.7-0.2c0,0-4.6-0.5-5.2-0.6c-0.2,0-0.3-0.1-0.3-0.1l-1.1-1.6C2.1,91.4,1.5,88.4,1.3,87.3z M12.5,86.8c0,0.1,0,0.1,0,0.2
		C12.5,87,12.5,86.9,12.5,86.8C12.5,86.9,12.5,86.9,12.5,86.8z M3,96.3c0-0.2-0.1-0.4-0.1-0.7c0.2,0.2,0.5,0.5,1.1,0.6
		c0.1,0,0.2,0,0.3,0C3.8,96.3,3.3,96.3,3,96.3z M1.4,96.3c0.1,0,0.2-0.1,0.3-0.1c0,0.1,0,0.2,0.1,0.3C1.6,96.4,1.5,96.4,1.4,96.3
		C1.4,96.3,1.4,96.3,1.4,96.3z M10.3,97.8c-0.2,0-0.8-0.2-1.2-0.5c-0.2-0.1-0.4-0.2-0.7-0.3c0.4-0.1,0.8-0.2,1.1-0.3l1.7-0.6
		c0.1,0.7,0.3,1.3,0.4,1.8L10.3,97.8z M13.8,98.1l-0.9-0.1c-0.4-1.3-1.5-5.7-0.5-10.3c-0.2,0.8-0.2,1.6-0.2,2.5
		c0,2.9,0.9,5.6,2.5,7.8L13.8,98.1z M25.5,102.4c-6.7,0-12.2-5.5-12.2-12.2c0-6.7,5.5-12.2,12.2-12.2c6.7,0,12.2,5.5,12.2,12.2
		C37.7,96.9,32.2,102.4,25.5,102.4z M37.2,96.7c1-1.8,1.6-4,1.7-6.2c0.3,3.1-0.1,5.9-0.3,7c-0.2,0-0.5,0-0.6,0
		C37.8,97.4,37.5,97,37.2,96.7z M134.1,74.7c-8.3,0.7-12.7,6.8-14,12.2c-0.9,3.7-0.4,9.2-0.2,11.2h-1.1c-1.6,0-2.9-0.3-2.9-0.3
		c-4.5-1.6-72.3,0.3-75.9,0.4l-0.1,0l0-0.1c0-0.1,0.1-0.3,0.1-0.6L80.8,95c0.7,0,6.8,0,8.7-2.6l20.8-1.4l4.4-1.5l-24.5,1.7
		c2.2-4.1,5.4-10.5,6.3-14.1c5.6-0.5,10.4-0.8,13.2-0.9l6.2-1.7c-3.7,0.2-10.9,0.7-19.5,1.4c-0.1-0.9-0.3-2.7-1-5.2
		c10.3-1,18-2,22.4-2.6l0.4-0.1c1.9-0.3,3.1-1.4,3.2-1.4l2.9-2.4l-1.2-0.3c-8.9-2.2-17-3.8-25.1-4.5l0.1-0.4c4.6,0.4,9.7,1,15.5,2.2
		c0.2,0,18.8,3.7,28.1,6.5l1.1,0c2.4,0.7,4.3,1.3,5.4,1.6c3,1,4.2,0.9,4.3,0.9h1c-1,0.3-2.2,0.6-3.5,0.8l0,0l-9.5-1.8
		c-10.4-2.2-38.5,3.1-39.7,3.4l7,0.1c0.3-0.1,22.3-4.4,32.4-2.3l6.5,1.2c-2.5,0.5-4.8,0.9-6,1c-1.5,0.2-2.4,1.1-2.4,1.1c0,0,0,0,0,0
		l-1.4,1C136.3,74.6,135.2,74.6,134.1,74.7z M139,75.1l0.5-0.4c0,0,0.7-0.6,1.8-0.8c0.1,0,3.4-0.5,6.9-1.2c0.3,0.2,0.8,0.6,1.5,0.9
		c1,0.5,4.1,2,4.2,2.1c0,0,0.2,0.1,0.4,0.1c0.2,0,0.4,0,0.6-0.2c0.1-0.1,0.4-0.4,0.4-0.8c0-0.5-0.2-0.8-0.5-1.1v-0.6
		c0.1-0.1,0.3-0.2,0.6-0.3c0,0,0,0,0,0c0.4,0.8,0.9,2,1,2.3c0,0.5,0.1,2.7-0.1,4.8c-0.2,2,0.2,2.8,0.4,3.2l0.2,0.4
		c-0.4,0.5-2.8,1.4-5.5,1.9c-0.2,0-0.5,0.1-0.7,0.1c0,0,0,0,0,0l0,0c0,0,0,0,0,0l-0.6,0.1l0.1,0.6c0,0,0.5,4-0.3,7.5
		c0.3-2.1,0.5-5.3-0.1-8.3C149.1,81.5,145.1,76.5,139,75.1z M157.1,92.1c-0.1,0.5-0.3,0.9-0.3,1.2c-0.1,0.5-0.7,0.9-1.3,1.1
		c0-0.3,0-0.8-0.1-1.3l2.1-5.5c0.1-0.2,0.6-1.7,0.8-2.9c0.2,0.1,0.4,0.1,0.5,0.2C158.7,86.1,157.5,90.6,157.1,92.1z"/>
	<path class="st0" d="M25.5,79.2c-6.1,0-11,4.9-11,11c0,6.1,4.9,11,11,11c6.1,0,11-4.9,11-11C36.5,84.1,31.5,79.2,25.5,79.2z
		 M34,87.1c0.3,0.7,0.4,1.5,0.5,2.3c-0.9,0.3-2.5,0.7-4.4,0.6c0-0.5-0.1-1.1-0.3-1.6C31.5,87.6,33.1,87.2,34,87.1z M28.8,89.8
		c0,0-0.1,0-0.1-0.1c0,0-0.1,0-0.1,0c0,0,0,0-0.1,0c0,0,0,0,0,0c0,0,0,0,0-0.1c0,0,0-0.1,0-0.1c0,0,0,0,0-0.1c0,0,0-0.1,0.1-0.1
		c0,0,0,0,0.1-0.1c0,0,0.1-0.1,0.1-0.1c0,0,0,0,0.1-0.1c0,0,0.1-0.1,0.1-0.1c0.1,0.3,0.2,0.6,0.2,1c-0.1,0-0.1,0-0.2-0.1
		C28.9,89.9,28.9,89.8,28.8,89.8z M32,83.9c0.5,0.5,0.9,1,1.2,1.6l-2.1,0.4L32,83.9z M30.5,82.7c-0.3,0.9-1,2.4-2.2,3.8
		c-0.5-0.3-1-0.6-1.5-0.7c0.4-1.9,1.1-3.3,1.6-4.1C29.1,81.9,29.8,82.2,30.5,82.7z M26.8,87.6c-0.1-0.1-0.2-0.5-0.2-0.8l0,0h0
		c0,0,0,0,0,0c0.3,0.1,0.7,0.3,1,0.5l0,0C27.1,87.6,26.9,87.6,26.8,87.6z M26.5,81.2l-1,1.9l-1-1.9C25.1,81.1,25.8,81.1,26.5,81.2z
		 M24.4,87.1c0,0.1,0,0.2,0,0.2c0,0,0,0,0,0c0,0.1-0.1,0.2-0.1,0.2c0,0-0.1,0-0.1,0c-0.2,0-0.4-0.2-0.6-0.3c0,0,0,0,0,0
		c0.3-0.2,0.6-0.3,0.9-0.5c0,0.1,0,0.2,0,0.2C24.4,87,24.4,87,24.4,87.1z M22.6,81.6c0.5,0.8,1.3,2.3,1.6,4.1
		c-0.5,0.1-1,0.4-1.5,0.7c-1.3-1.5-1.9-3-2.2-3.8C21.2,82.2,21.9,81.9,22.6,81.6z M19.1,83.8l0.9,2l-2.1-0.4
		C18.2,84.8,18.6,84.3,19.1,83.8z M17,87.1c0.9,0.1,2.5,0.4,4.2,1.3c-0.2,0.5-0.3,1.1-0.4,1.6c-1.9,0.1-3.5-0.4-4.4-0.7
		C16.5,88.6,16.7,87.8,17,87.1z M21.9,89.9L21.9,89.9L21.9,89.9C21.9,89.9,21.8,89.9,21.9,89.9c0-0.3,0-0.7,0.2-1l0.1,0.1
		c0.4,0.3,0.4,0.5,0.4,0.6C22.6,89.6,22.3,89.8,21.9,89.9z M16.9,93.2c-0.2-0.6-0.4-1.3-0.4-1.9l2.1,0.6L16.9,93.2z M19.1,96.6
		c-0.5-0.5-1-1.1-1.3-1.7c0.7-0.6,1.9-1.7,3.7-2.5c0.3,0.5,0.6,0.9,1,1.2C21.3,95.2,19.9,96.2,19.1,96.6
		C19.1,96.7,19.1,96.6,19.1,96.6z M22.4,92.1L22.4,92.1c0.1,0,0.2,0,0.2,0c0.1,0,0.1,0,0.2,0c0,0,0,0,0.1,0c0,0,0.1,0,0.1,0
		c0.1,0,0.1,0,0.2,0.1c0.1,0.1,0,0.4-0.1,0.7c0,0,0,0,0,0c0,0,0,0,0,0C22.7,92.6,22.5,92.4,22.4,92.1L22.4,92.1z M20.7,97.9l1.8-1.3
		l0.1,2.2C21.8,98.5,21.2,98.2,20.7,97.9z M25.4,93.3C25.4,93.3,25.4,93.2,25.4,93.3C25.5,93.2,25.5,93.2,25.4,93.3
		c0.2,0,0.4,0.2,0.6,0.6c0,0,0,0,0,0c-0.3,0-0.7,0-1,0c0-0.1,0.1-0.1,0.1-0.2c0,0,0-0.1,0.1-0.1c0-0.1,0.1-0.1,0.1-0.1
		c0,0,0,0,0-0.1C25.3,93.3,25.3,93.3,25.4,93.3C25.4,93.3,25.4,93.3,25.4,93.3z M26.6,99.2c-0.8,0.1-1.5,0.1-2.3,0
		c-0.1-0.9-0.2-2.6,0.3-4.4c0.3,0,0.5,0.1,0.8,0.1c0.3,0,0.5,0,0.8-0.1C26.8,96.6,26.7,98.3,26.6,99.2z M28,95.4
		c-0.1,0.1-0.3,0.2-0.4,0.6l0,0.1c-0.1-0.5-0.2-1.1-0.3-1.7l0,0L27.1,94c-0.1-0.2-0.1-0.4-0.2-0.6l-0.1-0.1
		c-0.2-0.4-0.7-1.1-1.4-1.1c0,0,0,0,0,0c-0.5,0-1,0.4-1.4,1.2c0,0,0,0,0,0c-0.1,0.2-0.1,0.4-0.2,0.5l-0.2,0.5l0,0
		c-0.1,0.6-0.3,1.1-0.3,1.6l0-0.2c0-0.3-0.2-0.5-0.4-0.6c-0.1-0.1-0.4-0.1-0.7,0.1l-0.1,0.1c0.4-0.4,0.7-0.8,1.1-1.3l0,0l0.3-0.4
		c0.1-0.2,0.2-0.3,0.4-0.6c0.2-0.3,0.5-1.2,0-1.8c-0.3-0.4-0.8-0.5-1.6-0.4l0,0c0,0,0,0,0,0l-0.2,0l0,0c-0.2,0.1-0.4,0.1-0.6,0.2
		L21,91.5l0,0c-0.5,0.2-1.1,0.5-1.5,0.8l0.1-0.1c0.2-0.2,0.3-0.5,0.2-0.7c0-0.1-0.1-0.4-0.5-0.5l-0.1,0c0.5,0,1.1,0.1,1.7,0l0,0
		l0.5,0c0.2,0,0.4,0,0.7-0.1l0.1,0c0.4-0.1,1.2-0.4,1.4-1.1c0.1-0.5-0.1-1-0.8-1.5l-0.2-0.1c-0.2-0.1-0.3-0.2-0.5-0.3l-0.4-0.3l0,0
		c-0.5-0.3-1-0.5-1.5-0.7l0.2,0c0.3,0,0.5-0.1,0.7-0.3c0.1-0.1,0.2-0.4,0.1-0.7L21,85.7c0.3,0.4,0.6,0.9,1,1.4l0,0l0.3,0.4
		c0.1,0.1,0.3,0.3,0.4,0.4l0,0c0,0,0.1,0.1,0.2,0.1c0,0,0,0,0.1,0c0.1,0.1,0.2,0.1,0.3,0.2c0,0,0,0,0,0c0.1,0,0.2,0.1,0.3,0.1
		c0,0,0,0,0.1,0c0.1,0,0.3,0.1,0.4,0.1c0,0,0,0,0,0c0,0,0.1,0,0.1,0c0,0,0.1,0,0.1,0c0.1,0,0.2,0,0.3-0.1c0.1-0.1,0.2-0.1,0.3-0.2
		c0.3-0.3,0.4-0.8,0.4-1.5c0,0,0,0,0,0c0,0,0,0,0,0c0-0.2,0-0.4-0.1-0.6l-0.1-0.5l0,0c-0.1-0.6-0.2-1.1-0.4-1.6l0.1,0.2
		c0.2,0.2,0.4,0.3,0.6,0.4c0.1,0,0.4-0.1,0.6-0.4l0.1-0.1c-0.2,0.5-0.3,1.1-0.4,1.6l0,0L25.7,86c0,0.2-0.1,0.4-0.1,0.7v0.1h0
		c0,0.3,0,1.3,0.8,1.7c0.1,0.1,0.3,0.1,0.4,0.1c0,0,0,0,0.1,0c0,0,0,0,0.1,0c0.1,0,0.2,0,0.3,0c0,0,0.1,0,0.1,0
		c0.1,0,0.3-0.1,0.4-0.2l0,0l0.4-0.3l0.1-0.1l0,0c0.1-0.1,0.3-0.3,0.4-0.4l0.3-0.4l0,0c0.4-0.5,0.8-0.9,1-1.4L30,86
		c-0.1,0.3,0,0.5,0.1,0.7c0.1,0.1,0.3,0.3,0.7,0.2l0.1,0c-0.5,0.2-1,0.4-1.6,0.7l0,0l-0.4,0.3c-0.2,0.1-0.3,0.2-0.5,0.3
		c-0.2,0.1-1,0.9-0.9,1.7c0.1,0.5,0.6,0.9,1.4,1.1l0,0c0.2,0,0.4,0,0.6,0.1l0.5,0l0,0c0.6,0,1.2,0,1.7,0l-0.2,0
		c-0.3,0.1-0.4,0.3-0.5,0.5c0,0.1,0,0.4,0.3,0.7l0.1,0.1c-0.5-0.3-1-0.5-1.5-0.8l0,0l-0.5-0.2c-0.2-0.1-0.4-0.1-0.6-0.2
		c-0.2-0.1-1.3-0.3-1.9,0.4c-0.3,0.4-0.3,1,0.1,1.9c0.1,0.2,0.2,0.3,0.3,0.5l0.3,0.4l0,0c0.4,0.5,0.7,0.9,1.1,1.3l-0.2-0.1
		C28.4,95.3,28.2,95.3,28,95.4z M28,92.9c0-0.1-0.1-0.1-0.1-0.2c0,0,0-0.1,0-0.1c0-0.1,0-0.1,0-0.2c0,0,0,0,0-0.1c0,0,0-0.1,0-0.1
		c0,0,0,0,0,0c0,0,0-0.1,0-0.1c0.1-0.1,0.2-0.1,0.4-0.1c0.1,0,0.3,0,0.4,0C28.4,92.4,28.2,92.6,28,92.9z M28.5,98.8l0.1-2.1l1.7,1.3
		C29.7,98.3,29.1,98.5,28.5,98.8z M31.9,96.6c0,0-0.1,0.1-0.1,0.1c-0.8-0.5-2.1-1.5-3.2-3c0.4-0.4,0.8-0.8,1-1.3
		c1.8,0.8,3,1.8,3.7,2.5C32.8,95.5,32.4,96.1,31.9,96.6z M34,93.2l-1.6-1.4l2.1-0.5C34.4,91.9,34.2,92.6,34,93.2z"/>
	<path class="st0" d="M25.5,88.3c-1,0-1.9,0.8-1.9,1.9s0.8,1.9,1.9,1.9s1.9-0.8,1.9-1.9S26.5,88.3,25.5,88.3z M25.5,91.1
		c-0.5,0-0.9-0.4-0.9-0.9c0-0.5,0.4-0.9,0.9-0.9s0.9,0.4,0.9,0.9C26.4,90.7,26,91.1,25.5,91.1z"/>
	<path class="st0" d="M134.9,79.2c-6.1,0-11,4.9-11,11c0,6.1,4.9,11,11,11s11-4.9,11-11C145.9,84.1,140.9,79.2,134.9,79.2z
		 M143.4,87.1c0.3,0.7,0.4,1.5,0.5,2.3c-0.9,0.3-2.5,0.7-4.4,0.6c0-0.5-0.1-1.1-0.3-1.6C140.8,87.6,142.5,87.2,143.4,87.1z
		 M138.2,89.8c-0.1,0-0.1,0-0.1-0.1c0,0,0,0-0.1,0c0,0-0.1-0.1-0.1-0.1c0,0,0,0,0,0c0,0,0,0,0-0.1c0,0,0-0.1,0-0.1c0,0,0,0,0-0.1
		c0,0,0-0.1,0.1-0.1c0,0,0,0,0.1-0.1c0,0,0.1-0.1,0.1-0.1c0,0,0,0,0.1-0.1c0,0,0.1-0.1,0.1-0.1c0.1,0.3,0.2,0.6,0.2,1
		c-0.1,0-0.1,0-0.2-0.1C138.3,89.9,138.2,89.8,138.2,89.8z M141.3,83.9c0.5,0.5,0.9,1,1.2,1.6l-2.1,0.4L141.3,83.9z M139.9,82.7
		c-0.3,0.9-1,2.4-2.2,3.8c-0.5-0.3-1-0.6-1.5-0.7c0.4-1.9,1.1-3.3,1.6-4.1C138.5,81.9,139.2,82.2,139.9,82.7z M136.2,87.6
		c-0.1-0.1-0.2-0.5-0.2-0.8l0,0h0c0,0,0,0,0,0c0.3,0.1,0.7,0.3,1,0.5l0,0C136.5,87.6,136.2,87.6,136.2,87.6z M135.9,81.2l-1,1.9
		l-1-1.9C134.5,81.1,135.2,81.1,135.9,81.2z M133.7,87.1c0,0.1,0,0.2,0,0.2c0,0,0,0,0,0c0,0.1-0.1,0.2-0.1,0.2
		c-0.1,0.1-0.5-0.1-0.8-0.3c0.3-0.2,0.6-0.3,0.9-0.5C133.8,86.8,133.7,86.9,133.7,87.1C133.7,87,133.7,87,133.7,87.1z M132,81.6
		c0.5,0.8,1.3,2.3,1.6,4.1c-0.5,0.1-1,0.4-1.5,0.7c-1.2-1.5-1.9-3-2.2-3.8C130.6,82.2,131.3,81.9,132,81.6z M128.4,83.8l0.9,2
		l-2.1-0.4C127.6,84.8,128,84.3,128.4,83.8z M126.4,87.1c0.9,0.1,2.5,0.4,4.2,1.3c-0.2,0.5-0.3,1.1-0.4,1.6
		c-1.9,0.1-3.5-0.4-4.4-0.7C125.9,88.6,126.1,87.8,126.4,87.1z M131.3,89.9L131.3,89.9L131.3,89.9C131.2,89.9,131.2,89.9,131.3,89.9
		c0-0.3,0-0.7,0.2-1l0.1,0.1c0.4,0.3,0.4,0.5,0.4,0.6C131.9,89.6,131.7,89.8,131.3,89.9z M126.3,93.2c-0.2-0.6-0.4-1.3-0.4-1.9
		l2.1,0.6L126.3,93.2z M128.5,96.6c-0.5-0.5-1-1.1-1.3-1.7c0.7-0.6,1.9-1.7,3.7-2.5c0.3,0.5,0.6,0.9,1,1.2
		C130.7,95.2,129.3,96.2,128.5,96.6C128.5,96.7,128.5,96.6,128.5,96.6z M131.8,92.1L131.8,92.1c0.1,0,0.2,0,0.2,0c0.1,0,0.1,0,0.2,0
		c0,0,0,0,0.1,0c0,0,0.1,0,0.1,0c0,0,0,0,0.1,0c0.1,0,0.1,0,0.1,0c0.1,0.1,0,0.4-0.1,0.7c0,0,0,0,0,0c0,0,0,0,0,0
		C132.1,92.6,131.9,92.4,131.8,92.1L131.8,92.1z M130,97.9l1.8-1.3l0.1,2.2C131.2,98.5,130.6,98.2,130,97.9z M134.8,93.3
		C134.8,93.3,134.8,93.2,134.8,93.3C134.8,93.2,134.8,93.2,134.8,93.3c0.2,0,0.4,0.2,0.6,0.6c0,0,0,0,0,0c-0.3,0-0.7,0-1,0
		c0-0.1,0.1-0.1,0.1-0.2c0,0,0-0.1,0.1-0.1c0-0.1,0.1-0.1,0.1-0.1c0,0,0,0,0-0.1C134.7,93.3,134.7,93.3,134.8,93.3
		C134.7,93.3,134.8,93.3,134.8,93.3z M136,99.2c-0.8,0.1-1.5,0.1-2.3,0c-0.1-0.9-0.2-2.6,0.3-4.4c0.3,0,0.5,0.1,0.8,0.1
		c0.3,0,0.5,0,0.8-0.1C136.2,96.6,136.1,98.3,136,99.2z M137.3,95.4c-0.1,0.1-0.3,0.2-0.4,0.6l0,0.1c-0.1-0.5-0.2-1.1-0.3-1.7l0,0
		l-0.2-0.5c-0.1-0.2-0.1-0.4-0.2-0.6l-0.1-0.1c-0.2-0.4-0.7-1.1-1.4-1.1c0,0,0,0,0,0c-0.5,0-1,0.4-1.4,1.2c0,0,0,0,0,0
		c-0.1,0.2-0.1,0.4-0.2,0.5l-0.2,0.5l0,0c-0.1,0.6-0.3,1.1-0.3,1.6l0-0.2c0-0.3-0.2-0.5-0.4-0.6c-0.1-0.1-0.4-0.1-0.7,0.1l-0.1,0.1
		c0.4-0.4,0.7-0.8,1.1-1.3l0,0l0.3-0.4c0.1-0.2,0.2-0.3,0.4-0.6c0.2-0.3,0.5-1.2,0-1.8c-0.3-0.4-0.8-0.5-1.6-0.4l0,0c0,0,0,0,0,0
		l-0.2,0l0,0c-0.2,0.1-0.4,0.1-0.6,0.2l-0.5,0.2l0,0c-0.5,0.2-1.1,0.5-1.5,0.8l0.1-0.1c0.2-0.2,0.3-0.5,0.2-0.7
		c0-0.1-0.1-0.4-0.5-0.5l-0.1,0c0.5,0,1.1,0.1,1.7,0l0,0l0.5,0c0.2,0,0.4,0,0.7-0.1l0.1,0c0.4-0.1,1.2-0.4,1.4-1.1
		c0.1-0.5-0.1-1-0.8-1.5l-0.2-0.1c-0.2-0.1-0.3-0.2-0.5-0.3l-0.4-0.3l0,0c-0.5-0.3-1-0.5-1.5-0.7l0.2,0c0.3,0,0.5-0.1,0.7-0.3
		c0.1-0.1,0.2-0.4,0.1-0.7l-0.1-0.1c0.3,0.4,0.6,0.9,1,1.4l0,0l0.3,0.4c0.1,0.1,0.3,0.3,0.4,0.4l0,0c0,0,0.1,0.1,0.2,0.1
		c0,0,0,0,0.1,0c0.1,0.1,0.2,0.1,0.3,0.2c0,0,0,0,0,0c0.1,0,0.2,0.1,0.3,0.1c0,0,0,0,0.1,0c0.1,0,0.3,0.1,0.4,0.1c0,0,0,0,0,0
		c0,0,0.1,0,0.1,0c0,0,0.1,0,0.1,0c0.1,0,0.2,0,0.3-0.1c0.1-0.1,0.2-0.1,0.3-0.2c0.3-0.3,0.4-0.8,0.4-1.5c0,0,0,0,0,0c0,0,0,0,0,0
		c0-0.2,0-0.4-0.1-0.6l-0.1-0.5l0,0c-0.1-0.6-0.2-1.1-0.4-1.6l0.1,0.2c0.2,0.2,0.4,0.3,0.6,0.4c0.1,0,0.4-0.1,0.6-0.4l0.1-0.1
		c-0.2,0.5-0.3,1.1-0.4,1.6l0,0l-0.1,0.5c0,0.2-0.1,0.4-0.1,0.7v0.1h0c0,0.3,0,1.3,0.8,1.7c0.1,0.1,0.3,0.1,0.4,0.1c0,0,0,0,0.1,0
		c0,0,0,0,0.1,0c0.1,0,0.2,0,0.3,0c0,0,0.1,0,0.1,0c0.1,0,0.3-0.1,0.4-0.2l0,0l0.4-0.3l0.1-0.1l0,0c0.1-0.1,0.3-0.3,0.4-0.4l0.3-0.4
		l0,0c0.4-0.5,0.8-0.9,1-1.4l-0.1,0.2c-0.1,0.3,0,0.5,0.1,0.7c0.1,0.1,0.3,0.3,0.7,0.2l0.1,0c-0.5,0.2-1,0.4-1.6,0.7l0,0l-0.4,0.3
		c-0.2,0.1-0.3,0.2-0.5,0.3c-0.2,0.1-1,0.9-0.9,1.7c0.1,0.5,0.6,0.9,1.4,1.1l0,0c0.2,0,0.4,0,0.6,0.1l0.5,0l0,0c0.6,0,1.2,0,1.7,0
		l-0.2,0c-0.3,0.1-0.4,0.3-0.5,0.5c0,0.1,0,0.4,0.3,0.7l0.1,0.1c-0.5-0.3-1-0.5-1.5-0.8l0,0l-0.5-0.2c-0.2-0.1-0.4-0.1-0.6-0.2
		c-0.2-0.1-1.3-0.3-1.9,0.4c-0.3,0.4-0.3,1,0.1,1.9c0.1,0.2,0.2,0.3,0.3,0.5l0.3,0.4l0,0c0.4,0.5,0.7,0.9,1.1,1.3l-0.2-0.1
		C137.8,95.3,137.5,95.3,137.3,95.4z M137.4,92.9c0-0.1-0.1-0.1-0.1-0.2c0,0,0-0.1,0-0.1c0-0.1,0-0.1,0-0.2c0,0,0,0,0-0.1
		c0,0,0-0.1,0-0.1c0,0,0,0,0,0c0,0,0-0.1,0-0.1c0.1-0.1,0.2-0.1,0.4-0.1c0.1,0,0.3,0,0.4,0C137.8,92.4,137.6,92.6,137.4,92.9z
		 M137.8,98.8l0.1-2.1l1.7,1.3C139.1,98.3,138.5,98.5,137.8,98.8z M141.3,96.6c0,0-0.1,0.1-0.1,0.1c-0.8-0.5-2.1-1.5-3.2-3
		c0.4-0.4,0.8-0.8,1-1.3c1.8,0.8,3,1.8,3.7,2.5C142.2,95.5,141.8,96.1,141.3,96.6z M143.4,93.2l-1.6-1.4l2.1-0.5
		C143.8,91.9,143.6,92.6,143.4,93.2z"/>
	<path class="st0" d="M134.9,88.3c-1,0-1.9,0.8-1.9,1.9s0.8,1.9,1.9,1.9s1.9-0.8,1.9-1.9S135.9,88.3,134.9,88.3z M134.9,91.1
		c-0.5,0-0.9-0.4-0.9-0.9c0-0.5,0.4-0.9,0.9-0.9s0.9,0.4,0.9,0.9C135.7,90.7,135.3,91.1,134.9,91.1z"/>
</g>
</svg>
