<?xml version="1.0" encoding="utf-8"?>
<!-- Generator: Adobe Illustrator 21.1.0, SVG Export Plug-In . SVG Version: 6.00 Build 0)  -->
<svg version="1.1" id="Layer_1" xmlns="http://www.w3.org/2000/svg" xmlns:xlink="http://www.w3.org/1999/xlink" x="0px" y="0px"
	 width="160px" height="160px" viewBox="0 0 160 160" style="enable-background:new 0 0 160 160;" xml:space="preserve">
<style type="text/css">
	.st0{fill:#FFFFFF;}
	.st1{clip-path:url(#SVGID_2_);}
</style>
<g>
	<path class="st0" d="M129.8,115.1h-100c-0.4,0-0.8-0.3-0.8-0.8V47.7c0-0.4,0.3-0.8,0.8-0.8h100c0.4,0,0.8,0.3,0.8,0.8v66.7
		C130.6,114.7,130.2,115.1,129.8,115.1z M30.6,113.6h98.5V48.4H30.6V113.6z"/>
</g>
<g>
	<defs>
		<rect id="SVGID_1_" x="29.8" y="47.7" width="100" height="66.7"/>
	</defs>
	<clipPath id="SVGID_2_">
		<use xlink:href="#SVGID_1_"  style="overflow:visible;"/>
	</clipPath>
	<g class="st1">
		<g>
			<path class="st0" d="M129.9,66.1c-0.1,0-0.1,0-0.2,0l-4.5-1.1c-0.2,0-0.3-0.2-0.4-0.3l-0.8-1.2l-2,0.6c-0.1,0-0.3,0-0.4,0
				l-26.2-6.5c-0.2-0.1-0.4-0.2-0.5-0.4l-0.5-1.1l-2,0.7c-0.1,0-0.3,0.1-0.4,0l-20-5c-0.2-0.1-0.4-0.2-0.5-0.4l-0.4-0.9l-1.5,0.6
				c-0.1,0.1-0.3,0.1-0.4,0l-11-2.8c-0.4-0.1-0.6-0.5-0.5-0.9c0.1-0.4,0.5-0.6,0.9-0.5l10.8,2.7l1.9-0.7c0.4-0.1,0.8,0,0.9,0.4
				l0.6,1.2l19.4,4.9l2.5-0.8c0.4-0.1,0.8,0.1,0.9,0.4l0.6,1.4l25.6,6.4l2.3-0.7c0.3-0.1,0.7,0,0.9,0.3l1,1.5l4.2,1
				c0.4,0.1,0.6,0.5,0.5,0.9C130.6,65.8,130.3,66.1,129.9,66.1z"/>
		</g>
		<g>
			<path class="st0" d="M130.2,84.3c-0.1,0-0.2,0-0.2,0l-27.2-8.7c-0.2-0.1-0.4-0.2-0.5-0.4l-0.6-1.5l-2.3,0.7c-0.1,0-0.3,0-0.5,0
				L76,67.1c-0.2-0.1-0.4-0.3-0.5-0.5l-0.3-1.1l-1.8,0.6c-0.2,0.1-0.3,0.1-0.5,0l-18.3-5.8c-0.3-0.1-0.5-0.3-0.5-0.6L54,59.1l-1,0.5
				c-0.2,0.1-0.4,0.1-0.6,0l-15.6-5c-0.3-0.1-0.5-0.4-0.5-0.7l-0.8,0.2c-0.1,0-0.3,0-0.4,0l-6-1.9c-0.4-0.1-0.6-0.5-0.5-0.9
				c0.1-0.4,0.5-0.6,0.9-0.5l5.9,1.9l1.5-0.3c0.2,0,0.5,0,0.6,0.2c0.2,0.1,0.3,0.4,0.3,0.6l0,0.3l14.8,4.7l1.6-0.8
				c0.2-0.1,0.5-0.1,0.7,0c0.2,0.1,0.4,0.3,0.4,0.5l0.2,1.1l17.6,5.6l2.4-0.8c0.2-0.1,0.4-0.1,0.6,0.1c0.2,0.1,0.3,0.3,0.4,0.5
				l0.4,1.5l22.3,7.1l2.7-0.8c0.4-0.1,0.8,0.1,0.9,0.4l0.8,1.8l26.9,8.6c0.4,0.1,0.6,0.5,0.5,0.9C130.8,84.1,130.5,84.3,130.2,84.3z
				"/>
		</g>
		<g>
			<path class="st0" d="M130.1,105.1c-0.1,0-0.2,0-0.3-0.1l-18.7-7.4c-0.2-0.1-0.4-0.3-0.4-0.5l-0.6-1.9l-2.4,0.8
				c-0.2,0.1-0.4,0.1-0.5,0L80.8,85.7c-0.2-0.1-0.4-0.3-0.5-0.5L80,83.7l-1.9,0.8c-0.2,0.1-0.4,0.1-0.6,0l-20.4-8
				c-0.2-0.1-0.4-0.3-0.5-0.5l-0.3-1.1L55,75.3c-0.2,0.1-0.4,0.1-0.5,0l-16.8-6.6c-0.3-0.1-0.5-0.4-0.5-0.7l0-0.4L36.3,68
				c-0.2,0.1-0.4,0.1-0.5,0l-6.6-2.6c-0.4-0.2-0.6-0.6-0.4-1c0.2-0.4,0.6-0.6,1-0.4l6.4,2.5l1.5-0.5c0.2-0.1,0.5,0,0.7,0.1
				c0.2,0.1,0.3,0.3,0.3,0.6l0,0.9l16.1,6.3l1.9-0.7c0.2-0.1,0.4-0.1,0.6,0c0.2,0.1,0.3,0.3,0.4,0.5l0.4,1.5l19.8,7.8l2.5-1
				c0.2-0.1,0.4-0.1,0.6,0c0.2,0.1,0.3,0.3,0.4,0.5l0.4,2l25.7,10.1l2.9-1c0.2-0.1,0.4-0.1,0.6,0c0.2,0.1,0.3,0.3,0.4,0.4l0.7,2.3
				l18.3,7.2c0.4,0.2,0.6,0.6,0.4,1C130.6,104.9,130.4,105.1,130.1,105.1z"/>
		</g>
		<g>
			<path class="st0" d="M100.9,115.2c-0.1,0-0.2,0-0.3-0.1l-14.2-6.8c-0.2-0.1-0.4-0.3-0.4-0.5l-0.3-1.4l-1.6,0.6
				c-0.2,0.1-0.4,0.1-0.6,0l-24-11.4c-0.2-0.1-0.4-0.4-0.4-0.6l-0.1-1.1l-1.5,0.6c-0.2,0.1-0.4,0.1-0.6,0l-18.6-8.9
				c-0.3-0.1-0.4-0.4-0.4-0.7l0-0.6l-1.1,0.3c-0.2,0.1-0.4,0-0.5,0l-7.1-3.4c-0.4-0.2-0.5-0.6-0.4-1c0.2-0.4,0.6-0.5,1-0.4l6.8,3.2
				l1.9-0.6c0.2-0.1,0.5,0,0.7,0.1c0.2,0.1,0.3,0.4,0.3,0.6l0,1.1l17.9,8.5l2.1-0.8c0.2-0.1,0.5-0.1,0.7,0.1
				c0.2,0.1,0.3,0.3,0.3,0.6l0.1,1.7l23.3,11.1l2.2-0.8c0.2-0.1,0.4-0.1,0.6,0.1s0.3,0.3,0.4,0.5l0.3,1.9l13.9,6.6
				c0.4,0.2,0.5,0.6,0.4,1C101.5,115,101.2,115.2,100.9,115.2z"/>
		</g>
		<g>
			<path class="st0" d="M56.7,115.2c-0.1,0-0.3,0-0.4-0.1l-17.2-9.9c-0.2-0.1-0.4-0.4-0.4-0.6l0-1.2l-1.6,0.4c-0.2,0-0.4,0-0.5-0.1
				l-7.3-4.2c-0.4-0.2-0.5-0.7-0.3-1c0.2-0.4,0.7-0.5,1-0.3l7,4l2.2-0.5c0.2-0.1,0.4,0,0.6,0.1c0.2,0.1,0.3,0.3,0.3,0.6l0.1,1.7
				l16.9,9.7c0.4,0.2,0.5,0.7,0.3,1C57.2,115,57,115.2,56.7,115.2z"/>
		</g>
		<g>
			<path class="st0" d="M130,50.3c0,0-0.1,0-0.1,0l-10.4-1.9c-0.4-0.1-0.7-0.5-0.6-0.9s0.5-0.7,0.9-0.6l10.4,1.9
				c0.4,0.1,0.7,0.5,0.6,0.9C130.7,50.1,130.4,50.3,130,50.3z"/>
		</g>
		<g>
			<path class="st0" d="M39.4,103.2c-0.1,0-0.3,0-0.4-0.1c-0.3-0.2-0.4-0.7-0.2-1L47.7,89c0.2-0.3,0.7-0.4,1-0.2
				c0.3,0.2,0.4,0.7,0.2,1L40,102.9C39.9,103.1,39.7,103.2,39.4,103.2z"/>
		</g>
		<g>
			<path class="st0" d="M63.5,115.1c-0.1,0-0.3,0-0.4-0.1c-0.4-0.2-0.5-0.7-0.3-1l8.3-13.8c0.2-0.4,0.7-0.5,1-0.3
				c0.4,0.2,0.5,0.7,0.3,1l-8.2,13.8C64,115,63.8,115.1,63.5,115.1z"/>
		</g>
		<g>
			<path class="st0" d="M86.3,106.1c-0.1,0-0.2,0-0.3-0.1c-0.4-0.2-0.5-0.6-0.3-1l8-15.2c0.2-0.4,0.6-0.5,1-0.3
				c0.4,0.2,0.5,0.6,0.3,1l-8,15.2C86.9,106,86.6,106.1,86.3,106.1z"/>
		</g>
		<g>
			<path class="st0" d="M124.3,115.1c-0.1,0-0.2,0-0.3-0.1c-0.4-0.2-0.6-0.6-0.4-1l4.6-10.6c0.2-0.4,0.6-0.6,1-0.4
				c0.4,0.2,0.6,0.6,0.4,1l-4.6,10.6C124.8,115,124.5,115.1,124.3,115.1z"/>
		</g>
		<g>
			<path class="st0" d="M110.6,95.1c-0.1,0-0.2,0-0.3-0.1c-0.4-0.2-0.5-0.6-0.3-1l7.2-14.7c0.2-0.4,0.6-0.5,1-0.3
				c0.4,0.2,0.5,0.6,0.3,1l-7.2,14.7C111.1,94.9,110.9,95.1,110.6,95.1z"/>
		</g>
		<g>
			<path class="st0" d="M80.6,83.4c-0.1,0-0.3,0-0.4-0.1c-0.4-0.2-0.5-0.7-0.3-1l7.3-12.5c0.2-0.4,0.7-0.5,1-0.3
				c0.4,0.2,0.5,0.7,0.3,1L81.2,83C81.1,83.3,80.8,83.4,80.6,83.4z"/>
		</g>
		<g>
			<path class="st0" d="M56.9,74.6c-0.1,0-0.3,0-0.4-0.1c-0.3-0.2-0.4-0.7-0.2-1l7.8-11.2c0.2-0.3,0.7-0.4,1-0.2
				c0.3,0.2,0.4,0.7,0.2,1l-7.8,11.2C57.4,74.5,57.2,74.6,56.9,74.6z"/>
		</g>
		<g>
			<path class="st0" d="M37.8,67.4c-0.2,0-0.3-0.1-0.5-0.2C37,67,37,66.5,37.2,66.2l7.9-10c0.3-0.3,0.7-0.4,1.1-0.1
				c0.3,0.3,0.4,0.7,0.1,1.1l-7.9,10C38.3,67.3,38.1,67.4,37.8,67.4z"/>
		</g>
		<g>
			<path class="st0" d="M38.7,83.9c-0.2,0-0.3,0-0.4-0.1c-0.3-0.2-0.4-0.7-0.2-1l8.3-11.4c0.2-0.3,0.7-0.4,1-0.2
				c0.3,0.2,0.4,0.7,0.2,1l-8.3,11.4C39.2,83.8,39,83.9,38.7,83.9z"/>
		</g>
		<g>
			<path class="st0" d="M54.6,58.7c-0.2,0-0.3,0-0.5-0.2c-0.3-0.3-0.4-0.7-0.1-1.1l7.3-9.7c0.2-0.3,0.7-0.4,1.1-0.1
				c0.3,0.3,0.4,0.7,0.1,1.1l-7.3,9.7C55,58.6,54.8,58.7,54.6,58.7z"/>
		</g>
		<g>
			<path class="st0" d="M37.2,53.7c-0.2,0-0.3-0.1-0.5-0.2c-0.3-0.3-0.4-0.7-0.1-1.1l4.4-5.3c0.3-0.3,0.7-0.4,1.1-0.1
				c0.3,0.3,0.4,0.7,0.1,1.1l-4.4,5.3C37.6,53.6,37.4,53.7,37.2,53.7z"/>
		</g>
		<g>
			<path class="st0" d="M75.7,65.2c-0.1,0-0.3,0-0.4-0.1c-0.3-0.2-0.4-0.7-0.2-1l7.1-10.9c0.2-0.3,0.7-0.4,1-0.2
				c0.3,0.2,0.4,0.7,0.2,1l-7.1,10.9C76.2,65.1,76,65.2,75.7,65.2z"/>
		</g>
		<g>
			<path class="st0" d="M102.1,73.5c-0.1,0-0.2,0-0.4-0.1c-0.4-0.2-0.5-0.7-0.3-1l6.9-12.6c0.2-0.4,0.7-0.5,1-0.3
				c0.4,0.2,0.5,0.7,0.3,1l-6.9,12.6C102.6,73.3,102.3,73.5,102.1,73.5z"/>
		</g>
		<g>
			<path class="st0" d="M124.3,63.2c-0.1,0-0.2,0-0.4-0.1c-0.4-0.2-0.5-0.7-0.3-1l5.7-10.2c0.2-0.4,0.7-0.5,1-0.3
				c0.4,0.2,0.5,0.7,0.3,1L125,62.8C124.8,63.1,124.6,63.2,124.3,63.2z"/>
		</g>
		<g>
			<path class="st0" d="M94.9,55.7c-0.1,0-0.3,0-0.4-0.1c-0.4-0.2-0.5-0.7-0.2-1l6-9.8c0.2-0.4,0.7-0.5,1-0.2c0.4,0.2,0.5,0.7,0.2,1
				l-6,9.8C95.4,55.6,95.2,55.7,94.9,55.7z"/>
		</g>
		<g>
			<path class="st0" d="M71.6,50.1c-0.2,0-0.3-0.1-0.5-0.2c-0.3-0.3-0.4-0.7-0.1-1.1l2.9-3.5c0.3-0.3,0.7-0.4,1.1-0.1
				s0.4,0.7,0.1,1.1l-2.9,3.5C72,50.1,71.8,50.1,71.6,50.1z"/>
		</g>
	</g>
</g>
</svg>
