<?xml version="1.0" encoding="utf-8"?>
<!-- Generator: Adobe Illustrator 22.0.1, SVG Export Plug-In . SVG Version: 6.00 Build 0)  -->
<svg version="1.1" id="Layer_1" xmlns="http://www.w3.org/2000/svg" xmlns:xlink="http://www.w3.org/1999/xlink" x="0px" y="0px"
	 width="160px" height="160px" viewBox="0 0 160 160" style="enable-background:new 0 0 160 160;" xml:space="preserve">
<style type="text/css">
	.st0{fill:#FFFFFF;}
</style>
<g id="Q1K2Bu.tif">
	<g>
		<g>
			<path class="st0" d="M155,50.7c-2.3,0.2-4.6,0.5-6.9,0.8c-2.3,0.3-4.6,0.6-6.9,1c-2.1,0.3-4.1,0.7-6.1,1.1
				c-3.4,0.6-6.8,1.3-10.1,2c-6.6,1.5-13.1,3.2-19.6,5.2c-6.8,2.1-13.6,4.5-20.2,7.2c-4.1,1.7-8.1,3.4-12,5.3
				c-6.7,3.2-13.2,6.7-19.5,10.6C48.1,87.3,42.8,91,37.7,95c-3.1,2.4-6.2,5-9.1,7.6c-2.3,2.1-4.6,4.2-6.8,6.4
				c-0.1,0.1-0.2,0.2-0.3,0.3c-0.1,0.1-0.3,0-0.4,0c-4.9,0-9.7,0-14.6,0c-0.2,0-0.3-0.1-0.4-0.2c-0.3-0.6-0.8-1.1-1-1.7
				c0-0.1,0-0.1,0-0.2c0.7-0.5,1.3-1.2,2-1.8c2.6-2.4,5.3-4.7,8.1-7c3.9-3.1,7.9-6,12-8.8c4.2-2.8,8.5-5.4,12.9-7.9
				c3.7-2.1,7.5-4,11.4-5.9c4.2-2,8.5-3.9,12.9-5.7c5.3-2.2,10.7-4.1,16.2-5.9c6.8-2.2,13.7-4.1,20.6-5.8c4-1,7.9-1.8,11.9-2.6
				c3.5-0.7,7.1-1.3,10.7-1.9c2.8-0.4,5.6-0.8,8.4-1.2c2.5-0.3,5-0.6,7.5-0.9c2-0.2,4-0.4,5.9-0.6c2.4-0.2,4.8-0.4,7.3-0.6
				c0.7-0.1,1.4-0.1,2.1-0.1C154.9,50.6,155,50.6,155,50.7z"/>
			<path class="st0" d="M72.2,109.3c-5.5,0-11,0-16.4,0c-0.2,0-0.4,0-0.5,0c-2.1-1.5-4.1-3-6.2-4.5c-3.3-2.4-6.5-4.8-9.8-7.1
				c-0.1-0.1-0.2-0.2-0.3-0.3c1.1-0.9,2.2-1.8,3.3-2.7c2-1.6,4-3.1,6-4.6c0.2-0.2,0.3-0.2,0.6,0c7.9,5.8,15.8,11.6,23.8,17.4
				c0.3,0.2,0.3,0.3,0.2,0.6C72.5,108.6,72.3,108.9,72.2,109.3z"/>
			<path class="st0" d="M36.3,81.1c-0.8,0.4-1.5,0.8-2.3,1.1c-3,1.5-5.9,3.1-8.8,4.8c-0.2,0.1-0.4,0.2-0.7,0
				c-6-4.4-12-8.7-17.9-13.1c-0.3-0.2-0.3-0.4-0.1-0.6c0.3-0.4,0.4-1.1,0.8-1.3c0.4-0.2,1-0.1,1.5-0.1c4.9,0,9.9,0,14.8,0
				c0.2,0,0.4,0,0.7,0.2c4,2.9,7.9,5.8,11.9,8.7C36.2,80.9,36.3,81,36.3,81.1z"/>
		</g>
	</g>
</g>
</svg>
