<?xml version="1.0" encoding="utf-8"?>
<!-- Generator: Adobe Illustrator 21.1.0, SVG Export Plug-In . SVG Version: 6.00 Build 0)  -->
<svg version="1.1" id="Layer_1" xmlns="http://www.w3.org/2000/svg" xmlns:xlink="http://www.w3.org/1999/xlink" x="0px" y="0px"
	 width="160px" height="160px" viewBox="0 0 160 160" style="enable-background:new 0 0 160 160;" xml:space="preserve">
<style type="text/css">
	.st0{fill:#FFFFFF;}
</style>
<g>
	<path class="st0" d="M29.2,61.2v51.5h101.5V61.2H29.2z M129.2,111.2H30.8V62.8h98.5V111.2z"/>
	<path class="st0" d="M80,103.8c9.2,0,16.8-7.5,16.8-16.8c0-9.2-7.5-16.8-16.8-16.8S63.2,77.8,63.2,87
		C63.2,96.2,70.8,103.8,80,103.8z M80,71.8c8.4,0,15.2,6.8,15.2,15.2c0,8.4-6.8,15.2-15.2,15.2S64.8,95.4,64.8,87
		C64.8,78.6,71.6,71.8,80,71.8z"/>
	<path class="st0" d="M45.5,107v0.8h69V107c0-5.8,4.7-10.5,10.5-10.5h0.8v-19H125c-5.8,0-10.5-4.7-10.5-10.5v-0.8h-69V67
		c0,5.8-4.7,10.5-10.5,10.5h-0.8v19H35C40.8,96.5,45.5,101.2,45.5,107z M35.8,79c6-0.4,10.9-5.2,11.2-11.2h66
		c0.4,6,5.2,10.9,11.2,11.2v16c-6,0.4-10.9,5.2-11.2,11.2H47c-0.4-6-5.2-10.9-11.2-11.2V79z"/>
	<path class="st0" d="M80,82.2l-1.8-2.2c0,0-3.1,0.1-6.1,1.5c0.8,1.2,2.3,1.7,2.3,1.7c0.1-1,0.8-1.3,3.1-1.3L80,95.6L82.4,82
		c2.3,0,3,0.3,3.1,1.3c0,0,1.5-0.6,2.3-1.7c-3-1.4-6.1-1.5-6.1-1.5L80,82.2z"/>
	<path class="st0" d="M80,79.4L80,79.4c2.5,0,5.3,0.4,8.2,1.6c0.4-0.7,0.5-1,0.5-1c-3.1-1.2-6.1-1.7-8.6-1.7c-2.5,0-5.5,0.4-8.6,1.7
		c0,0,0.1,0.4,0.5,1C74.7,79.8,77.5,79.4,80,79.4z"/>
	<path class="st0" d="M51.5,76.7c1.6,0,2.9-1.3,2.9-2.9s-1.3-2.9-2.9-2.9s-2.9,1.3-2.9,2.9S50,76.7,51.5,76.7z M51.5,72.4
		c0.8,0,1.4,0.6,1.4,1.4s-0.6,1.4-1.4,1.4s-1.4-0.6-1.4-1.4S50.8,72.4,51.5,72.4z"/>
	<path class="st0" d="M108.4,103c1.6,0,2.9-1.3,2.9-2.9s-1.3-2.9-2.9-2.9s-2.9,1.3-2.9,2.9S106.8,103,108.4,103z M108.4,98.8
		c0.8,0,1.4,0.6,1.4,1.4s-0.6,1.4-1.4,1.4s-1.4-0.6-1.4-1.4S107.6,98.8,108.4,98.8z"/>
	<rect x="35" y="54.2" class="st0" width="90" height="1.5"/>
	<rect x="45" y="47.2" class="st0" width="70" height="1.5"/>
</g>
</svg>
