<?xml version="1.0" encoding="utf-8"?>
<!-- Generator: Adobe Illustrator 21.1.0, SVG Export Plug-In . SVG Version: 6.00 Build 0)  -->
<svg version="1.1" id="Layer_1" xmlns="http://www.w3.org/2000/svg" xmlns:xlink="http://www.w3.org/1999/xlink" x="0px" y="0px"
	 width="160px" height="160px" viewBox="0 0 160 160" style="enable-background:new 0 0 160 160;" xml:space="preserve">
<style type="text/css">
	.st0{fill:#FFFFFF;}
</style>
<g>
	<path class="st0" d="M80,29.2C52,29.2,29.2,52,29.2,80c0,28,22.7,50.8,50.8,50.8S130.8,108,130.8,80C130.8,52,108,29.2,80,29.2z
		 M80,129.2c-27.2,0-49.2-22.1-49.2-49.2S52.8,30.8,80,30.8s49.2,22.1,49.2,49.2S107.2,129.2,80,129.2z"/>
	<path class="st0" d="M67.7,99.9l-0.4-0.6c-2.2-3.8-4.9-8.4-21-14.8c-0.2-0.1-0.5,0-0.7,0.1c-0.2,0.1-0.3,0.4-0.3,0.7v0.2
		c0,3.9,1,23.4,25,27.9c0,0,0.1,0,0.1,0c0.2,0,0.3-0.1,0.5-0.2c0.2-0.1,0.3-0.4,0.3-0.6v-4.1c0.2-1.2-0.2-4.1-2.5-7.2
		C68.3,100.9,68,100.4,67.7,99.9z M69.6,108.2c0,0.1,0,0.2,0,0.3v3.3c-20.5-4.3-22.7-20.3-22.8-25.4C61.5,92.3,64,96.6,66,100.1
		l0.4,0.6c0.3,0.5,0.6,1,1,1.6C69.8,105.5,69.7,108,69.6,108.2z"/>
	<path class="st0" d="M47.5,73.3c0.4,0.2,0.8,0.2,1.2,0.2c0.9,0,1.8-0.3,2.1-0.4c0.2-0.1,0.7-0.4,1.2-0.7c3.4-2.2,12.4-8.1,27.8-8.1
		h0.3c14.9,0,23.7,5.5,27.5,7.8l0.4,0.2c0.5,0.3,1,0.6,1.2,0.7c0.5,0.2,2,0.7,3.4,0.2c0.8-0.4,1.3-0.9,1.6-1.8
		c1.2-2.9-0.2-5.6-3.9-7.6c-4.1-2.2-4.2-5.1-4.2-5.5c-0.4-4-3.5-6.3-3.6-6.3c-8.3-6.6-21-6.5-22.4-6.5h-0.4
		c-1.4,0-14.2-0.1-22.4,6.5c-1,0.8-3.2,3-3.5,6.4c-0.3,2.3-1.7,4.1-4.1,5.5c-2.8,1.4-5.3,4.2-3.9,7.7C46.2,72.5,46.8,73.1,47.5,73.3
		z M50.4,65.2c2.9-1.6,4.6-3.8,4.9-6.6c0,0,0-0.1,0-0.1c0.2-2.8,2.1-4.7,3-5.4c7.2-5.8,18.5-6.1,21-6.1c0.2,0,0.3,0,0.4,0h0.4
		c1.4,0,13.6-0.1,21.4,6.2c0,0,2.6,2,3,5.2c0,0.7,0.2,4.2,4.9,6.8c2.1,1.1,4.3,3.1,3.3,5.7c-0.2,0.5-0.5,0.8-0.8,0.9
		c-0.8,0.3-1.8,0-2.1-0.2c-0.2-0.1-0.6-0.4-1.1-0.6l-0.4-0.2c-3.9-2.4-13-8-28.3-8h-0.3c-15.9,0-25.2,6.1-28.6,8.4
		c-0.5,0.3-0.9,0.6-1.1,0.6c-0.6,0.2-1.5,0.4-2.2,0.2c-0.2-0.1-0.5-0.2-0.8-0.9C45.9,67.8,49.3,65.8,50.4,65.2z"/>
	<path class="st0" d="M113.7,84.5c-15.9,6.3-18.7,11-21,14.8l-0.4,0.6c-0.3,0.5-0.6,1-0.9,1.5c-2.9,4-2.5,7.2-2.5,7.2v4.2
		c0,0.2,0.1,0.4,0.3,0.6c0.1,0.1,0.3,0.2,0.5,0.2c0,0,0.1,0,0.1,0c24-4.6,25-24.2,25-28.1v-0.2c0-0.2-0.1-0.5-0.3-0.6
		S114,84.4,113.7,84.5z M90.4,111.8v-3.1l0-0.3c0,0-0.3-2.8,2.2-6.3c0.4-0.5,0.7-1,1-1.5L94,100c2.1-3.5,4.7-7.8,19.2-13.7
		C113.1,91.3,111,107.4,90.4,111.8z"/>
	<path class="st0" d="M91.5,78.1c-4.4-2.1-8.9-2.1-8.9-2.1L80,79.1l-2.6-3.2c0,0-4.4,0.1-8.9,2.1c1.1,1.7,3.4,2.5,3.4,2.5
		c0.2-1.5,1.2-1.9,4.5-1.9L80,98.5l3.5-19.8c3.4,0,4.4,0.4,4.6,1.9C88.1,80.6,90.3,79.8,91.5,78.1z"/>
	<path class="st0" d="M67.4,75.9c0,0,0.2,0.5,0.7,1.5C72.3,75.6,76.4,75,80,75h0c3.6,0,7.7,0.6,11.9,2.4c0.6-1,0.7-1.5,0.7-1.5
		c-4.6-1.8-8.9-2.4-12.6-2.4C76.3,73.5,72,74.1,67.4,75.9z"/>
</g>
</svg>
