<?xml version="1.0" encoding="utf-8"?>
<!-- Generator: Adobe Illustrator 21.1.0, SVG Export Plug-In . SVG Version: 6.00 Build 0)  -->
<svg version="1.1" id="Layer_1" xmlns="http://www.w3.org/2000/svg" xmlns:xlink="http://www.w3.org/1999/xlink" x="0px" y="0px"
	 width="160px" height="160px" viewBox="0 0 160 160" style="enable-background:new 0 0 160 160;" xml:space="preserve">
<style type="text/css">
	.st0{fill:#FFFFFF;}
</style>
<g>
	<path class="st0" d="M128.6,74.2c-1.9-1.7-3.7-3.5-5.6-5.2c-2.2-2-4.3-4-6.5-6.1c-0.5-0.5-0.8-1-0.8-1.8c0-6.6,0-13.2,0-19.8v-4.2
		c0-1.2-0.1-1.4-1.4-1.4l-3.7,0c-7.4,0-14.8,0-22.2,0c-0.5,0-1.2-0.1-1.8-0.7c-1-1-2.1-1.9-3-2.8c-2.2-2-5.3-2-7.5,0l-0.8,0.7
		c-0.7,0.6-1.4,1.3-2.1,2c-0.5,0.5-1.2,0.8-2,0.8c0,0,0,0,0,0c-5.3,0-10.5,0-15.8,0c-1.9,0-3.7,0-5.6,0l-4.5,0
		c-1.1,0-1.3,0.2-1.3,1.3v1.7c0,7.5,0,14.9,0,22.4c0,0.7-0.2,1.2-0.7,1.7c-1.8,1.7-3.7,3.4-5.5,5.1c-2.2,2-4.3,4.1-6.5,6.1
		c-0.4,0.4-0.6,0.8-0.6,1.4c0,14.3,0,28.7,0,43v9.3c0,1.1,0.2,1.3,1.3,1.3l95.8,0c0.9,0,1.2-0.2,1.2-1.1v-7c0-15.2,0-30.4,0-45.6
		C129.1,74.9,129,74.5,128.6,74.2z M115.8,64.4L127,74.8L115.8,81V64.4z M76.5,34.4c1.1-1.3,2.3-1.9,3.5-1.9c1.2,0,2.4,0.6,3.5,1.9
		l1.2,1.4h-9.4L76.5,34.4z M45.7,37.4h68.5v44.3l-34.1,19l-34.4-19V37.4z M44.2,64.4V81L33,74.8L44.2,64.4z M78.5,101.7l-46,24.5
		V76.3L78.5,101.7z M121.7,127.5H33.5l46.6-24.9l45,24.8L121.7,127.5z M127.5,126.9l-45.8-25.3l45.8-25.3V126.9z"/>
	<path class="st0" d="M78.2,46.7c0,0-3.1,0.1-6.1,1.5c0.8,1.2,2.3,1.7,2.3,1.7c0.1-1,0.8-1.3,3.1-1.3L80,62.2l2.4-13.6
		c2.3,0,3,0.3,3.1,1.3c0,0,1.5-0.6,2.3-1.7c-3-1.4-6.1-1.5-6.1-1.5L80,48.8L78.2,46.7z"/>
	<path class="st0" d="M80,46L80,46c2.5,0,5.3,0.4,8.2,1.6c0.4-0.7,0.5-1,0.5-1C85.5,45.4,82.5,45,80,45c-2.5,0-5.5,0.4-8.6,1.7
		c0,0,0.1,0.4,0.5,1C74.7,46.4,77.5,46,80,46z"/>
	<path class="st0" d="M60.8,72.1h38.3c0.4,0,0.8-0.3,0.8-0.8s-0.3-0.8-0.8-0.8H60.8c-0.4,0-0.8,0.3-0.8,0.8S60.4,72.1,60.8,72.1z"/>
	<path class="st0" d="M99.9,79.7c0-0.4-0.3-0.8-0.8-0.8H60.8c-0.4,0-0.8,0.3-0.8,0.8s0.3,0.8,0.8,0.8h38.3
		C99.6,80.4,99.9,80.1,99.9,79.7z"/>
</g>
</svg>
