<?xml version="1.0" encoding="utf-8"?>
<!-- Generator: Adobe Illustrator 21.1.0, SVG Export Plug-In . SVG Version: 6.00 Build 0)  -->
<svg version="1.1" id="Layer_1" xmlns="http://www.w3.org/2000/svg" xmlns:xlink="http://www.w3.org/1999/xlink" x="0px" y="0px"
	 width="160px" height="160px" viewBox="0 0 160 160" style="enable-background:new 0 0 160 160;" xml:space="preserve">
<style type="text/css">
	.st0{fill:#FFFFFF;}
	.st1{fill:none;}
	.st2{fill:#00D000;}
</style>
<g>
	<path class="st0" d="M51.3,70.9c-0.2,0-2.9-0.2-4.3-0.7c-1.2-0.5-2.8-0.7-2.8-0.7c-0.3-0.1-0.6-0.3-0.6-0.6l-2.3-15
		c-2.5-18.7,1.5-31.6,1.5-31.8c0.1-0.2,0.2-0.4,0.4-0.5c0.1-0.1,3.2-1.3,8-1.3c4.9,0,7.6,1.3,7.7,1.3c0.2,0.1,0.3,0.3,0.4,0.5
		c4.2,13.7,2.3,31.8,2.3,32L60,69c0,0.3-0.3,0.6-0.6,0.7c0,0-1.6,0.2-3.3,0.7C54.1,70.9,51.4,70.9,51.3,70.9z M45,68.1
		c0.6,0.1,1.6,0.3,2.5,0.7c1,0.4,3.1,0.6,3.9,0.6c0,0,2.5,0,4.3-0.5c1.2-0.3,2.3-0.6,2.9-0.7L60.2,54c0-0.2,1.9-17.7-2.2-31.1
		c-0.8-0.3-3.1-1.1-6.8-1.1c-3.6,0-6.2,0.7-7.1,1c-0.6,2.2-3.6,14.1-1.4,30.7L45,68.1z"/>
</g>
<g>
	<path class="st0" d="M94,92.8h-2.9c-0.4,0-0.7-0.3-0.7-0.6L89,85.1c0,0,0-0.1,0-0.1V66.4c0-0.1,0-0.3,0.1-0.4
		c0.2-0.3,0.9-1.1,3.4-1.1c2.5,0,3.3,0.9,3.4,1c0.1,0.1,0.2,0.3,0.2,0.5v18.5c0,0,0,0.1,0,0.1l-1.2,7.1C94.7,92.5,94.4,92.8,94,92.8
		z M91.7,91.2h1.7l1.1-6.4V66.8c-0.3-0.1-0.9-0.4-2.1-0.4c-1.2,0-1.7,0.2-2,0.4v18.1L91.7,91.2z"/>
</g>
<g>
	<path class="st1" d="M73.3,123.4c-9-2.6-15.7-10.1-19.6-21.9c-0.3,10.9,2.3,19.7,7.4,25.4c3.7,4.2,8.8,6.6,14.3,6.8
		c4.2,0.2,7.6-1,10.1-3.3c1.4-1.3,2.5-3,3.4-5.1C84,125.7,78.8,125,73.3,123.4z"/>
	<path class="st0" d="M117.4,69.5c-4.4-7.8-11.3-12.8-19.5-14.4c-0.1-1.6-0.2-2.4-0.2-2.5c0-0.3-0.2-0.5-0.5-0.6
		c-0.1,0-2.2-0.7-4.6-0.7c-2.4,0-4.3,0.7-4.4,0.7c-0.2,0.1-0.3,0.2-0.4,0.4c-0.1,0.1-0.3,0.7-0.5,2.6c-6.4,1-12.8,3.8-18.5,8.4
		c-7.1,5.7-12.4,13.4-15.4,22.1c-0.9-8.4-0.6-15-0.6-15.2l-3-0.2c0,0.5-0.7,11.1,1.6,22.9c-0.3,1.7-0.5,3.4-0.6,5.1
		c-1.2,16.8,3.7,26.1,8,30.9c4.3,4.8,10.1,7.6,16.4,7.8c0.3,0,0.6,0,0.9,0c4.6,0,8.4-1.4,11.3-4.2c2-1.9,3.5-4.4,4.6-7.5
		c12.5-1.8,22.3-9.9,27.9-23.7C123.9,91.9,122.8,79.1,117.4,69.5z M85.5,130.5c-2.5,2.4-5.9,3.5-10.1,3.3
		c-5.5-0.2-10.5-2.7-14.3-6.8c-5.1-5.8-7.7-14.5-7.4-25.4c3.9,11.8,10.6,19.3,19.6,21.9c5.5,1.6,10.7,2.2,15.6,2
		C87.9,127.5,86.8,129.2,85.5,130.5z M117.3,100.3C114,108.2,107,119.5,93,122c0.7-3.2,1.1-6.9,1.1-11V92h-3v19
		c0,4.4-0.4,8.3-1.3,11.4c-4.6,0.4-9.8-0.1-15.8-1.9c-11.9-3.4-17.2-16-19.6-27.7c2-10.7,7.7-20.4,16.1-27.1
		c5.1-4.1,10.8-6.7,16.5-7.7c0,1.9,0,4.4,0.2,7.8c0.5,9.9,1.4,10.1,2,10.3c0.4,0.1,0.8-0.1,1-0.3L89,75c0.2-0.2,0.4-0.3,0.5-0.3
		c0.3,0,0.4,0.1,0.4,0.2c-0.1-0.2-0.7-1.4-1.1-9.1c-0.2-3.5-0.2-6-0.2-7.9c0-1.3,0.1-2.3,0.2-3c0.1-0.8,0.2-1.2,0.2-1.5
		c0.6-0.2,1.9-0.5,3.5-0.5c1.6,0,3,0.3,3.7,0.5c0,0.3,0.1,0.9,0.1,1.6c0,0.8,0.1,1.8,0.1,3c0,2,0,4.6-0.2,7.7c-0.4,7.7-1,9-1.2,9.2
		c0,0,0.2-0.1,0.4-0.1l-0.2,1.5c0.1,0,0.1,0,0.2,0c0.2,0,0.5-0.1,0.7-0.2c0.6-0.5,1.2-1.7,1.7-10.2c0.2-3,0.2-5.6,0.2-7.6
		c8.9,1.9,14,7.9,16.8,12.8C119.8,79.9,120.8,91.6,117.3,100.3z"/>
</g>
<g>
	<path class="st0" d="M120.1,101.2l-2.9-0.7c0-0.1,1.8-8.3,0.1-17.3c-2.2-11.8-9.1-19.4-20.5-22.6l0.8-2.9
		C127.6,66.2,120.2,100.8,120.1,101.2z"/>
</g>
<g>
	<path class="st0" d="M91.7,119.8c-17.7,0-28-10.4-29-29.3c-1.6-29.4,24.2-33,24.5-33.1l0.4,3c-1,0.1-23.3,3.4-21.9,29.9
		c0.6,12.1,5.7,26.4,26,26.4c0,0,0,0,0.1,0H92c4.4,0,16,0,22.9-11.6l2.6,1.5c-7.8,13.1-21.1,13.1-25.5,13.1H91.7
		C91.8,119.8,91.7,119.8,91.7,119.8z"/>
</g>
<g>
	<g>
		<path class="st2" d="M51.3,66.2c-0.4,0-0.8-0.3-0.8-0.8V51.5c0-0.4,0.3-0.8,0.8-0.8s0.8,0.3,0.8,0.8v13.9
			C52,65.9,51.7,66.2,51.3,66.2z"/>
	</g>
</g>
<g>
	<g>
		<path class="st0" d="M44,33c0,0.2,0.2,0.3,0.4,0.4h0.6l0,0v1.5h0.4v-1.5l0,0H46c0.2-0.1,0.3-0.2,0.4-0.4v0L44,33L44,33z"/>
	</g>
	<g>
		<path class="st0" d="M55.3,34.9c0.2-0.1,0.3-0.2,0.3-0.4H54l0-1.5l-0.4,0v1.9H55.3z"/>
	</g>
	<g>
		<path class="st0" d="M50.9,33.3h1.3c0.2-0.1,0.4-0.2,0.4-0.4l-2.1,0v1.1h1.7v0.4l-1.3,0c-0.2,0.1-0.4,0.2-0.5,0.4l0.1,0h2.1v-1.2
			h-1.7V33.3z"/>
	</g>
	<g>
		<polygon class="st0" points="56.5,33.7 56.5,34.9 56.8,34.9 56.8,34.1 58.2,34.1 58.2,34.9 58.5,34.9 58.5,33.7 		"/>
	</g>
	<g>
		<path class="st0" d="M47.6,33.3h1.4c0.2,0,0.3-0.2,0.4-0.4h-2.2C47.3,33.1,47.5,33.3,47.6,33.3"/>
	</g>
	<g>
		<path class="st0" d="M47.6,34.1h1.4c0.2,0,0.3-0.2,0.4-0.4h-2.2C47.3,33.9,47.5,34.1,47.6,34.1"/>
	</g>
	<g>
		<path class="st0" d="M47.6,34.9h1.4c0.2,0,0.3-0.2,0.4-0.4h-2.2C47.3,34.7,47.5,34.8,47.6,34.9"/>
	</g>
	<g>
		<path class="st0" d="M56.8,33.4h1.4c0.2,0,0.3-0.2,0.4-0.4h-2.2C56.4,33.1,56.6,33.3,56.8,33.4"/>
	</g>
</g>
</svg>
