<?xml version="1.0" encoding="utf-8"?>
<!-- Generator: Adobe Illustrator 21.1.0, SVG Export Plug-In . SVG Version: 6.00 Build 0)  -->
<svg version="1.1" id="Layer_1" xmlns="http://www.w3.org/2000/svg" xmlns:xlink="http://www.w3.org/1999/xlink" x="0px" y="0px"
	 width="160px" height="160px" viewBox="0 0 160 160" style="enable-background:new 0 0 160 160;" xml:space="preserve">
<style type="text/css">
	.st0{fill:#FFFFFF;}
</style>
<g>
	<path class="st0" d="M100.5,66.9c-1.5,0.7-2.7,1.7-3.8,2.6l-0.3,0.3c-0.8,0.7-1.7,1.4-2.4,2.3c-0.4,0.5-0.9,1.3-0.7,2.4
		c0.1,0.8,0.4,1.9,1,2.8c0.2,0.4,0.7,0.7,1.1,0.9c0.5,0.2,1,0.4,1.5,0.4c1.1,0.1,2.2,0.2,3.3,0.3l1.3,0.1c0,0,0,0,0,0
		c0.1,0,0.2,0,0.3-0.1c0.2,0,0.4,0,0.6,0c1.3,0,2.4-0.2,3.4-0.6c5.2-1.8,10.6-3.8,16.5-6.1c0.3-0.1,0.8-0.4,0.7-1.3
		c-0.6-3-1.6-5.9-2.9-9c-0.1-0.3-0.5-0.8-1.3-0.6c-0.5,0.1-1.1,0.3-1.6,0.4c-0.7,0.2-1.3,0.4-2,0.5c-4,1.1-7.9,2.2-11.9,3.4
		C102.4,66.1,101.4,66.4,100.5,66.9z M119.3,62.9C119.3,62.9,119.3,62.9,119.3,62.9l-0.2-0.7L119.3,62.9z M115.7,63.9
		c0.7-0.2,1.3-0.4,2-0.5c0.4-0.1,0.9-0.2,1.3-0.3c1.2,2.8,2.1,5.4,2.6,8.1c-5.8,2.2-11,4.2-16.2,6c-0.9,0.3-1.9,0.5-2.9,0.5
		c-0.2,0-0.4,0-0.6,0l-0.3,0c-0.1,0-0.2,0-0.3,0.1l-1-0.1c-1.1-0.1-2.2-0.2-3.3-0.3c-0.3,0-0.7-0.1-1-0.3c-0.2-0.1-0.4-0.3-0.5-0.4
		c-0.5-0.7-0.7-1.5-0.8-2.3c-0.1-0.4,0.1-0.8,0.4-1.2c0.6-0.8,1.3-1.4,2.1-2.1l0.3-0.3c1.1-0.9,2.2-1.8,3.5-2.4
		c0.9-0.4,1.8-0.7,2.7-1C107.8,66.1,111.7,65,115.7,63.9z"/>
	<path class="st0" d="M91.1,65.8c0.2,0.1,0.3,0.1,0.5,0.1c0.4,0,0.8-0.2,1-0.3l1.7-1c1.2-0.7,2.5-1.5,3.7-2.2
		c5.3-3.1,10.5-6,15.6-8.6c0.1,0,0.2-0.1,0.3-0.2l0.1-0.1c0.2-0.1,0.3-0.3,0.4-0.5c0-0.2,0-0.4-0.2-0.6c-5-6-11.2-10.4-18.4-13.2
		c-0.2-0.1-0.4,0-0.6,0c-0.2,0.1-0.3,0.3-0.4,0.5c0,0-0.1,0.2-0.1,0.2L94.6,41c-0.1,0.7-0.2,1.5-0.4,2.2l0,0.3
		c-0.4,2.3-0.8,4.6-1.3,6.8c-0.5,2.5-1,5-1.5,7.4c-0.3,1.4-0.6,2.7-0.9,4.1L90,63.8C89.8,64.7,90.2,65.5,91.1,65.8z M91.4,64.1
		l0.4-1.9c0.3-1.4,0.6-2.7,0.9-4.1c0.5-2.5,1-5,1.5-7.5c0.4-2.3,0.9-4.6,1.3-6.9l0-0.3c0.1-0.7,0.3-1.5,0.4-2.2l0.1-0.3
		c6.3,2.6,11.8,6.5,16.3,11.7c-5,2.6-10.1,5.4-15.3,8.4c-1.2,0.7-2.5,1.5-3.7,2.2l-1.7,1c-0.1,0.1-0.2,0.1-0.2,0.1
		c-0.1,0-0.1-0.1-0.1-0.1C91.4,64.3,91.4,64.2,91.4,64.1z"/>
	<path class="st0" d="M85.7,81.5c0.4-1.5,0.1-3.1-0.7-4.4s-2.1-2.2-3.6-2.6c-1.5-0.4-3.1-0.1-4.4,0.7c-1.3,0.8-2.2,2.1-2.6,3.6
		c-0.4,1.5-0.1,3.1,0.7,4.4c0.8,1.3,2.1,2.2,3.6,2.6C79.1,86,79.6,86,80,86c1.1,0,2.1-0.3,3-0.9C84.4,84.3,85.3,83.1,85.7,81.5z
		 M82.3,83.9c-1,0.6-2.1,0.8-3.2,0.5c-1.1-0.3-2.1-0.9-2.7-1.9c-0.6-1-0.8-2.1-0.5-3.2c0.3-1.1,0.9-2.1,1.9-2.7
		c0.7-0.4,1.5-0.6,2.2-0.6c0.3,0,0.7,0,1,0.1c1.1,0.3,2.1,0.9,2.7,1.9c0.6,1,0.8,2.1,0.5,3.2C83.9,82.3,83.3,83.3,82.3,83.9z"/>
	<path class="st0" d="M90.7,80.4c-0.8-0.2-1.7-0.1-2.4,0.4c-0.7,0.5-1.2,1.2-1.4,2c-0.2,0.8-0.1,1.7,0.4,2.4s1.2,1.2,2,1.4
		c0.2,0.1,0.5,0.1,0.7,0.1c1.5,0,2.8-1,3.1-2.5c0.2-0.8,0.1-1.7-0.4-2.4C92.2,81.1,91.5,80.6,90.7,80.4z M91.6,83.9
		c-0.2,0.9-1.1,1.5-2.1,1.3c-0.9-0.2-1.5-1.1-1.3-2c0.1-0.4,0.4-0.8,0.8-1.1c0.3-0.2,0.6-0.3,0.9-0.3c0.1,0,0.3,0,0.4,0
		c0.4,0.1,0.8,0.4,1.1,0.8C91.7,83,91.7,83.5,91.6,83.9z"/>
	<path class="st0" d="M84.5,69.1c-0.7,0.5-1.2,1.2-1.4,2c-0.4,1.7,0.7,3.4,2.4,3.9C85.7,75,86,75,86.2,75c1.5,0,2.8-1,3.1-2.5
		c0.2-0.8,0.1-1.7-0.4-2.4c-0.5-0.7-1.2-1.2-2-1.4C86.1,68.5,85.3,68.6,84.5,69.1z M87.9,72.2c-0.2,0.9-1.1,1.5-2,1.3
		c-0.9-0.2-1.5-1.1-1.3-2c0.1-0.4,0.4-0.8,0.8-1.1c0.3-0.2,0.6-0.3,0.9-0.3c0.1,0,0.3,0,0.4,0C87.5,70.4,88.1,71.3,87.9,72.2z"/>
	<path class="st0" d="M100.2,96.9c-0.6-0.8-1.2-1.5-1.9-2.1c-1.2-1-2.5-1.9-3.9-2.7c-0.9-0.5-1.8-1.1-2.9-1.4
		c-0.7-0.2-1.4-0.1-1.9,0.2c-0.6,0.4-1.2,0.8-1.9,1.3c-0.8,0.6-1.2,1.5-1.2,2.5c0,0.1,0,0.2,0,0.3c0,0.3,0,0.5,0.1,0.8l0.1,0.5
		c0.3,1.2,0.6,2.5,0.9,3.7c0.4,1.3,0.8,2.7,1.8,3.9c2.5,3.3,5.1,6.5,7.6,9.7l1.5,1.9c0.4,0.5,0.7,0.9,1.1,1.4
		c0.3,0.4,0.6,0.7,0.9,1.1c0.3,0.4,0.6,0.5,0.9,0.5c0.3,0,0.6-0.1,0.7-0.2c0.2-0.1,0.3-0.2,0.5-0.3c0.2-0.1,0.3-0.2,0.5-0.3
		c2.5-1.6,4.6-3.2,6.6-4.9c0.5-0.4,0.5-1,0.2-1.5C106.7,106.5,103.5,101.7,100.2,96.9z M102.2,116.5c-0.1,0.1-0.3,0.2-0.4,0.2
		c-0.1,0.1-0.2,0.1-0.3,0.2c-0.2-0.3-0.5-0.6-0.7-0.9c-0.4-0.5-0.7-0.9-1.1-1.4l-1.5-1.9c-2.5-3.2-5.1-6.5-7.6-9.7
		c-0.8-1-1.2-2.2-1.5-3.4c-0.3-1.2-0.6-2.4-0.9-3.6l-0.1-0.5c0-0.2-0.1-0.4-0.1-0.6c0-0.1,0-0.2,0-0.3c0-0.5,0.2-0.9,0.6-1.2
		c0.6-0.5,1.2-0.9,1.8-1.2c0.1,0,0.2-0.1,0.4-0.1c0.1,0,0.2,0,0.4,0.1c0.9,0.2,1.7,0.7,2.5,1.2c1.3,0.8,2.6,1.6,3.7,2.6
		c0.6,0.5,1.1,1.1,1.6,1.8c3.2,4.6,6.4,9.4,9.4,14.2C106.6,113.6,104.6,115.1,102.2,116.5z M108.6,111.8
		C108.6,111.8,108.6,111.8,108.6,111.8l0.5,0.6L108.6,111.8z"/>
	<path class="st0" d="M91.7,121.3c-3.5-7-6.5-13.5-9.2-19.9l-0.2-0.5c-0.3-0.6-0.5-1.2-0.8-1.8c-0.3-0.8-1.1-1.1-1.9-0.9
		c-0.8,0.2-1,0.8-1.2,1.3c-2.7,6.4-5.7,12.9-9.1,19.9l-1.2,2.4c-0.1,0.2-0.1,0.4,0,0.6c0.1,0.2,0.3,0.4,0.5,0.4
		c3.7,1,7.6,1.5,11.5,1.5c1,0,2,0,3.1-0.1c2.9-0.2,5.7-0.7,8.3-1.4c0.2-0.1,0.4-0.2,0.5-0.4c0.1-0.2,0.1-0.4,0-0.6L91.7,121.3z
		 M83,122.7C83,122.7,83,122.7,83,122.7c-4.5,0.3-8.9-0.1-13.2-1.1l0.8-1.6c3.4-7,6.4-13.5,9.2-20c0.1-0.2,0.1-0.3,0.2-0.3
		c0,0,0.1,0,0.1,0c0.3,0.6,0.5,1.2,0.8,1.8l0.2,0.5c2.7,6.3,5.7,12.7,9.1,19.5C87.9,122.1,85.5,122.5,83,122.7z"/>
	<path class="st0" d="M69.8,105.1c0.6-0.7,1.2-1.5,1.6-2.4c0.7-1.5,1.1-3,1.5-4.5l0.1-0.4c0.2-1,0.5-1.9,0.5-3c0-1-0.1-1.5-0.6-2.1
		c-0.7-0.7-1.5-1.3-2.5-1.8c-0.6-0.3-1.3-0.4-1.9-0.1l-0.3,0.1c-0.3,0.1-0.7,0.2-1.1,0.4c-1.5,0.9-2.7,1.6-3.8,2.4
		c-1.5,1-2.8,2.4-3.9,4c-0.3,0.5-0.6,0.9-0.9,1.3c-0.2,0.3-0.4,0.6-0.7,0.9l-7.6,11.5c-0.3,0.5-0.3,1,0.2,1.4c2.2,2,4.7,3.9,7.7,5.6
		c0.2,0.1,0.4,0.2,0.6,0.2c0.3,0,0.6-0.1,0.8-0.4c0.5-0.6,1-1.2,1.5-1.9c0.8-1,1.6-2,2.4-3c2-2.5,3.9-5,5.8-7.5L69.8,105.1z M68,105
		c-1.9,2.5-3.9,5-5.8,7.4c-0.8,1-1.6,2-2.4,3c-0.4,0.5-0.9,1-1.3,1.6c-2.6-1.5-4.8-3.2-6.8-5l7.4-11.2c0.2-0.3,0.4-0.6,0.6-0.9
		c0.3-0.5,0.6-0.9,0.9-1.4c0.9-1.5,2-2.6,3.4-3.5c1.1-0.7,2.3-1.5,3.8-2.3c0.2-0.1,0.5-0.2,0.8-0.3l0.4-0.1c0.2-0.1,0.5-0.1,0.8,0.1
		c0.8,0.4,1.5,0.9,2.1,1.5c0.2,0.2,0.2,0.3,0.2,1c0,0.9-0.2,1.7-0.4,2.6l-0.1,0.4c-0.3,1.4-0.8,2.9-1.4,4.2
		c-0.4,0.8-0.9,1.4-1.5,2.2L68,105z"/>
	<path class="st0" d="M130.7,79l0-0.2c0-0.1,0-0.2,0-0.3c0,0,0,0,0,0c0-2.1-0.2-4.2-0.6-6.5c-0.7-4.6-2.1-9-4-13.2
		C119.8,45.1,107.8,35,93.3,31c-2.6-0.7-5-1.2-7.3-1.4c-1-0.1-2-0.2-3.1-0.2c-0.5,0-1-0.1-1.5-0.1c-0.1,0-0.1,0-0.2,0l-0.1,0
		c0,0-0.1,0-0.1,0l-2,0l-0.2,0c-0.1,0-0.3,0-0.4,0c-10.6,0.4-20.3,3.8-28.7,10.1C40.9,45.9,34.9,54.5,31.5,65
		c-0.9,2.8-1.5,5.5-1.8,8.1c-0.1,1.2-0.2,2.4-0.3,3.6c0,0.6-0.1,1.1-0.1,1.7c0,0.1,0,0.3,0,0.4l0,0.3l0,1.9l0,0.2c0,0.1,0,0.2,0,0.3
		c0,2.1,0.2,4.2,0.6,6.5c0.7,4.6,2.1,9,4,13.2c6.3,13.7,18.3,23.8,32.8,27.8c2.6,0.7,5,1.2,7.3,1.4c1,0.1,2,0.2,3.1,0.2
		c0.5,0,1,0.1,1.5,0.1c0.1,0,0.1,0,0.2,0l0.1,0c0,0,0.1,0,0.1,0l2,0l0.2,0c0.1,0,0.2,0,0.3,0c8.3-0.2,16-2.4,22.9-6.3
		c12.2-6.9,20.4-17.3,24.4-30.8c0.7-2.5,1.2-5.1,1.5-7.7c0.1-1,0.2-2,0.2-3.1c0-0.5,0.1-1,0.1-1.5c0-0.1,0-0.2,0-0.3l0-0.1
		c0,0,0-0.1,0-0.1L130.7,79z M129.2,80.9c0,0.1,0,0.2,0,0.4c0,0.5-0.1,1-0.1,1.5c-0.1,1-0.1,2-0.2,3c-0.2,2.5-0.7,5-1.4,7.4
		c-3.8,13.1-11.8,23.2-23.7,29.9c-6.7,3.8-14.2,5.8-22.2,6.1c-0.2,0-0.3,0-0.5,0l-1.9,0l0,0c-0.1,0-0.2,0-0.4,0
		c-0.5,0-1-0.1-1.5-0.1c-1-0.1-2-0.1-3-0.2c-2.2-0.2-4.6-0.7-7.1-1.3c-14.1-3.8-25.7-13.7-31.9-27c-1.9-4.1-3.2-8.4-3.9-12.9
		c-0.3-2.2-0.5-4.2-0.6-6.3c0-0.2,0-0.3,0-0.5l0-1.8l0-0.2c0-0.2,0-0.3,0-0.5c0-0.6,0.1-1.1,0.1-1.7c0.1-1.2,0.2-2.4,0.3-3.5
		c0.3-2.5,0.9-5.1,1.7-7.9c3.2-10.2,9.1-18.5,17.6-24.8c8.2-6.1,17.6-9.4,27.9-9.8c0.2,0,0.3,0,0.5,0l2,0l0.1,0c0.1,0,0.2,0,0.3,0
		c0.5,0,1,0.1,1.5,0.1c1,0.1,2,0.1,3,0.2c2.3,0.2,4.6,0.7,7.1,1.3c14.1,3.8,25.8,13.7,31.9,27c1.9,4.1,3.2,8.4,3.9,12.9
		c0.3,2.2,0.5,4.3,0.6,6.3c0,0.2,0,0.3,0,0.5L129.2,80.9L129.2,80.9z"/>
	<path class="st0" d="M123.2,81.6l-2,0.3c-1,0.1-1.9,0.3-2.9,0.4c-1,0.1-2,0.3-3,0.4c-1.1,0.1-2.1,0.3-3.2,0.4
		c-0.9,0.1-1.8,0.2-2.8,0.3c-1,0.1-2,0.2-3,0.3c-0.9,0.1-1.7,0.2-2.6,0.3c-0.9,0.1-1.9,0.2-2.8,0.3c-0.8,0.1-1.6,0.2-2.4,0.2
		c-0.7,0.1-1.3,0.5-1.5,1.1c-0.1,0.4-0.2,1.1,0.6,1.8l1.7,1.5c1.6,1.4,3.3,2.9,5,4.4c2.6,2.5,5.3,4.9,7.9,7.4l3.4,3.2l0.3,0.3
		c0.1,0.1,0.3,0.2,0.5,0.2c0,0,0.1,0,0.1,0c0.2,0,0.4-0.2,0.5-0.3c4.3-6.7,6.6-13.8,7-21.7c0-0.2-0.1-0.4-0.2-0.6
		C123.6,81.7,123.4,81.6,123.2,81.6z M116.2,102.6l-3-2.9c-2.6-2.5-5.2-5-7.9-7.4c-1.6-1.5-3.3-3-5-4.4l-1.7-1.5
		c-0.2-0.2-0.2-0.2-0.1-0.3c0,0,0.1,0,0.1,0c0.8-0.1,1.6-0.1,2.4-0.2c0.9-0.1,1.9-0.2,2.8-0.3c0.9-0.1,1.7-0.2,2.6-0.3
		c1-0.1,2-0.2,3-0.3c0.9-0.1,1.8-0.2,2.8-0.3c1.1-0.1,2.1-0.3,3.2-0.4c1-0.1,2-0.3,3-0.4c1-0.1,1.9-0.3,2.9-0.4l1.1-0.2
		C122,90.3,119.9,96.6,116.2,102.6z"/>
	<path class="st0" d="M58.8,90.6l1.5-1.3c0.4-0.3,0.8-0.7,1.2-1c0.3-0.3,0.7-0.6,1-0.9c0.5-0.4,0.7-1.1,0.5-1.7
		c-0.2-0.6-0.7-1-1.3-1.1l-0.5,0c-0.6-0.1-1.3-0.1-1.9-0.2l-1.5-0.1c-0.9-0.1-1.7-0.2-2.6-0.2c-0.9-0.1-1.8-0.2-2.7-0.3l-2.8-0.3
		c-1-0.1-1.9-0.2-2.9-0.3c-1.5-0.2-3-0.4-4.5-0.6c-0.9-0.1-1.8-0.3-2.7-0.4l-2-0.3c-0.2,0-0.3,0-0.5-0.1l-0.2,0
		c-0.2,0-0.4,0.1-0.6,0.2C36.1,82,36,82.2,36,82.5c0.5,8,2.8,15.1,7,21.7c0.1,0.2,0.3,0.3,0.5,0.3c0,0,0.1,0,0.1,0
		c0.2,0,0.4-0.1,0.5-0.2l0.3-0.3l0,0l0.7-0.7c0.5-0.5,1-1,1.5-1.5l1.4-1.3c2.2-2.1,4.4-4.1,6.6-6.2C56.1,93,57.4,91.8,58.8,90.6z
		 M47.1,99.4l-1.4,1.3c-0.5,0.5-1,1-1.6,1.5l-0.4,0.4c-3.6-5.9-5.7-12.2-6.2-19.3l1.8,0.2c0.9,0.1,1.8,0.3,2.7,0.4
		c1.5,0.2,3,0.4,4.5,0.6c1,0.1,1.9,0.2,2.9,0.3l2.8,0.3c0.9,0.1,1.8,0.2,2.8,0.3c0.9,0.1,1.7,0.2,2.6,0.2l1.5,0.1
		c0.6,0.1,1.3,0.1,1.9,0.2l0.5,0.1l0,0.2c-0.3,0.3-0.7,0.6-1,0.9c-0.4,0.3-0.8,0.7-1.2,1l-1.5,1.3c-1.4,1.2-2.8,2.4-4.1,3.7
		C51.5,95.2,49.3,97.3,47.1,99.4z"/>
	<path class="st0" d="M75.5,62.1c0.4,1,0.8,1.9,1.4,2.6c0.2,0.3,0.8,1.1,1.9,1.2c0.6,0,1.2,0.1,1.8,0.1c0.1,0,0.2,0,0.3,0
		c1,0,1.8-0.5,2.4-1.3l0.1-0.1c0.2-0.3,0.4-0.6,0.6-1c0.8-1.6,1.5-3.4,2-5.3c0.4-1.3,0.5-2.5,0.5-3.7c0-1-0.1-2-0.1-3l0-1.8
		c0-0.6,0-1.2,0-1.9c0-1-0.1-2.1-0.1-3.1c-0.1-1.3-0.1-2.7-0.2-4l-0.2-3.5c0-0.4-0.3-0.7-0.7-0.7l-0.3,0c-0.2,0-0.4,0-0.6,0
		l-0.9-0.1c-0.7-0.1-1.5-0.1-2.2-0.1c-1.1,0-2.3,0-3.2,0c-0.6,0-1.2,0.1-1.9,0.1l-0.7,0.1c-0.7,0.1-1,0.6-1,1c0,0.8-0.1,1.7-0.1,2.5
		L74,42.9c-0.1,1.3-0.1,2.6-0.2,3.9c0,1.4-0.1,2.8-0.1,4.1l0,1.9l0,0.1c0,0.1,0,0.1,0,0.2l0,0.5c-0.1,1.3-0.1,2.7,0.3,4
		C74.4,59,74.8,60.4,75.5,62.1z M75.1,53.8l0-0.5c0,0,0,0,0,0l0-0.1c0-0.1,0-0.2,0-0.2l0-1.9c0-1.4,0.1-2.8,0.1-4.1
		c0-1.3,0.1-2.6,0.2-3.9l0.2-2.8c0-0.7,0.1-1.4,0.1-2.2l0.3,0c0.6-0.1,1.2-0.1,1.8-0.1c0.9,0,2-0.1,3.1,0c0.7,0,1.4,0.1,2.2,0.1
		l1.1,0.1l0.2,2.8c0.1,1.3,0.2,2.7,0.2,4c0.1,1,0.1,2.1,0.1,3.1c0,0.6,0,1.2,0,1.8l0,1.8c0,1,0.1,2,0.1,3c0,1-0.1,2-0.4,3.2
		c-0.5,1.8-1.2,3.5-1.9,5c-0.1,0.3-0.3,0.5-0.5,0.8L82,63.8c-0.3,0.4-0.6,0.6-1.1,0.6c-0.8,0-1.4,0-2-0.1c-0.2,0-0.4-0.1-0.8-0.6
		c-0.5-0.6-0.8-1.4-1.2-2.2c-0.6-1.7-1.1-3-1.5-4.3C75,56.2,75.1,55,75.1,53.8z"/>
	<path class="st0" d="M80.7,87.6c-1.7-0.4-3.4,0.7-3.9,2.4c-0.2,0.8-0.1,1.7,0.4,2.4s1.2,1.2,2,1.4c0.2,0.1,0.5,0.1,0.7,0.1
		c0.6,0,1.2-0.2,1.7-0.5c0.7-0.5,1.2-1.2,1.4-2c0.2-0.8,0.1-1.7-0.4-2.4S81.6,87.8,80.7,87.6z M81.7,91.1c-0.1,0.4-0.4,0.8-0.8,1.1
		c-0.4,0.2-0.8,0.3-1.3,0.2c-0.9-0.2-1.5-1.1-1.3-2c0.2-0.8,0.9-1.3,1.7-1.3c0.1,0,0.3,0,0.4,0C81.3,89.3,81.9,90.2,81.7,91.1z"/>
	<path class="st0" d="M73.2,74.8c0.2,0.1,0.5,0.1,0.7,0.1c0.6,0,1.2-0.2,1.7-0.5c0.7-0.5,1.2-1.2,1.4-2c0.2-0.8,0.1-1.7-0.4-2.4
		c-0.5-0.7-1.2-1.2-2-1.4c-1.7-0.4-3.4,0.7-3.9,2.4C70.4,72.7,71.4,74.4,73.2,74.8z M72.2,71.3c0.2-0.8,0.9-1.3,1.7-1.3
		c0.1,0,0.3,0,0.4,0c0.9,0.2,1.5,1.1,1.3,2c-0.2,0.9-1.1,1.5-2,1.3c-0.4-0.1-0.8-0.4-1.1-0.8S72.1,71.8,72.2,71.3z"/>
	<path class="st0" d="M46.1,53.5l0.2,0.1c0.1,0.1,0.2,0.1,0.3,0.2c5.8,3,11.8,6.3,17.7,9.8c0.6,0.4,1.2,0.7,1.8,1.1l1.5,0.9
		c0.3,0.2,0.6,0.3,0.9,0.3c0.5,0,1-0.2,1.3-0.7c0.4-0.5,0.3-1.1,0.2-1.5c-0.3-1.2-0.5-2.3-0.8-3.5c-0.6-2.6-1.2-5.3-1.7-8
		c-0.5-2.6-1-5.3-1.5-7.9c-0.2-1.2-0.4-2.3-0.6-3.5c0-0.2-0.1-0.4-0.1-0.7l-0.1-0.3c0-0.2-0.2-0.4-0.4-0.5c-0.2-0.1-0.4-0.1-0.6,0
		c-7.3,2.8-13.3,7.2-18.4,13.2c-0.1,0.2-0.2,0.4-0.2,0.6S45.9,53.4,46.1,53.5z M63.9,40.9C63.9,41,64,41,63.9,40.9
		c0.2,1.2,0.4,2.4,0.6,3.6c0.5,2.6,1,5.3,1.5,8c0.5,2.7,1.1,5.4,1.7,8c0.3,1.2,0.5,2.3,0.8,3.6c0,0.1,0,0.2,0.1,0.2
		c-0.1,0.1-0.1,0.1-0.3,0l-1.4-0.9c-0.6-0.4-1.2-0.7-1.8-1.1c-5.9-3.5-11.7-6.7-17.4-9.7C52.2,47.4,57.5,43.6,63.9,40.9z"/>
	<path class="st0" d="M66.9,82.7c-0.4,1.7,0.7,3.4,2.4,3.9c0.2,0.1,0.5,0.1,0.7,0.1c1.5,0,2.8-1,3.1-2.5c0.4-1.7-0.7-3.4-2.4-3.9
		c-0.8-0.2-1.7-0.1-2.4,0.4C67.6,81.2,67.1,81.9,66.9,82.7z M69.1,82c0.3-0.2,0.6-0.3,0.9-0.3c0.1,0,0.3,0,0.4,0
		c0.9,0.2,1.5,1.1,1.3,2c-0.1,0.4-0.4,0.8-0.8,1.1c-0.4,0.2-0.8,0.3-1.3,0.2c-0.4-0.1-0.8-0.4-1.1-0.8c-0.2-0.4-0.3-0.8-0.2-1.3
		C68.5,82.6,68.7,82.3,69.1,82z"/>
	<path class="st0" d="M37.7,72.4l4.5,1.7c3.5,1.3,7.1,2.6,10.6,3.9c1.5,0.6,3.1,1.1,4.8,1.1c0.1,0,0.1,0,0.2,0l0.9,0
		c0.7,0,1.3,0,2-0.1c1-0.1,2.1-0.2,3.1-0.4c1.2-0.2,2.1-0.9,2.5-2.1c0.2-0.6,0.4-1.2,0.5-1.9c0.2-0.7,0.1-1.4-0.4-2
		c-0.3-0.4-0.6-0.9-1-1.3c-1.1-1.1-2.4-2.2-4.1-3.4c-1.2-0.9-2.4-1.5-3.7-1.8c-0.6-0.2-1.2-0.3-1.7-0.5c-0.6-0.2-1.1-0.3-1.7-0.5
		c-2.2-0.6-4.4-1.2-6.7-1.8l-6.4-1.8c-0.6-0.2-1,0.1-1.2,0.6c-0.1,0.2-0.2,0.4-0.3,0.6c-0.1,0.2-0.1,0.3-0.2,0.5
		c-1,2.3-1.8,4.8-2.4,7.8l0,0C36.7,71.7,36.9,72.1,37.7,72.4z M40.7,63.7c0.1-0.2,0.1-0.3,0.2-0.5c0-0.1,0.1-0.2,0.1-0.3l6,1.7
		c2.2,0.6,4.4,1.2,6.7,1.8c0.6,0.2,1.1,0.3,1.7,0.5c0.6,0.2,1.2,0.4,1.8,0.5c1.1,0.3,2.2,0.8,3.3,1.6c1.6,1.2,2.9,2.2,3.9,3.3
		c0.3,0.3,0.5,0.7,0.8,1.1c0.1,0.2,0.2,0.5,0.1,0.7c-0.1,0.6-0.3,1.2-0.5,1.8c-0.2,0.6-0.6,0.9-1.3,1c-1,0.2-2,0.3-3,0.4
		c-0.6,0.1-1.3,0.1-1.9,0.1l-0.9,0c-1.6,0-3.1-0.5-4.5-1c-3.5-1.3-7-2.6-10.6-3.9L38.4,71C39.1,68.3,39.8,65.9,40.7,63.7z"/>
</g>
</svg>
