<?xml version="1.0" encoding="utf-8"?>
<!-- Generator: Adobe Illustrator 21.1.0, SVG Export Plug-In . SVG Version: 6.00 Build 0)  -->
<svg version="1.1" id="Layer_1" xmlns="http://www.w3.org/2000/svg" xmlns:xlink="http://www.w3.org/1999/xlink" x="0px" y="0px"
	 width="160px" height="160px" viewBox="0 0 160 160" style="enable-background:new 0 0 160 160;" xml:space="preserve">
<style type="text/css">
	.st0{fill:#FFFFFF;}
</style>
<g>
	<path class="st0" d="M74.7,77.8c-1,3,0.6,6.3,3.6,7.3c0.6,0.2,1.2,0.3,1.9,0.3c0.9,0,1.7-0.2,2.5-0.6c1.4-0.7,2.4-1.8,2.9-3.3
		c0.5-1.5,0.4-3-0.3-4.4s-1.8-2.4-3.3-2.9c-1.5-0.5-3-0.4-4.4,0.3C76.2,75.1,75.2,76.3,74.7,77.8z M80.1,75.4c0.5,0,0.9,0.1,1.4,0.2
		c1.1,0.4,1.9,1.1,2.4,2.2s0.6,2.2,0.2,3.3v0C83.8,82.1,83,83,82,83.5c-1,0.5-2.2,0.6-3.3,0.2c-2.2-0.8-3.4-3.2-2.6-5.4
		c0.4-1.1,1.1-1.9,2.2-2.4C78.9,75.5,79.5,75.4,80.1,75.4z"/>
	<path class="st0" d="M74.9,73.8c0.5,0,1-0.1,1.4-0.3c0.8-0.4,1.3-1,1.6-1.8c0.3-0.8,0.2-1.7-0.1-2.4c-0.4-0.8-1-1.3-1.8-1.6
		c-0.8-0.3-1.7-0.2-2.4,0.1c-0.8,0.4-1.3,1-1.6,1.8c-0.3,0.8-0.2,1.7,0.1,2.4c0.4,0.8,1,1.3,1.8,1.6C74.2,73.8,74.6,73.8,74.9,73.8z
		 M73.4,71.4c-0.2-0.4-0.2-0.9-0.1-1.3c0.1-0.4,0.5-0.8,0.9-1c0.2-0.1,0.5-0.2,0.7-0.2c0.2,0,0.4,0,0.6,0.1c0.4,0.1,0.8,0.5,1,0.9
		c0.2,0.4,0.2,0.9,0.1,1.3c-0.1,0.4-0.5,0.8-0.9,1c-0.4,0.2-0.9,0.2-1.3,0.1C73.9,72.1,73.6,71.8,73.4,71.4z"/>
	<path class="st0" d="M70.9,78.8c-0.8-0.3-1.7-0.2-2.4,0.1c-0.8,0.4-1.3,1-1.6,1.8c-0.3,0.8-0.2,1.7,0.1,2.4c0.4,0.8,1,1.3,1.8,1.6
		c0.3,0.1,0.7,0.2,1,0.2c1.3,0,2.6-0.8,3-2.2c0.3-0.8,0.2-1.7-0.1-2.4C72.4,79.7,71.8,79.1,70.9,78.8z M71.5,82.4
		c-0.3,0.9-1.3,1.4-2.2,1c-0.4-0.1-0.8-0.5-1-0.9c-0.2-0.4-0.2-0.9-0.1-1.3c0.1-0.4,0.5-0.8,0.9-1c0.2-0.1,0.5-0.2,0.7-0.2
		c0.2,0,0.4,0,0.6,0.1c0.4,0.1,0.8,0.5,1,0.9S71.7,82,71.5,82.4z"/>
	<path class="st0" d="M82.1,91.1c0.3-0.8,0.2-1.7-0.1-2.4c-0.4-0.8-1-1.3-1.8-1.6c-1.7-0.6-3.5,0.3-4.1,2c-0.3,0.8-0.2,1.7,0.1,2.4
		c0.4,0.8,1,1.3,1.8,1.6c0.3,0.1,0.7,0.2,1,0.2c0.5,0,1-0.1,1.4-0.3C81.2,92.5,81.8,91.9,82.1,91.1z M80.7,90.6
		c-0.1,0.4-0.5,0.8-0.9,1c-0.4,0.2-0.9,0.2-1.3,0.1c-0.4-0.1-0.8-0.5-1-0.9s-0.2-0.9-0.1-1.3c0.2-0.7,0.9-1.1,1.6-1.1
		c0.2,0,0.4,0,0.5,0.1c0.4,0.1,0.8,0.5,1,0.9C80.8,89.7,80.8,90.2,80.7,90.6z"/>
	<path class="st0" d="M88.6,86.9c0.3,0.1,0.7,0.2,1,0.2c0.5,0,1-0.1,1.4-0.3c0.8-0.4,1.3-1,1.6-1.8c0.3-0.8,0.2-1.7-0.1-2.4
		c-0.4-0.8-1-1.3-1.8-1.6c-0.8-0.3-1.7-0.2-2.4,0.1c-0.8,0.4-1.3,1-1.6,1.8c-0.3,0.8-0.2,1.7,0.1,2.4C87.2,86.1,87.8,86.7,88.6,86.9
		z M88,83.4c0.1-0.4,0.5-0.8,0.9-1c0.2-0.1,0.5-0.2,0.7-0.2c0.2,0,0.4,0,0.6,0.1c0.4,0.1,0.8,0.5,1,0.9c0.2,0.4,0.2,0.9,0.1,1.3
		c-0.1,0.4-0.5,0.8-0.9,1c-0.4,0.2-0.9,0.2-1.3,0.1c-0.4-0.1-0.8-0.5-1-0.9C87.9,84.3,87.9,83.8,88,83.4z"/>
	<path class="st0" d="M88.5,74.8c0.8-0.4,1.3-1,1.6-1.8c0.3-0.8,0.2-1.7-0.1-2.4c-0.4-0.8-1-1.3-1.8-1.6c-0.8-0.3-1.7-0.2-2.4,0.1
		c-0.8,0.4-1.3,1-1.6,1.8c-0.3,0.8-0.2,1.7,0.1,2.4c0.4,0.8,1,1.3,1.8,1.6c0.3,0.1,0.7,0.2,1,0.2C87.6,75.1,88.1,75,88.5,74.8z
		 M85.6,72.7c-0.2-0.4-0.2-0.9-0.1-1.3c0.1-0.4,0.5-0.8,0.9-1c0.2-0.1,0.5-0.2,0.7-0.2c0.2,0,0.4,0,0.6,0.1c0.4,0.1,0.8,0.5,1,0.9
		c0.2,0.4,0.2,0.9,0.1,1.3c-0.1,0.4-0.5,0.8-0.9,1c-0.4,0.2-0.9,0.2-1.3,0.1C86.1,73.4,85.8,73.1,85.6,72.7z"/>
	<path class="st0" d="M80,29.2C52,29.2,29.2,52,29.2,80c0,28,22.7,50.8,50.7,50.8c28,0,50.8-22.7,50.8-50.8
		C130.8,52,108,29.2,80,29.2z M80,129.2c-27.2,0-49.2-22.1-49.2-49.2S52.8,30.8,80,30.8c27.2,0,49.3,22.1,49.3,49.2
		S107.2,129.2,80,129.2z"/>
	<path class="st0" d="M115.4,100.2c-3.4-1.8-6.7-3.8-9.8-5.7c-0.8-0.5-1.5-0.9-2.3-1.4c-1.2-0.8-2.5-1.6-3.7-2.3
		c-1.8-1.1-3.8-1.6-5.9-1.5l-1.4,0.1c-0.8,0.1-1.4,0.4-1.9,1c-0.5,0.6-0.5,1.3-0.1,1.9c1,1.4,1.9,2.7,2.8,3.9
		c3.4,4.6,6.9,8.9,10.8,13.8l0.4,0.5c0.6,0.8,1.2,1.6,1.9,2.3c0.3,0.3,0.6,0.5,0.9,0.5c0.3,0,0.5-0.1,0.8-0.3l0.2-0.2
		c3.2-2.7,5.9-5.9,8.2-9.4c0.2-0.3,0.4-0.6,0.5-0.9c0.3-0.6,0.2-1.2-0.4-1.6C116.2,100.7,115.8,100.4,115.4,100.2z M115.1,102.6
		c-2.2,3.4-4.8,6.5-7.9,9.1c-0.6-0.7-1.2-1.4-1.7-2.1l-0.4-0.5c-3.9-4.8-7.4-9.2-10.8-13.7c-0.9-1.2-1.8-2.4-2.7-3.8
		c0,0,0-0.1-0.1-0.1c0,0,0,0,0.1-0.1c0.2-0.3,0.5-0.4,0.9-0.5l1.4-0.1c1.8-0.1,3.5,0.3,5.1,1.3c1.2,0.7,2.5,1.5,3.7,2.3
		c0.8,0.5,1.5,1,2.3,1.4c3.1,1.9,6.4,3.9,9.9,5.7c0.3,0.2,0.5,0.3,0.8,0.4C115.4,102.2,115.2,102.4,115.1,102.6z M115.6,101.8
		C115.6,101.8,115.6,101.8,115.6,101.8l0.7,0.4L115.6,101.8z"/>
	<path class="st0" d="M97.6,63.5l-0.8,0.7c-1.9,1.6-3.1,3.4-3.7,5.4L93,69.9c-0.2,0.6-0.4,1.2-0.4,1.9l0,0.1l0,0.1
		c0,0.6,0.2,1,0.4,1.4c0.3,0.5,0.8,0.8,1.3,0.8c0.2,0,0.4,0,0.6-0.1l0.9-0.3c0.9-0.3,1.9-0.6,2.8-0.9c6.3-2.1,12.6-4.5,18.2-6.7
		l0.3-0.1c0.8-0.3,1.5-0.6,2.3-0.9c0.6-0.3,0.8-0.8,0.6-1.4c-1.8-4.3-4.2-8.3-7.3-11.9c-0.4-0.5-1-0.6-1.6-0.2
		c-0.4,0.3-0.8,0.7-1.1,1c-2,2-4.2,4-6.8,6.2C101.3,60.5,99.5,62,97.6,63.5z M111,53.9L111,53.9c0.2-0.2,0.5-0.5,0.7-0.7
		c2.8,3.3,5,6.9,6.7,10.8c-0.6,0.3-1.2,0.5-1.8,0.7l-0.3,0.1c-5.6,2.1-11.9,4.5-18.2,6.6c-0.9,0.3-1.8,0.6-2.8,0.9l-0.9,0.3
		c-0.1,0-0.1,0-0.1,0c0,0,0-0.1-0.1-0.1c-0.1-0.2-0.2-0.4-0.2-0.6c0.1-0.5,0.2-1,0.4-1.6l0.1-0.3c0.5-1.7,1.6-3.3,3.2-4.7l0.8-0.7
		c1.8-1.5,3.7-3.1,5.5-4.6C106.7,57.9,109,55.9,111,53.9z"/>
	<path class="st0" d="M123,76.8c0-0.5-0.1-1-0.4-1.2c-0.4-0.3-0.8-0.2-1.3-0.1c-3.1,0.6-6.5,1.1-10.5,1.5c-1.8,0.2-3.6,0.3-5.5,0.5
		l-2.5,0.2c-2.3,0.2-4.4,0.5-6.4,0.9c-0.6,0.1-1.1,0.5-1.4,1c-0.6,1.1-0.4,2.9,0.9,3.7c2.5,1.5,4.8,2.6,7.1,3.4
		c3.5,1.1,7.2,2.1,10.7,3l1.7,0.4c1.7,0.4,3.4,0.9,5.1,1.3c0.1,0,0.3,0,0.4,0c0.5,0,0.9-0.3,1-0.9c0.8-3.4,1.3-6.9,1.3-10.7
		C123.2,79.1,123.1,78,123,76.8z M121.6,79.9c0,3.5-0.4,6.8-1.1,10c-1.6-0.3-3.2-0.8-4.7-1.2l-1.7-0.5c-3.5-0.9-7.1-1.9-10.7-3
		c-2.2-0.7-4.4-1.8-6.7-3.2c-0.6-0.4-0.6-1.3-0.4-1.7c0.1-0.1,0.1-0.2,0.3-0.2c2-0.4,4-0.6,6.3-0.9l2.5-0.2c1.8-0.2,3.6-0.3,5.5-0.5
		c4-0.4,7.4-0.9,10.6-1.6C121.6,78.1,121.7,79.1,121.6,79.9L121.6,79.9z"/>
	<path class="st0" d="M94.6,113.1c-1.7-3.5-3.2-7.1-4.7-10.6l-0.3-0.7c-1-2.5-2.1-4.6-3.1-6.6c-0.3-0.6-0.8-0.9-1.3-1.1
		c-1.3-0.3-2.9,0.6-3.2,1.9c-0.6,2.2-1,4.3-1.1,6.4c-0.1,1.8,0,3.6,0,5.3c0,0.6,0,1.2,0.1,1.9l0.1,1.8c0.1,1.3,0.1,2.7,0.2,4
		l0.1,1.3c0.1,1.6,0.2,3.3,0.4,5c0.1,0.9,0.4,1.2,1.3,1.2c0.1,0,0.1,0,0.2,0c0.9-0.1,1.7-0.2,2.5-0.2c3.7-0.5,7.3-1.4,10.8-2.9
		c0.4-0.1,0.8-0.3,1-0.8c0.2-0.5-0.1-0.9-0.3-1.2C96.3,116.5,95.4,114.8,94.6,113.1z M85.4,121.4c-0.7,0.1-1.5,0.2-2.2,0.2
		c-0.2-1.6-0.3-3.2-0.3-4.8l-0.1-1.3c-0.1-1.3-0.2-2.7-0.2-4l-0.1-1.8c0-0.6,0-1.3-0.1-1.9c-0.1-1.8-0.1-3.5,0-5.2
		c0.1-2,0.4-4,1-6.1c0.1-0.4,0.8-0.8,1.3-0.8c0.1,0,0.1,0,0.2,0c0.1,0,0.2,0.1,0.3,0.3c1,1.9,2,4,3,6.5l0.3,0.7
		c1.5,3.5,3,7.2,4.7,10.7c0.8,1.7,1.7,3.4,2.6,4.9C92.4,120,88.9,121,85.4,121.4z"/>
	<path class="st0" d="M53.3,83.2c1.3-0.1,2.5-0.2,3.8-0.2c1.2-0.1,2.5-0.2,3.7-0.7c1.5-0.6,2.8-1.6,3.7-2.4c0.5-0.4,0.8-1,0.9-1.7
		c0.2-1-0.2-1.6-1.1-1.9c-2-0.8-4-1.4-5.9-2c-5.9-1.8-11.7-3.4-16.2-4.6l-0.5-0.1c-0.8-0.2-1.6-0.4-2.4-0.6
		c-0.6-0.1-1.1,0.2-1.2,0.8c-0.8,3.4-1.3,6.9-1.3,10.5c0,1,0,2.1,0.1,3.3c0,0.4,0.2,0.7,0.4,0.9c0.1,0.1,0.4,0.3,0.7,0.3
		c0,0,0.1,0,0.1,0l0.2,0c0.2,0,0.3,0,0.5,0c2.7-0.4,5.1-0.7,7.4-0.9C48.7,83.5,51.1,83.4,53.3,83.2z M38.8,83.1c-0.1,0-0.2,0-0.3,0
		c-0.1-1-0.1-2-0.1-2.9c0-3.3,0.4-6.6,1.2-9.8c0.6,0.1,1.2,0.3,1.9,0.5l0.6,0.2c4.4,1.2,10.2,2.8,16.1,4.6c1.9,0.6,3.9,1.3,5.8,2
		c0.1,0,0.2,0.1,0.2,0.1c0,0,0,0.1,0,0.2c-0.1,0.3-0.2,0.6-0.4,0.8c-0.8,0.7-2,1.6-3.3,2.2c-1,0.4-2,0.5-3.3,0.6
		c-1.3,0.1-2.5,0.2-3.8,0.2c-2.3,0.1-4.6,0.3-7,0.5C43.9,82.5,41.5,82.7,38.8,83.1z"/>
	<path class="st0" d="M62.2,96c2.1-1.8,3.8-3.4,5.4-4.9c0.5-0.5,0.7-1.1,0.6-1.8c-0.1-0.4-0.2-0.7-0.4-1c-0.7-1-1.7-1.5-2.9-1.3
		c-2.7,0.1-5.4,0.6-8,1.5c-4,1.4-7.9,2.9-11.7,4.4l-0.9,0.4c-1.2,0.5-2.4,0.9-3.5,1.5c-0.7,0.3-0.9,0.9-0.6,1.6
		c0.9,2.3,2,4.5,3.3,6.6c1.1,1.8,2.4,3.6,3.9,5.3c0.2,0.2,0.5,0.6,1,0.6c0,0,0,0,0,0c0.5,0,0.8-0.3,1-0.5l0.9-0.9
		c0.6-0.6,1.1-1.2,1.7-1.8v0c3.2-3.3,6.7-6.3,10.2-9.3L62.2,96z M60.8,95.1c-3.4,3-7,6-10.2,9.3c-0.6,0.6-1.1,1.2-1.7,1.8l-0.7,0.8
		c-1.3-1.6-2.6-3.3-3.6-5c-1.2-1.9-2.2-4-3.1-6.1c1.1-0.5,2.2-0.9,3.2-1.3l0.9-0.4c3.8-1.5,7.7-3,11.7-4.4c2.5-0.9,5-1.3,7.6-1.4
		l0.1,0c0.6-0.1,1.1,0.1,1.5,0.6c0.1,0.2,0.2,0.3,0.2,0.5c0,0.1,0,0.3-0.2,0.5c-1.5,1.5-3.3,3.1-5.3,4.9L60.8,95.1z"/>
	<path class="st0" d="M63.2,43c1.3,2.5,2.5,5.2,3.8,8.4c0.5,1.3,1.1,2.7,1.6,4c0.5,1.3,1.1,2.7,1.6,4c0.4,1,0.9,2.1,1.8,3.1
		c1.1,1.4,2.6,2.3,3.7,3c0.3,0.2,0.7,0.3,1.2,0.3c0.1,0,0.1,0,0.2,0c0.4,0,0.9-0.1,1.3-0.4c0.5-0.4,0.5-1,0.5-1.4
		c0.1-4.4,0-8.6-0.1-12.2c-0.1-2.9-0.2-6.3-0.4-9.8l0-0.9c0-0.9-0.1-1.9-0.2-2.9c-0.1-0.6-0.5-1-1.1-0.9c-1.5,0.1-2.9,0.3-4.3,0.5
		c-3.2,0.6-6.3,1.5-9.3,2.7c-0.6,0.2-0.8,0.8-0.6,1.4C62.9,42.2,63.1,42.6,63.2,43z M72.9,39.2c1.2-0.2,2.4-0.4,3.7-0.5
		c0.1,0.8,0.1,1.6,0.2,2.4l0,0.9c0.2,3.5,0.3,6.9,0.4,9.7c0.1,3.6,0.3,7.8,0.1,12.1c0,0.3-0.1,0.4-0.1,0.4c0,0-0.1,0.1-0.4,0
		c-0.2,0-0.3,0-0.5-0.1c-1-0.6-2.3-1.5-3.3-2.7c-0.7-0.8-1.2-1.9-1.5-2.7c-0.5-1.3-1.1-2.7-1.6-4c-0.5-1.3-1.1-2.7-1.6-4
		c-1.3-3.1-2.5-5.9-3.8-8.5c-0.1-0.2-0.2-0.4-0.3-0.7C67.1,40.5,70,39.7,72.9,39.2z"/>
	<path class="st0" d="M43.8,59.4c2.6,1.2,5.2,2.5,7.9,4c2,1.1,4,2.4,6,3.5c1.1,0.7,2.3,1.4,3.4,2.1c1.7,1,3.3,1.9,4.8,2.6
		c0.4,0.2,0.7,0.3,1,0.3c0.4,0,0.8-0.2,1.1-0.3c0.8-0.5,1.3-1.3,1.3-2.3l0-0.1l0-0.2c0-0.1,0-0.3,0-0.4c0-0.2-0.1-0.4-0.2-0.5
		c-1-2.7-2.4-5.3-4.1-7.6c-2.9-3.9-6.1-7.7-9.1-11.4l-0.3-0.3c-0.5-0.6-1-1.2-1.6-1.8c-0.4-0.4-1-0.5-1.4-0.1
		c-3.7,3.1-6.8,6.7-9.3,10.7c-0.2,0.3-0.4,0.6-0.3,1C43.1,59.1,43.4,59.3,43.8,59.4z M53.1,48.4c0.4,0.5,0.8,0.9,1.2,1.4l0.3,0.3
		c3,3.7,6.2,7.5,9.1,11.3c1.7,2.2,3,4.6,3.9,7.2c0,0.1,0.1,0.2,0.1,0.4l0,0.1c-0.1,0.5-0.3,0.9-0.7,1.1c-0.1,0.1-0.2,0.1-0.5,0
		c-1.5-0.8-3-1.6-4.7-2.6c-1.1-0.7-2.3-1.4-3.4-2c-2-1.2-4-2.4-6-3.6c-2.6-1.5-5.2-2.8-7.7-4C46.9,54.5,49.8,51.2,53.1,48.4z"/>
	<path class="st0" d="M74.9,94.5c-0.3-0.6-0.8-1.1-1.6-1.4c-0.7-0.2-1.3-0.1-1.8,0.5c-0.8,1-1.6,2.1-2.4,3.2
		c-3,4.1-5.8,8.3-8.5,12.4l-1.3,2c-0.8,1.2-1.6,2.4-2.4,3.7c-0.5,0.8-0.3,1.4,0.5,1.9c3.8,2.3,7.9,4,12.2,5.1c0.1,0,0.3,0.1,0.5,0.1
		c0.1,0,0.1,0,0.2,0c0.6,0,1-0.3,1.1-0.9l0.1-0.2c0.1-0.2,0.1-0.4,0.2-0.6c0.1-0.5,0.2-1.1,0.3-1.6c0.2-0.9,0.3-1.9,0.5-2.8
		c0.8-4,1.8-7.8,2.9-12c0.4-1.3,0.7-2.8,0.7-4.3l0-0.1c0-0.1,0-0.3,0-0.4C76,97.6,75.6,96.2,74.9,94.5z M74.7,99.5
		c0,1.4-0.3,2.7-0.7,4c-1.1,4.3-2.1,8.1-2.9,12.1c-0.2,0.9-0.4,1.9-0.5,2.8c-0.1,0.5-0.2,1.1-0.3,1.6c0,0.2-0.1,0.3-0.1,0.5
		c0,0,0,0-0.1,0c-4.1-1-8.1-2.6-11.7-4.9c0.7-1.2,1.5-2.4,2.3-3.6l1.3-2c2.7-4.1,5.5-8.3,8.4-12.4c0.8-1.1,1.6-2.1,2.4-3.1
		c0,0,0,0,0-0.1c0,0,0,0,0.1,0c0.3,0.1,0.6,0.3,0.7,0.6c0.7,1.5,1,2.7,1.1,4c0,0.1,0,0.2,0,0.3L74.7,99.5z"/>
	<path class="st0" d="M84.7,66.1c0.5,0.3,1.1,0.5,1.7,0.5c0.6,0,1.1-0.2,1.6-0.6c2.2-1.8,4.2-3.9,5.8-6.2c2.5-3.5,4.8-7.1,7-10.6
		l0.8-1.3c0.6-0.9,1.1-1.8,1.7-2.7c0.4-0.8-0.1-1.3-0.3-1.4c-4.1-2.6-8.6-4.4-13.3-5.5c-0.3-0.1-0.6,0-0.9,0.1
		c-0.3,0.2-0.4,0.6-0.4,0.8c-0.1,0.5-0.1,1.1-0.2,1.6c-0.5,4-1.3,8-2,11c-0.2,1-0.4,1.9-0.7,2.9c-0.7,3.1-1.5,6.2-1.9,9.4
		C83.5,64.9,83.9,65.7,84.7,66.1z M85.2,64.2c0.4-3.1,1.2-6.3,1.9-9.3c0.2-1,0.5-1.9,0.7-2.9c0.7-3,1.5-7,2-11.2
		c0-0.4,0.1-0.8,0.1-1.1c4.2,1,8.2,2.7,11.9,5c-0.4,0.8-0.9,1.5-1.4,2.3l-0.8,1.3c-2.2,3.5-4.5,7.1-7,10.6c-1.5,2.2-3.4,4.2-5.5,5.9
		c-0.2,0.2-0.5,0.3-0.7,0.3c-0.3,0-0.6-0.1-0.9-0.2C85.2,64.7,85.1,64.6,85.2,64.2z"/>
</g>
</svg>
