<?xml version="1.0" encoding="UTF-8"?>
<svg width="20px" height="22px" viewBox="0 0 20 22" version="1.1" xmlns="http://www.w3.org/2000/svg" xmlns:xlink="http://www.w3.org/1999/xlink">
    <!-- Generator: Sketch 46.2 (44496) - http://www.bohemiancoding.com/sketch -->
    <title>Page 1</title>
    <desc>Created with Sketch.</desc>
    <defs>
        <polygon id="path-1" points="19.9845161 10.9676989 19.9845161 0 7.95349397e-05 0 7.95349397e-05 21.9353978 19.9845161 21.9353978"></polygon>
    </defs>
    <g id="Mobile-App---Q3" stroke="none" stroke-width="1" fill="none" fill-rule="evenodd">
        <g id="Solar-Card-Copy-2" transform="translate(-314.000000, -541.000000)">
            <g id="Group-5" transform="translate(-22.000000, 437.000000)">
                <g id="btn---refer-contacts" transform="translate(0.000000, 90.000000)">
                    <g id="Page-1" transform="translate(336.000000, 14.000000)">
                        <g id="Group-3">
                            <mask id="mask-2" fill="white">
                                <use xlink:href="#path-1"></use>
                            </mask>
                            <g id="Clip-2"></g>
                            <path d="M2.76548387,17.8710968 C2.78655914,17.8715269 2.80741935,17.871957 2.82827957,17.8723871 C3.04075269,17.876043 3.2416129,17.880129 3.44892473,17.8635699 C3.68096774,17.8448602 3.87924731,17.7196989 3.99301075,17.520129 C4.10612903,17.3216344 4.11365591,17.0792688 4.01258065,16.871957 C3.89301075,16.6263656 3.69215054,16.4865806 3.44677419,16.4781935 C3.24204301,16.4710968 3.03731183,16.4728172 2.82698925,16.4741075 L2.77795699,16.4743226 L2.77795699,13.7816344 C2.8755914,13.7831398 2.9755914,13.7831398 3.07709677,13.7756129 C3.26569892,13.7622796 3.42763441,13.7364731 3.57236559,13.6973333 C3.88139785,13.6136774 4.09602151,13.3207742 4.08268817,13.0009892 C4.06913978,12.6788387 3.83473118,12.4016344 3.52462366,12.3418495 C3.37064516,12.311957 3.21795699,12.3057204 3.07021505,12.2996989 L2.99172043,12.2962581 C2.92010753,12.2932473 2.84806452,12.292172 2.77580645,12.2932473 L2.77580645,9.66615054 C2.85967742,9.66722581 2.94634409,9.66658065 3.03451613,9.65969892 C3.18053763,9.64851613 3.37215054,9.62916129 3.5611828,9.58077419 C3.87537634,9.50055914 4.09021505,9.21905376 4.08376344,8.89625806 C4.07709677,8.55711828 3.83430108,8.27432258 3.50634409,8.22356989 C3.33344086,8.19690323 3.16096774,8.19195699 2.99408602,8.18744086 C2.9327957,8.18550538 2.87150538,8.184 2.81043011,8.18098925 C2.79967742,8.18055914 2.78892473,8.18012903 2.7783871,8.17991398 L2.7783871,5.51174194 C2.9016129,5.51367742 3.02806452,5.51432258 3.15580645,5.50550538 C3.31967742,5.49432258 3.47752688,5.46464516 3.6244086,5.41711828 C3.89365591,5.33002151 4.08698925,5.0523871 4.08376344,4.75711828 C4.08053763,4.4612043 3.88741935,4.19432258 3.61408602,4.10787097 C3.47731183,4.06443011 3.32569892,4.03668817 3.1644086,4.02529032 C3.03322581,4.01604301 2.90354839,4.01668817 2.77774194,4.01797849 L2.76548387,4.01797849 L2.76569892,1.73303226 C2.76591398,1.49023656 2.85494624,1.40012903 3.09451613,1.40012903 C8.14827957,1.39948387 13.201828,1.39948387 18.2555914,1.40012903 C18.4650538,1.40012903 18.5783871,1.45711828 18.5783871,1.75819355 L18.5788172,6.74249462 L18.5783871,10.9592688 C18.5777419,14.016043 18.5773118,17.0726022 18.5846237,20.1291613 C18.5848387,20.2745376 18.5536559,20.3792688 18.4919355,20.4412043 C18.4291398,20.504 18.321828,20.535828 18.1725806,20.535828 L18.1706452,20.535828 C15.3209677,20.5302366 12.4712903,20.5291613 9.6216129,20.5291613 C8.5444086,20.5291613 7.4672043,20.5293763 6.39,20.5293763 L3.16010753,20.5298065 C2.8244086,20.5298065 2.76548387,20.4706667 2.76548387,20.1341075 L2.76548387,17.8710968 Z M18.302043,0.00120430108 C15.1856989,-8.60215054e-05 12.0689247,0.000344086022 8.95258065,0.000129032258 L3.06569892,-8.60215054e-05 L3.06526882,-8.60215054e-05 C2.42462366,-8.60215054e-05 1.93408602,0.269806452 1.60677419,0.802064516 C1.43043011,1.08894624 1.34956989,1.41819355 1.35258065,1.83862366 C1.35623656,2.37475269 1.35731183,2.91131183 1.3583871,3.44765591 L1.35967742,4.01905376 C1.35107527,4.01905376 1.34225806,4.01905376 1.33365591,4.01883871 C1.19946237,4.01797849 1.06634409,4.01733333 0.933225806,4.02486022 C0.781182796,4.03367742 0.636666667,4.05797849 0.50311828,4.09668817 C0.204193548,4.18378495 -0.00268817204,4.46034409 0.000107526882,4.76916129 C0.00290322581,5.08163441 0.207849462,5.34894624 0.510430108,5.43453763 C0.64827957,5.47367742 0.799032258,5.49776344 0.958387097,5.50615054 C1.08741935,5.51303226 1.21666667,5.5128172 1.34354839,5.51109677 L1.34354839,8.1784086 C1.26612903,8.17797849 1.19150538,8.17819355 1.11688172,8.18206452 L1.01731183,8.18658065 C0.857526882,8.19367742 0.692150538,8.20098925 0.526344086,8.2351828 C0.238602151,8.29432258 0.0177419355,8.56356989 0.0011827957,8.87475269 C-0.0151612903,9.17496774 0.169784946,9.46034409 0.440537634,9.55303226 C0.600752688,9.60787097 0.77516129,9.64335484 0.959462366,9.65862366 C1.09021505,9.66916129 1.22032258,9.66808602 1.34741935,9.66593548 L1.34741935,12.2930323 C1.26053763,12.291957 1.17516129,12.2923871 1.09064516,12.2964731 L1.0188172,12.299914 C0.862043011,12.3067957 0.700107527,12.3138925 0.537096774,12.3474409 C0.239032258,12.4095914 0.0134408602,12.6852903 0.0011827957,13.0029247 C-0.0115053763,13.3177634 0.195376344,13.6076559 0.492795699,13.692172 C0.643333333,13.7351828 0.810645161,13.7631398 0.990645161,13.7756129 C1.11107527,13.7837849 1.23021505,13.7833548 1.34612903,13.7814194 L1.34612903,16.4549677 L1.34225806,16.4549677 C1.17172043,16.4530323 0.994946237,16.4506667 0.820107527,16.4614194 C0.630860215,16.4734624 0.469139785,16.5141075 0.339247312,16.5829247 C0.0790322581,16.720129 -0.0510752688,17.0263656 0.022688172,17.3276559 C0.0998924731,17.6433548 0.33688172,17.8491613 0.640967742,17.8646452 C0.856021505,17.8756129 1.0672043,17.8736774 1.28956989,17.8708817 C1.3127957,17.8706667 1.33623656,17.8702366 1.35967742,17.8700215 L1.35989247,20.2459355 C1.36096774,21.1930323 2.09946237,21.9349677 3.04139785,21.9349677 C5.57774194,21.9353978 8.11408602,21.9353978 10.6502151,21.9353978 C13.1865591,21.9353978 15.7229032,21.9353978 18.2590323,21.9349677 C19.2586022,21.9349677 19.9841935,21.2102366 19.9841935,20.2117419 C19.9846237,14.0379785 19.9846237,7.864 19.9841935,1.69002151 L19.9841935,1.69002151 C19.9839785,0.743354839 19.2452688,0.00141935484 18.302043,0.00120430108 L18.302043,0.00120430108 Z" id="Fill-1" fill="#FFFFFF" mask="url(#mask-2)"></path>
                        </g>
                        <path d="M10.668086,10.460129 L10.6663656,10.460129 C9.7184086,10.4592688 8.97668817,9.70744086 8.97754839,8.74894624 C8.97797849,8.30184946 9.15475269,7.87969892 9.47539785,7.56034409 C9.79711828,7.23991398 10.2218495,7.06378495 10.671957,7.06378495 L10.6777634,7.06378495 C11.5981935,7.0667957 12.3747527,7.844 12.3734624,8.76098925 C12.3723871,9.6984086 11.6074409,10.460129 10.668086,10.460129 M10.535828,11.9194839 C12.1074409,11.8683011 13.9216344,12.9667957 14.2523871,14.8556129 L7.09453763,14.8556129 C7.3812043,13.2485161 8.84722581,11.9786237 10.535828,11.9194839 M6.37604301,16.2708817 C7.81066667,16.2710968 9.24529032,16.2710968 10.679914,16.2710968 C12.1145376,16.2710968 13.5489462,16.2710968 14.9837849,16.2708817 C15.2061505,16.2706667 15.3934624,16.2003441 15.5259355,16.0674409 C15.6577634,15.9351828 15.7272258,15.7489462 15.7265806,15.5287312 C15.7244301,14.7364731 15.5308817,13.9661505 15.152172,13.2390538 C14.6272258,12.2330323 13.8474409,11.4792688 12.8310968,10.9949677 C13.4020645,10.4098065 13.7308817,9.67367742 13.7646452,8.89109677 C13.8016344,8.03582796 13.4829247,7.20012903 12.8902366,6.59819355 C11.7087312,5.39862366 9.86615054,5.33819355 8.60356989,6.4556129 C8.0067957,6.984 7.66701075,7.66335484 7.59389247,8.47496774 C7.50550538,9.45625806 7.81604301,10.3027097 8.51754839,10.9956129 C7.83604301,11.3188387 7.28055914,11.7459355 6.82593548,12.2943226 C6.0384086,13.2450753 5.63088172,14.3186237 5.61475269,15.4855054 C5.61131183,15.731957 5.67905376,15.9272258 5.8156129,16.0655054 C5.95002151,16.2016344 6.13862366,16.2708817 6.37604301,16.2708817" id="Fill-4" fill="#FFFFFF"></path>
                    </g>
                </g>
            </g>
        </g>
    </g>
</svg>