<?xml version="1.0" encoding="iso-8859-1"?>
<!-- Generator: Adobe Illustrator 18.0.0, SVG Export Plug-In . SVG Version: 6.00 Build 0)  -->
<!DOCTYPE svg PUBLIC "-//W3C//DTD SVG 1.1//EN" "http://www.w3.org/Graphics/SVG/1.1/DTD/svg11.dtd">
<svg version="1.1" id="Capa_1" xmlns="http://www.w3.org/2000/svg" xmlns:xlink="http://www.w3.org/1999/xlink" x="0px" y="0px"
	 viewBox="0 0 456.978 456.978" style="enable-background:new 0 0 456.978 456.978;" xml:space="preserve">
<g>
	<path d="M388.975,122.649c-42.948-24.212-99.943-37.547-160.485-37.547S110.952,98.437,68.003,122.649
		C24.15,147.372,0,180.557,0,216.095s24.15,68.725,68.003,93.447c3.31,1.866,6.713,3.659,10.185,5.395
		c38.074,36.191,92.801,56.938,150.3,56.938c57.498,0,112.223-20.746,150.296-56.935c3.474-1.736,6.879-3.531,10.191-5.398
		c43.853-24.723,68.003-57.909,68.003-93.447S432.827,147.371,388.975,122.649z M228.487,361.875
		c-42.241,0-82.857-11.672-115.848-32.706c34.722,11.683,74.455,17.92,115.85,17.92c41.392,0,81.123-6.237,115.843-17.918
		C311.342,350.204,270.728,361.875,228.487,361.875z M384.064,300.832c-41.475,23.381-96.726,36.258-155.575,36.258
		s-114.101-12.877-155.575-36.258C32.344,277.959,10,247.866,10,216.095s22.344-61.863,62.914-84.735
		c41.475-23.381,96.726-36.258,155.575-36.258s114.101,12.877,155.575,36.258c40.57,22.872,62.913,52.965,62.913,84.735
		S424.635,277.959,384.064,300.832z"/>
	<path d="M396.702,207.495c0.584-1.294,0.888-2.677,0.888-4.108c0-3.214-1.552-6.174-4.252-8.393
		c0.134-0.653,0.202-1.32,0.202-1.997c0-4-2.354-7.54-6.279-9.798c0-0.026,0-0.053,0-0.079c0-4.707-3.321-8.782-8.483-10.862
		c-0.766-4.682-4.895-8.501-10.619-10.026c-1.482-4.616-6.317-8.138-12.534-9.073c-2.129-4.5-7.571-7.712-14.224-8.045
		c-2.566-4.204-8.136-7.004-14.8-7.004c-0.328,0-0.655,0.008-0.983,0.022c-2.822-3.68-8.082-6.061-14.128-6.061
		c-1.018,0-2.02,0.067-3.001,0.2c-2.967-3.201-7.905-5.216-13.414-5.216c-1.67,0-3.313,0.185-4.879,0.545
		c-2.998-2.789-7.56-4.452-12.684-4.452c-2.341,0-4.627,0.364-6.713,1.054c-3.009-2.365-7.258-3.77-11.844-3.77
		c-3.002,0-5.896,0.601-8.392,1.703c-2.937-1.993-6.83-3.142-11.005-3.142c-3.673,0-7.13,0.88-9.913,2.454
		c-2.803-1.624-6.308-2.532-10.05-2.532c-4.12,0-7.974,1.123-10.9,3.074c-2.535-1.157-5.494-1.786-8.581-1.786
		c-4.61,0-8.787,1.352-11.774,3.685c-2.129-0.726-4.476-1.109-6.886-1.109c-5.062,0-9.589,1.633-12.593,4.371
		c-1.628-0.392-3.343-0.594-5.09-0.594c-5.544,0-10.409,1.947-13.361,5.12c-1.04-0.15-2.105-0.226-3.19-0.226
		c-5.967,0-11.193,2.341-14.041,5.961c-0.407-0.022-0.816-0.034-1.226-0.034c-6.573,0-12.111,2.753-14.719,6.892
		c-6.702,0.26-12.218,3.438-14.416,7.928c-6.269,0.868-11.177,4.354-12.736,8.957c-5.793,1.452-9.996,5.225-10.847,9.912
		c-5.267,2.023-8.678,6.091-8.736,10.847c-4.075,2.244-6.523,5.841-6.523,9.939c0,0.597,0.054,1.186,0.158,1.765
		c-2.836,2.233-4.468,5.261-4.468,8.571c0,1.338,0.267,2.637,0.78,3.859c-1.754,1.991-2.723,4.38-2.723,6.915
		c0,2.138,0.672,4.159,1.925,5.93c-0.892,1.552-1.365,3.257-1.365,5.025c0,2.9,1.234,5.572,3.45,7.692
		c-0.29,0.939-0.439,1.911-0.439,2.898c0,3.618,1.996,6.922,5.353,9.199c-0.028,0.304-0.043,0.609-0.043,0.916
		c0,4.407,2.872,8.25,7.493,10.434c0.42,4.716,4.198,8.66,9.702,10.436c1.174,4.659,5.715,8.309,11.713,9.506
		c1.852,4.554,7.036,7.903,13.504,8.503c2.455,4.426,8.199,7.461,15.055,7.461c0.012,0,0.022,0,0.034,0
		c2.707,3.922,8.088,6.464,14.45,6.464c0.709,0,1.413-0.033,2.109-0.1c2.898,3.423,7.961,5.579,13.746,5.579
		c1.377,0,2.744-0.128,4.066-0.377c2.994,2.968,7.727,4.786,13.006,4.786c2.06,0,4.055-0.273,5.915-0.805
		c3.014,2.546,7.403,4.06,12.221,4.06c2.725,0,5.334-0.48,7.651-1.387c2.967,2.156,7.003,3.402,11.392,3.402
		c3.368,0,6.606-0.766,9.291-2.138c2.883,1.797,6.589,2.828,10.505,2.828c4.52,0,8.608-1.324,11.563-3.541
		c2.861,1.794,6.548,2.839,10.514,2.839c4.679,0,8.947-1.441,11.945-3.848c2.541,1.161,5.517,1.804,8.6,1.804
		c4.943,0,9.438-1.615,12.453-4.277c2.029,0.646,4.244,0.986,6.514,0.986c5.351,0,10.104-1.841,13.085-4.853
		c1.378,0.271,2.81,0.41,4.258,0.41c5.777,0,10.845-2.159,13.746-5.582c0.637,0.055,1.28,0.082,1.928,0.082
		c6.336,0,11.73-2.548,14.447-6.468c6.666-0.141,12.215-3.159,14.596-7.509c6.167-0.797,11.046-4.119,12.774-8.559
		c5.635-1.401,9.788-5.007,10.821-9.491c5.097-1.947,8.477-5.813,8.773-10.334c4.16-2.241,6.67-5.881,6.67-10.016
		c0-0.354-0.02-0.706-0.058-1.056c3.019-2.254,4.765-5.376,4.765-8.799c0-0.975-0.146-1.937-0.431-2.867
		c2.024-2.077,3.151-4.642,3.151-7.382c0-1.652-0.421-3.262-1.213-4.74c1.233-1.762,1.896-3.766,1.896-5.872
		C399.255,211.761,398.348,209.447,396.702,207.495z M313.329,165.901l-22.51-9.538l11.063-4.196L313.329,165.901z M387.911,215.367
		c-1.511,0.855-2.47,2.433-2.533,4.167c-0.064,1.734,0.775,3.378,2.219,4.342c0.713,0.477,0.952,0.877,0.979,0.904
		c-0.037,0.14-0.494,0.843-1.903,1.483c-1.532,0.696-2.612,2.117-2.872,3.78s0.335,3.346,1.583,4.477
		c0.347,0.314,0.446,0.523,0.467,0.526c-0.09,0.271-0.844,1.143-2.63,1.76c-1.539,0.533-2.723,1.782-3.172,3.348
		c-0.448,1.565-0.106,3.252,0.917,4.52c0.115,0.144,0.167,0.244,0.179,0.223c-0.108,0.338-1.149,1.442-3.529,2.022
		c-1.522,0.37-2.782,1.434-3.404,2.871c-0.623,1.438-0.535,3.084,0.235,4.447c0.015,0.026,0.026,0.048,0.034,0.065
		c-0.192,0.428-1.535,1.745-4.543,2.183c-1.479,0.216-2.777,1.105-3.552,2.385c-0.763,1.263-0.922,2.819-0.448,4.216
		c-0.249,0.613-2.224,2.121-5.697,2.291c-1.425,0.07-2.75,0.719-3.646,1.83s-1.271,2.524-1.035,3.933
		c-0.148,0.569-2.336,2.364-6.337,2.364c-0.207,0-0.411-0.013-0.614-0.022c-1.383-0.084-2.706,0.424-3.699,1.369
		c-0.993,0.943-1.556,2.254-1.556,3.624c0,0.005,0,0.009,0,0.014c-0.188,0.589-2.371,2.346-6.331,2.346
		c-0.613,0-1.252-0.052-1.898-0.153c-1.328-0.213-2.683,0.119-3.762,0.921c-1.078,0.802-1.788,1.999-1.97,3.33
		c-0.146,0.57-2.327,2.365-6.33,2.365c-1.102,0-2.164-0.142-3.158-0.421c-1.293-0.363-2.677-0.191-3.841,0.477
		c-1.165,0.669-2.012,1.777-2.351,3.077c-0.148,0.57-2.334,2.367-6.324,2.367c-1.577,0-3.069-0.286-4.315-0.827
		c-1.271-0.553-2.713-0.553-3.983,0c-1.271,0.552-2.256,1.605-2.72,2.911c-0.239,0.671-2.471,2.358-6.324,2.358
		c-2.049,0-3.981-0.492-5.304-1.35c-1.248-0.811-2.794-1.021-4.212-0.578c-1.42,0.443-2.568,1.496-3.135,2.871
		c-0.325,0.793-2.58,2.348-6.316,2.348c-2.856,0-5.075-0.966-6.006-1.923c-1.18-1.212-2.89-1.744-4.55-1.42
		c-1.658,0.327-3.04,1.47-3.672,3.037c-0.278,0.691-2.492,2.35-6.317,2.35c-3.715,0-5.979-1.551-6.315-2.342
		c-0.835-1.968-2.811-3.191-4.961-3.034c-2.132,0.153-3.931,1.645-4.477,3.712c-0.15,0.57-2.339,2.366-6.324,2.366
		c-3.365,0-5.546-1.28-6.191-2.141c-0.877-1.172-2.225-1.899-3.686-1.992c-0.105-0.007-0.211-0.01-0.315-0.01
		c-1.35,0-2.647,0.547-3.593,1.522c-0.93,0.961-3.148,1.93-6.011,1.93c-3.344,0-5.675-1.305-6.263-2.23
		c-0.746-1.175-1.948-1.985-3.316-2.237c-1.366-0.253-2.779,0.078-3.896,0.91c-1.294,0.966-3.376,1.542-5.568,1.542
		c-3.622,0-5.893-1.502-6.304-2.306c-0.618-1.208-1.7-2.112-2.998-2.508c-1.297-0.395-2.7-0.245-3.885,0.415
		c-1.326,0.737-3.083,1.144-4.949,1.144c-3.858,0-6.054-1.66-6.319-2.353c-0.482-1.259-1.453-2.27-2.691-2.803
		c-1.238-0.532-2.64-0.543-3.886-0.028c-1.227,0.507-2.671,0.774-4.176,0.774c-4.002,0-6.18-1.797-6.323-2.367
		c-0.334-1.317-1.189-2.443-2.37-3.116c-1.182-0.675-2.587-0.837-3.89-0.454c-1.031,0.304-2.132,0.458-3.272,0.458
		c-4.004,0-6.182-1.795-6.324-2.353c-0.163-1.377-0.89-2.624-2.008-3.444c-1.118-0.819-2.526-1.138-3.889-0.88
		c-0.746,0.142-1.508,0.213-2.264,0.213c-3.942,0-6.124-1.742-6.326-2.307c0-0.005,0-0.01,0-0.015
		c0.037-1.429-0.54-2.805-1.583-3.78c-1.045-0.977-2.454-1.461-3.879-1.326c-0.465,0.043-0.837,0.063-1.171,0.063
		c-4.001,0-6.188-1.795-6.329-2.303c0.261-1.456-0.139-2.953-1.088-4.088c-0.95-1.135-2.354-1.79-3.834-1.79
		c-0.028,0-0.059,0-0.089,0.001c-3.962-0.019-6.127-1.797-6.262-2.304c0.521-1.456,0.34-3.072-0.492-4.377
		c-0.833-1.304-2.222-2.149-3.763-2.289c-3.201-0.291-4.949-1.682-5.184-2.254c0.009-0.019,0.021-0.043,0.038-0.072
		c0.796-1.403,0.865-3.105,0.187-4.569s-2.022-2.51-3.608-2.81c-2.637-0.498-3.975-1.727-4.088-2.081
		c0.008-0.028,0.057-0.139,0.191-0.302c1.07-1.295,1.418-3.04,0.927-4.646s-1.755-2.858-3.366-3.334
		c-2.112-0.623-2.983-1.617-3.063-1.825c0-0.002,0.081-0.254,0.545-0.652c1.319-1.136,1.954-2.875,1.675-4.593
		s-1.432-3.167-3.042-3.826c-1.622-0.663-2.145-1.446-2.188-1.526c0.026-0.097,0.3-0.564,1.159-1.093
		c1.525-0.937,2.434-2.616,2.382-4.405c-0.052-1.788-1.056-3.413-2.632-4.26c-1.097-0.59-1.438-1.153-1.469-1.199
		c0.037-0.137,0.481-0.824,1.853-1.46c1.602-0.742,2.693-2.273,2.872-4.029c0.179-1.757-0.582-3.477-2.001-4.526
		c-0.564-0.418-0.759-0.754-0.781-0.762c0.067-0.255,0.821-1.151,2.653-1.782c1.614-0.556,2.833-1.896,3.233-3.555
		s-0.073-3.408-1.257-4.639c-0.228-0.236-0.303-0.396-0.32-0.36c0.09-0.33,1.152-1.473,3.617-2.053
		c1.6-0.376,2.912-1.514,3.512-3.044c0.599-1.53,0.408-3.257-0.512-4.619c-0.047-0.07-0.072-0.12-0.084-0.132
		c0.184-0.507,1.758-1.833,4.684-2.224c1.561-0.209,2.92-1.174,3.688-2.548c0.761-1.359,0.832-3.026,0.215-4.455
		c0.26-0.63,2.28-2.155,5.828-2.293c1.509-0.059,2.902-0.832,3.806-2.043c0.886-1.187,1.191-2.739,0.85-4.179
		c0.261-0.62,2.436-2.311,6.319-2.311c0.224,0,0.444,0.012,0.664,0.023c1.473,0.083,2.868-0.481,3.875-1.53
		c1.004-1.045,1.504-2.474,1.373-3.915c0.254-0.618,2.43-2.314,6.319-2.314c0.58,0,1.182,0.045,1.787,0.134
		c1.39,0.21,2.799-0.175,3.886-1.061c1.089-0.888,1.752-2.181,1.831-3.582c0.144-0.57,2.318-2.365,6.323-2.365
		c0.964,0,1.917,0.114,2.833,0.341c1.329,0.327,2.736,0.099,3.891-0.641c1.154-0.737,1.955-1.915,2.216-3.261
		c0.144-0.57,2.321-2.366,6.327-2.366c1.341,0,2.65,0.215,3.787,0.62c1.271,0.453,2.67,0.375,3.881-0.22
		c1.212-0.594,2.132-1.651,2.552-2.934c0.22-0.672,2.427-2.361,6.332-2.361c1.69,0,3.331,0.347,4.62,0.977
		c1.213,0.594,2.613,0.67,3.886,0.214c1.271-0.457,2.303-1.408,2.861-2.637c0.357-0.788,2.646-2.331,6.315-2.331
		c2.059,0,3.998,0.497,5.32,1.362c1.148,0.753,2.556,1,3.89,0.684c1.335-0.316,2.481-1.166,3.172-2.353
		c0.548-0.941,2.857-2.269,6.278-2.269c2.841,0,4.878,0.911,5.838,1.764c1.065,0.947,2.478,1.4,3.904,1.229
		c1.417-0.166,2.695-0.93,3.513-2.099c0.591-0.844,2.804-2.182,6.227-2.182c3.055,0,5.328,1.074,6.147,2.072
		c0.941,1.147,2.345,1.816,3.828,1.827c0.013,0,0.024,0,0.036,0c1.471,0,2.868-0.648,3.818-1.772
		c0.834-0.987,3.109-2.049,6.133-2.049c3.445,0,5.653,1.345,6.235,2.192c0.803,1.17,2.065,1.942,3.472,2.127
		c1.41,0.185,2.825-0.237,3.903-1.161c0.97-0.831,2.999-1.72,5.786-1.72c3.404,0,5.761,1.358,6.281,2.276
		c0.675,1.19,1.809,2.053,3.136,2.385c1.326,0.333,2.732,0.105,3.89-0.627c1.322-0.838,3.236-1.318,5.25-1.318
		c3.69,0,5.968,1.547,6.315,2.336c0.544,1.234,1.563,2.197,2.827,2.669c1.265,0.475,2.664,0.415,3.885-0.163
		c1.276-0.603,2.887-0.935,4.535-0.935c3.876,0,6.132,1.712,6.335,2.363c0.225,0.719,0.619,1.357,1.122,1.899
		c-0.29,0.054-0.579,0.127-0.862,0.235l-26.045,9.879c-1.909,0.725-3.187,2.537-3.226,4.579s1.168,3.902,3.048,4.699l52.988,22.453
		c0.633,0.269,1.295,0.396,1.949,0.396c1.547,0,3.051-0.718,4.018-2.021c1.375-1.854,1.303-4.407-0.175-6.181l-26.943-32.332
		c-0.061-0.073-0.132-0.133-0.197-0.202c0.242-0.045,0.484-0.088,0.719-0.169c1.113-0.382,2.387-0.584,3.684-0.584
		c4.002,0,6.184,1.795,6.329,2.361c0.24,1.352,1.026,2.544,2.174,3.299c1.147,0.756,2.554,1.002,3.891,0.691
		c0.885-0.208,1.8-0.313,2.718-0.313c4.003,0,6.181,1.794,6.321,2.34c0.059,1.406,0.706,2.723,1.785,3.627s2.485,1.314,3.884,1.121
		c0.551-0.074,1.11-0.112,1.663-0.112c3.927,0,6.107,1.729,6.324,2.3c-0.002,0.015-0.003,0.023-0.003,0.023
		c-0.154,1.448,0.33,2.892,1.326,3.952c0.996,1.062,2.394,1.627,3.861,1.573l0.175-0.008c0.119-0.006,0.238-0.013,0.359-0.013
		c4.001,0,6.188,1.795,6.324,2.305c-0.4,1.462-0.116,3.027,0.773,4.255c0.89,1.227,2.288,1.984,3.802,2.06
		c3.574,0.177,5.561,1.769,5.694,2.312c-0.674,1.434-0.629,3.102,0.121,4.497c0.75,1.395,2.117,2.352,3.686,2.579
		c3.146,0.456,4.472,1.875,4.569,2.143c0,0-0.021,0.073-0.119,0.213c-0.949,1.35-1.172,3.082-0.593,4.628
		c0.578,1.546,1.882,2.707,3.484,3.103c2.392,0.59,3.42,1.708,3.506,1.945c0,0.002-0.056,0.18-0.355,0.48
		c-1.212,1.212-1.719,2.96-1.343,4.632s1.582,3.035,3.195,3.612c1.763,0.629,2.487,1.5,2.553,1.667
		c-0.025,0.092-0.238,0.452-0.857,0.894c-1.443,1.026-2.235,2.74-2.082,4.505s1.229,3.317,2.827,4.08
		c1.313,0.627,1.741,1.292,1.776,1.344C389.229,214.275,388.913,214.8,387.911,215.367z"/>
	<path d="M293.225,191.364c-5.392-12.795-19.161-26.618-35.04-28.28c-8.53-0.908-17.249,3.897-22.323,12.112
		c-9.38,2.345-16.009,7.09-19.249,13.811c-5.004,10.396-5.179,20.265-0.559,29.399c-2.53,2.249-5.517,3.465-9.011,3.667
		c-7.601,0.446-13.11-2.042-15.922-7.164c-2.431-4.428-1.965-9.147-1.223-10.281c1.247-1.126,3.709-2.127,6.799-2.757
		c5.729-1.192,10.085-5.704,11.093-11.473c1.026-5.722-1.474-11.42-6.361-14.514c-9.849-6.256-19.84-7.103-28.129-2.387
		c-18.907,10.737-25.383,28.147-17.322,46.57c1.691,3.867,4.236,8.564,7.927,13.148c-5.743-0.111-10.819,1.988-13.561,5.706
		c-1.639,2.223-1.165,5.354,1.057,6.992c2.224,1.638,5.353,1.165,6.992-1.058c0.646-0.875,3.086-1.941,6.486-1.572
		c2.825,0.309,4.752,1.436,5.613,2.387c0.948,1.048,2.295,1.646,3.707,1.646c0.014,0,0.027,0,0.041,0
		c1.427-0.012,2.78-0.633,3.721-1.706c0.678-0.773,3.028-1.863,6.425-1.491c3.037,0.331,5.18,1.646,5.886,2.727
		c0.812,1.243,2.134,2.062,3.609,2.233c1.477,0.174,2.95-0.321,4.024-1.346c0.935-0.89,3.306-1.702,6.316-1.369
		c3.426,0.374,5.473,1.949,5.959,2.854c0.672,1.25,1.842,2.156,3.221,2.492c1.381,0.339,2.835,0.071,4.006-0.729
		c1.055-0.722,3.169-1.384,5.94-1.081c3.384,0.369,5.579,1.976,5.998,2.946c0.814,1.89,2.657,3.021,4.593,3.021
		c0.661,0,1.333-0.132,1.979-0.41c2.535-1.093,3.704-4.035,2.61-6.571c-1.289-2.99-3.992-5.49-7.462-7.102
		c1.413-1.221,2.691-2.562,3.816-4.036c7.474,4.52,15.604,6.828,24.038,6.827c3.203,0,6.452-0.332,9.722-1.001
		c7.794-1.595,14.889-7.793,19.978-17.454C294.918,214.16,296.813,199.866,293.225,191.364z M205.307,236.422
		c-3.653-0.399-7.184,0.1-10.12,1.363c-2.61-1.919-5.997-3.202-9.717-3.608c-2.071-0.226-4.104-0.157-6.012,0.174
		c-7.563-5.439-11.942-12.852-14.319-18.29c-3.459-7.906-6.357-22.819,13.101-33.87c6.313-3.588,13.177-0.819,17.834,2.139
		c1.442,0.913,2.178,2.603,1.868,4.325c-0.297,1.702-1.616,3.078-3.263,3.421c-5.109,1.042-9.045,2.834-11.688,5.318
		c-4.201,3.932-4.921,12.614-1.673,20.199c2.007,4.686,8.563,15.48,26.298,14.463c10.178-0.589,18.104-6.568,22.919-17.285
		c0.08-0.177,0.128-0.283,0.457-0.216c0.301,0.061,0.303,0.144,0.307,0.343c0.283,12.494-4.371,20.147-14.235,23.401
		c-1.07,0.355-2.146,0.667-3.222,0.957C211.424,237.773,208.487,236.77,205.307,236.422z M279.77,221.459
		c-3.613,6.859-8.4,11.349-13.134,12.317c-9.697,1.985-18.822,0.314-27.173-4.949c1.332-4.164,1.953-8.894,1.834-14.158
		c-0.113-4.943-3.454-8.929-8.313-9.915c-3.867-0.786-7.581,0.547-9.974,3.386c-0.826-4.619,0.046-9.464,2.612-14.794
		c1.312-2.721,3.636-4.674,6.277-6.078c-0.213,3.528,0.39,6.978,1.836,10.094c2.155,4.636,5.537,7.887,9.78,9.401
		c2.025,0.723,4.04,0.989,5.909,0.989c4.809,0,8.65-1.763,9.217-2.036c2.487-1.2,3.53-4.188,2.33-6.676
		c-1.199-2.487-4.188-3.529-6.676-2.33c-0.825,0.399-4.506,1.676-7.418,0.635c-1.712-0.611-3.046-1.985-4.073-4.196
		c-1.505-3.243-1.716-6.729-0.437-10.384c1.75-5,8.855-10.367,14.77-9.739c10.443,1.094,21.996,10.646,26.874,22.221
		C286.102,200.206,285.088,211.365,279.77,221.459z"/>
	<path d="M144.458,214.236c1.982,0,3.785-1.174,4.582-3.001c0.822-1.885,0.406-4.081-1.048-5.534l-25.02-25.02
		c-1.951-1.953-5.119-1.953-7.07,0L92.67,203.914c-1.406,1.406-1.846,3.512-1.119,5.362c0.728,1.852,2.481,3.096,4.469,3.169
		l48.253,1.787C144.334,214.235,144.396,214.236,144.458,214.236z M107.849,202.876l11.589-11.589l12.48,12.48L107.849,202.876z"/>
	<path d="M238.543,258.27c-1.131-1.333-2.876-1.979-4.608-1.701l-20.666,3.333c-1.496,0.241-2.802,1.147-3.551,2.465
		s-0.86,2.902-0.303,4.312l9.909,25.042c0.768,1.938,2.633,3.161,4.647,3.161c0.351,0,0.706-0.037,1.061-0.114l29.424-6.375
		c1.717-0.372,3.112-1.617,3.677-3.281c0.563-1.663,0.214-3.501-0.923-4.841L238.543,258.27z M227.062,284.095l-6.059-15.312
		l11.739-1.894l11.449,13.494L227.062,284.095z"/>
	<path d="M202.064,169.171c0.046,0,0.093-0.001,0.139-0.002l24-0.666c1.565-0.043,3.02-0.817,3.93-2.092l13.333-18.667
		c1.02-1.428,1.217-3.285,0.52-4.895c-0.698-1.609-2.188-2.736-3.927-2.968l-30-4c-2.42-0.324-4.702,1.137-5.431,3.457
		l-7.333,23.333c-0.485,1.542-0.194,3.224,0.78,4.513C199.021,168.438,200.499,169.171,202.064,169.171z M212.906,146.35
		l17.592,2.346l-7.058,9.881l-14.503,0.402L212.906,146.35z"/>
	<path d="M147.877,248.937c-0.99-1.168-2.437-1.812-3.994-1.763c-1.53,0.056-2.951,0.811-3.855,2.047l-12.667,17.334
		c-1.032,1.413-1.251,3.264-0.576,4.879c0.675,1.614,2.146,2.759,3.877,3.017l31.333,4.666c0.247,0.037,0.493,0.055,0.738,0.055
		c1.794,0,3.478-0.968,4.368-2.57c1.012-1.819,0.79-4.076-0.558-5.664L147.877,248.937z M140.314,265.778l4.043-5.533l5.958,7.022
		L140.314,265.778z"/>
	<path d="M342.811,226.38c-0.649-2.211-2.722-3.689-5.033-3.581l-2.15,0.103l-3.93-6.136c-5.223-8.145-15.441-11.224-24.298-7.325
		c-4.593,2.026-8.19,5.688-10.133,10.311l-6.43,15.33c-0.663,1.582-0.469,3.395,0.515,4.8c0.938,1.341,2.47,2.134,4.096,2.134
		c0.079,0,0.159-0.002,0.238-0.006l17.475-0.83l-2.569,8.946c-0.459,1.598-0.094,3.319,0.976,4.594
		c0.955,1.139,2.36,1.786,3.829,1.786c0.175,0,0.35-0.009,0.524-0.027l28.711-3.022c1.476-0.155,2.807-0.959,3.632-2.192
		s1.061-2.77,0.641-4.193L342.811,226.38z M317.182,227.176l-1.107,3.854l-12.953,0.614l3.366-8.023
		c0.946-2.255,2.704-4.042,4.944-5.03c4.317-1.904,9.3-0.4,11.846,3.571l0.825,1.288l-2.353,0.112
		C319.61,223.664,317.772,225.118,317.182,227.176z M322.25,245.756l3.554-12.376l8.524-0.406l3.288,11.165L322.25,245.756z"/>
</g>
<g>
</g>
<g>
</g>
<g>
</g>
<g>
</g>
<g>
</g>
<g>
</g>
<g>
</g>
<g>
</g>
<g>
</g>
<g>
</g>
<g>
</g>
<g>
</g>
<g>
</g>
<g>
</g>
<g>
</g>
</svg>
